<svg width="754" height="464" viewBox="0 0 754 464" fill="none" xmlns="http://www.w3.org/2000/svg">
<mask id="mask0_10_7801" style="mask-type:luminance" maskUnits="userSpaceOnUse" x="0" y="0" width="754" height="464">
<path d="M0 3.05176e-05H754V464H0V3.05176e-05Z" fill="white"/>
</mask>
<g mask="url(#mask0_10_7801)">
<path fill-rule="evenodd" clip-rule="evenodd" d="M643.958 302.579C625.52 302.579 610.434 317.482 610.434 335.696C610.434 368.926 582.909 396.117 549.268 396.117H545.892H209.426H138.028C94.3249 396.117 58.5667 360.796 58.5667 317.627C58.5667 274.455 94.3249 239.133 138.028 239.133H140.115C148.886 239.133 156.062 232.045 156.062 223.381C156.062 214.718 148.886 207.629 140.115 207.629H131.345C110.024 207.629 92.5811 190.397 92.5811 169.338C92.5811 148.3 109.984 131.083 131.271 131.044H169.095C187.533 131.044 202.618 116.143 202.618 97.9301V97.9281C202.618 64.6971 230.143 37.507 263.784 37.507H576.357C620.059 37.507 655.815 72.8301 655.815 115.999C655.815 159.168 620.059 194.491 576.357 194.491C567.586 194.491 560.41 201.581 560.41 210.244C560.41 218.906 567.586 225.996 576.357 225.996H643.958C694.68 225.996 694.681 302.579 643.958 302.579Z" fill="#DFF0F4"/>
<path fill-rule="evenodd" clip-rule="evenodd" d="M640.312 297.032C656.582 297.032 669.853 283.925 669.853 267.854C669.853 251.782 656.582 238.675 640.312 238.675C624.043 238.675 610.775 251.782 610.775 267.854C610.775 283.925 624.043 297.032 640.312 297.032Z" fill="#87A9BF"/>
<path fill-rule="evenodd" clip-rule="evenodd" d="M142.498 255.6C153.089 232.613 173.54 249.616 179.751 271.833C185.637 292.898 193.665 369.555 207.868 397.908L201.031 400.369C170.334 368.498 128.94 285.027 142.498 255.6Z" fill="#96BB55"/>
<path fill-rule="evenodd" clip-rule="evenodd" d="M203.545 399.464C165.248 345.604 155.434 255.645 155.398 255.338C155.335 254.782 155.742 254.278 156.307 254.215C156.871 254.153 157.381 254.556 157.444 255.115C157.479 255.418 167.302 345.482 205.522 398.751L203.545 399.464Z" fill="#BFD867"/>
<path fill-rule="evenodd" clip-rule="evenodd" d="M131.441 328.358C111.513 327.123 115.86 347.292 129.078 359.682C138.022 368.065 166.314 387.591 187.079 405.386L201.393 400.237C184.059 368.249 152.038 329.633 131.441 328.358Z" fill="#70853B"/>
<path fill-rule="evenodd" clip-rule="evenodd" d="M196.282 402.076C169.003 365.58 126.689 337.159 126.517 337.044C126.151 336.797 125.652 336.888 125.4 337.249C125.149 337.612 125.242 338.105 125.608 338.355C125.777 338.468 167.648 366.594 194.726 402.634L196.282 402.076Z" fill="#96AC51"/>
<path fill-rule="evenodd" clip-rule="evenodd" d="M111.016 445C115.3 445 118.803 441.536 118.803 437.306V436.666C118.803 432.433 115.3 428.971 111.016 428.971C106.732 428.971 103.227 432.433 103.227 436.666V437.306C103.227 441.538 106.732 445 111.016 445ZM104.931 393.068H656.728C663.151 393.068 668.411 398.265 668.411 404.609C668.411 410.954 663.153 416.148 656.728 416.148H617.311C613.742 416.148 610.822 419.035 610.822 422.56C610.822 426.086 613.742 428.971 617.311 428.971H631.732C636.193 428.971 639.844 432.58 639.844 436.986C639.844 441.391 636.194 445 631.732 445H131.216C126.755 445 123.104 441.393 123.104 436.986C123.104 432.579 126.755 428.971 131.216 428.971H142.576C146.144 428.971 149.064 426.087 149.064 422.56C149.064 419.035 146.144 416.148 142.576 416.148H104.931C98.5064 416.148 93.2491 410.954 93.2491 404.609C93.2491 398.261 98.5093 393.068 104.931 393.068Z" fill="#233E29"/>
<path fill-rule="evenodd" clip-rule="evenodd" d="M414.926 63.25H355.949C355.047 63.25 354.311 63.9995 354.311 64.9172V101.909C354.311 102.826 355.047 103.576 355.949 103.576H414.926C415.827 103.576 416.563 102.826 416.563 101.909V64.9172C416.563 63.9995 415.827 63.25 414.926 63.25Z" fill="#96BB55"/>
<path fill-rule="evenodd" clip-rule="evenodd" d="M414.926 63.25H355.949C355.049 63.25 354.311 63.9995 354.311 64.9173V66.3376L381.501 91.8935C385.894 96.0213 384.596 96.3858 388.878 92.3601L416.563 66.3376V64.9173C416.563 63.9995 415.827 63.25 414.926 63.25Z" fill="#96BB55"/>
<path fill-rule="evenodd" clip-rule="evenodd" d="M354.311 100.309V101.909C354.311 102.826 355.049 103.576 355.95 103.576H414.925C415.827 103.576 416.563 102.826 416.563 101.909V100.309L388.666 76.2691C384.649 72.8073 385.864 73.1213 381.745 76.6716L354.311 100.309Z" fill="#96BB55"/>
<path fill-rule="evenodd" clip-rule="evenodd" d="M354.351 102.268C354.512 103.014 355.17 103.577 355.949 103.577H414.926C415.707 103.577 416.363 103.014 416.526 102.268L388.353 77.9924C384.724 74.865 385.824 75.1489 382.1 78.356L354.351 102.268Z" fill="#86B21B"/>
<path fill-rule="evenodd" clip-rule="evenodd" d="M396.602 85.1006L388.353 77.9923C384.725 74.8648 385.825 75.1487 382.101 78.3568L374.275 85.1006L381.501 91.8931C385.894 96.0208 384.596 96.3854 388.878 92.3607L396.602 85.1006Z" fill="#96BB55"/>
<path fill-rule="evenodd" clip-rule="evenodd" d="M414.926 63.25H355.949C355.409 63.25 354.924 63.5213 354.626 63.9373L382.101 89.7596C385.825 93.2584 384.725 93.5685 388.353 90.1553L416.249 63.9373C415.95 63.5213 415.468 63.25 414.926 63.25Z" fill="#86B21B"/>
<path fill-rule="evenodd" clip-rule="evenodd" d="M414.879 54.4191C420.9 54.4191 425.781 59.24 425.781 65.1866C425.781 71.1342 420.9 75.9551 414.879 75.9551C408.859 75.9551 403.979 71.1342 403.979 65.1866C403.979 59.24 408.859 54.4191 414.879 54.4191Z" fill="#86B21B"/>
<path fill-rule="evenodd" clip-rule="evenodd" d="M416.679 71.2219H413.621V62.7194C412.504 63.7557 411.189 64.5237 409.67 65.0205V62.2635C410.47 62.0068 411.337 61.5188 412.27 60.7936C413.21 60.0742 413.848 59.2333 414.198 58.2728H416.679V71.2219Z" fill="white"/>
<path fill-rule="evenodd" clip-rule="evenodd" d="M456.998 197.958C456.879 197.722 456.685 197.547 456.454 197.434C455.403 196.955 454.358 198.025 454.869 199.035C455.271 199.812 455.757 200.552 456.321 201.222C456.738 201.718 457.466 201.789 457.973 201.402C458.512 200.994 458.589 200.222 458.161 199.716C457.714 199.185 457.315 198.575 456.998 197.958ZM455.961 189.23C455.961 187.73 453.669 187.629 453.57 189.177V191.592C453.57 193.093 455.862 193.194 455.959 191.646L455.961 189.23ZM455.961 179.78C455.961 178.28 453.669 178.178 453.57 179.729V182.144C453.57 183.645 455.862 183.744 455.959 182.197L455.961 179.78ZM455.961 170.332C455.961 168.831 453.669 168.731 453.57 170.279V172.694C453.57 174.194 455.862 174.295 455.959 172.747L455.961 170.332ZM455.961 160.884C455.961 159.383 453.669 159.283 453.57 160.83V163.245C453.57 164.746 455.862 164.846 455.959 163.299L455.961 160.884ZM455.961 151.434C455.961 149.933 453.669 149.832 453.57 151.382V153.797C453.57 155.298 455.862 155.397 455.959 153.849L455.961 151.434ZM455.961 141.985C455.961 140.485 453.669 140.383 453.57 141.932V144.347C453.57 145.847 455.862 145.948 455.959 144.401L455.961 141.985ZM455.961 132.537C455.961 131.036 453.669 130.936 453.57 132.483V134.899C453.57 136.399 455.862 136.5 455.959 134.951L455.961 132.537ZM455.961 123.086C455.961 121.585 453.669 121.485 453.57 123.033V125.45C453.57 126.951 455.862 127.051 455.959 125.502L455.961 123.086ZM455.961 113.639C455.961 112.138 453.669 112.037 453.57 113.585V115.999C453.57 117.5 455.862 117.601 455.959 116.054L455.961 113.639ZM455.961 104.19C455.961 102.69 453.669 102.588 453.57 104.136V106.552C453.57 108.053 455.862 108.153 455.959 106.605L455.961 104.19ZM454.991 94.3972C454.478 93.1315 452.427 93.6574 452.722 95.1127C452.74 95.1876 452.759 95.2478 452.79 95.3207C453.069 95.974 453.274 96.6234 453.408 97.3205C453.666 98.6805 455.684 98.5891 455.781 97.1649C455.781 97.0706 455.779 96.9948 455.762 96.9053C455.525 95.9653 455.382 95.3081 454.991 94.3972ZM447.305 87.6534C447.108 87.5882 446.897 87.5931 446.689 87.6339C445.5 87.9479 445.444 89.5287 446.62 89.9156C447.312 90.1158 447.945 90.3861 448.578 90.7264C449.785 91.4078 451.099 89.7523 449.877 88.7471C449.173 88.2989 448.113 87.8838 447.305 87.6534ZM437.44 87.1731C435.92 87.1731 435.819 89.4373 437.385 89.5335L439.831 89.5355C441.35 89.5355 441.452 87.2713 439.884 87.1731H437.44ZM427.873 87.1731C426.353 87.1731 426.252 89.4373 427.821 89.5335L430.265 89.5355C431.785 89.5355 431.886 87.2713 430.318 87.1731H427.873ZM465.605 205.567C467.125 205.567 467.227 203.303 465.661 203.205C464.891 203.193 464.244 203.137 463.489 202.972C462.075 202.71 461.47 204.576 462.716 205.19C462.801 205.228 462.886 205.264 462.979 205.281C463.847 205.469 464.719 205.567 465.605 205.567Z" fill="#4A2020"/>
<path fill-rule="evenodd" clip-rule="evenodd" d="M147.551 141.385H198.46C203.261 141.385 207.19 145.265 207.19 150.006V185.565V188.195V210.831C207.19 211.23 206.959 211.567 206.586 211.72C206.215 211.873 205.809 211.793 205.525 211.511L190.651 196.818H147.551C142.751 196.818 138.822 192.938 138.822 188.195V150.006C138.822 145.265 142.751 141.385 147.551 141.385Z" fill="#86B21B"/>
<path fill-rule="evenodd" clip-rule="evenodd" d="M164.61 178.208C162.873 178.606 161.107 179.187 159.515 180.001C159.847 180.392 160.196 180.769 160.562 181.13C162.64 183.182 165.195 184.686 167.995 185.507C167.2 184.527 166.558 183.4 166.047 182.294C165.444 180.982 164.976 179.604 164.61 178.208ZM186.496 180.001C184.905 179.187 183.136 178.608 181.401 178.208C181.034 179.604 180.566 180.982 179.964 182.294C179.453 183.4 178.811 184.527 178.017 185.507C180.817 184.686 183.371 183.182 185.45 181.13C185.814 180.769 186.165 180.392 186.496 180.001ZM181.631 160.402C183.483 159.955 185.394 159.301 187.055 158.366C186.562 157.725 186.027 157.116 185.45 156.546C183.371 154.493 180.817 152.99 178.017 152.17C178.811 153.148 179.453 154.274 179.964 155.381C180.698 156.977 181.238 158.688 181.631 160.402ZM158.956 158.366C160.618 159.301 162.529 159.955 164.38 160.402C164.774 158.688 165.312 156.977 166.05 155.381C166.558 154.274 167.2 153.148 167.995 152.17C165.195 152.99 162.64 154.493 160.562 156.546C159.985 157.116 159.449 157.725 158.956 158.366ZM171.956 161.367V151.642C170.084 152.313 168.704 154.619 167.956 156.241C167.286 157.698 166.795 159.265 166.433 160.83C168.253 161.148 170.107 161.32 171.956 161.367ZM171.956 186.034V177.3C170.186 177.346 168.413 177.503 166.67 177.795C166.999 179.037 167.419 180.269 167.958 181.433C168.704 183.057 170.084 185.363 171.956 186.034ZM174.058 177.3V186.034C175.927 185.361 177.307 183.057 178.055 181.433C178.593 180.269 179.011 179.037 179.341 177.795C177.597 177.503 175.824 177.346 174.058 177.3ZM174.058 151.642V161.367C175.903 161.32 177.758 161.148 179.578 160.83C179.217 159.265 178.724 157.699 178.055 156.241C177.307 154.621 175.927 152.313 174.058 151.642ZM182.531 167.799H190.573C190.409 165.081 189.609 162.451 188.221 160.098C186.33 161.185 184.151 161.935 182.033 162.441C182.326 164.211 182.488 166.007 182.531 167.799ZM179.976 162.868C178.026 163.211 176.038 163.395 174.058 163.444V167.799H180.431C180.387 166.149 180.24 164.497 179.976 162.868ZM166.035 162.868C165.77 164.497 165.623 166.149 165.583 167.799H171.956V163.444C169.974 163.395 167.988 163.211 166.035 162.868ZM155.437 167.799H163.479C163.523 166.007 163.684 164.211 163.977 162.441C161.856 161.935 159.674 161.183 157.788 160.098C156.403 162.451 155.601 165.081 155.437 167.799ZM163.479 169.877H155.437C155.618 172.888 156.581 175.786 158.25 178.314C160.08 177.337 162.132 176.651 164.149 176.185C163.745 174.109 163.533 171.988 163.479 169.877ZM171.956 169.877H165.583C165.632 171.849 165.83 173.831 166.206 175.768C168.103 175.444 170.031 175.269 171.956 175.223V169.877ZM180.431 169.877H174.058V175.223C175.981 175.269 177.91 175.444 179.805 175.768C180.181 173.829 180.378 171.849 180.431 169.877ZM190.573 169.877H182.533C182.481 171.988 182.266 174.109 181.861 176.185C183.878 176.651 185.931 177.337 187.762 178.314C189.431 175.786 190.393 172.888 190.573 169.877ZM173.005 149.377C178.247 149.377 183.229 151.415 186.936 155.077C190.641 158.739 192.706 163.659 192.706 168.837C192.706 174.017 190.641 178.937 186.936 182.598C183.229 186.26 178.247 188.298 173.005 188.298C167.763 188.298 162.782 186.26 159.075 182.598C155.368 178.937 153.306 174.017 153.306 168.837C153.306 163.659 155.368 158.739 159.075 155.077C162.782 151.415 167.763 149.377 173.005 149.377Z" fill="white"/>
<path fill-rule="evenodd" clip-rule="evenodd" d="M645.852 328.409C647.025 328.744 648.135 329.215 649.167 329.805C650.226 330.409 651.203 331.138 652.076 331.971C652.249 332.132 652.502 332.156 652.696 332.044L656.628 329.801L656.652 329.79C656.875 329.669 657.132 329.646 657.366 329.709C657.609 329.771 657.826 329.927 657.959 330.156L657.975 330.181L660.743 334.913C660.875 335.143 660.902 335.405 660.836 335.646C660.771 335.883 660.616 336.098 660.385 336.23L660.358 336.247L656.458 338.472C656.254 338.588 656.16 338.822 656.213 339.037C656.356 339.609 656.466 340.2 656.54 340.802C656.613 341.391 656.652 341.992 656.652 342.603C656.652 343.214 656.613 343.817 656.54 344.404C656.466 345.008 656.356 345.598 656.213 346.17C656.154 346.409 656.272 346.649 656.486 346.753L660.385 348.976C660.616 349.108 660.771 349.323 660.836 349.562C660.902 349.801 660.875 350.065 660.743 350.293L657.959 355.052C657.826 355.28 657.609 355.435 657.367 355.498C657.125 355.563 656.859 355.537 656.628 355.406L656.6 355.389L652.696 353.163C652.492 353.047 652.24 353.083 652.076 353.238C651.203 354.07 650.228 354.799 649.167 355.403C648.129 355.997 647.011 356.469 645.831 356.804C645.602 356.868 645.453 357.073 645.453 357.299V361.777C645.453 362.042 645.341 362.283 645.167 362.456C644.989 362.631 644.747 362.739 644.479 362.739H638.915C638.649 362.739 638.405 362.631 638.227 362.456C638.051 362.283 637.941 362.042 637.941 361.777V357.299C637.941 357.055 637.77 356.851 637.542 356.799C636.368 356.463 635.257 355.993 634.226 355.403C633.166 354.799 632.189 354.07 631.315 353.238C631.138 353.068 630.867 353.049 630.67 353.179L626.765 355.406C626.534 355.537 626.268 355.563 626.026 355.498C625.784 355.435 625.568 355.28 625.434 355.052L625.417 355.027L622.65 350.291L622.653 350.29C622.517 350.063 622.491 349.8 622.557 349.562C622.621 349.322 622.778 349.108 623.007 348.976L626.935 346.737C627.14 346.619 627.233 346.386 627.18 346.17C627.037 345.598 626.927 345.008 626.852 344.404C626.78 343.817 626.742 343.214 626.742 342.603C626.742 341.992 626.78 341.39 626.852 340.802C626.927 340.198 627.037 339.609 627.18 339.037C627.24 338.799 627.121 338.559 626.907 338.455L623.007 336.23C622.778 336.1 622.621 335.885 622.557 335.646C622.491 335.407 622.517 335.145 622.653 334.917L622.666 334.888L625.434 330.154V330.156C625.568 329.927 625.784 329.771 626.026 329.709C626.268 329.645 626.534 329.669 626.765 329.801L630.697 332.044C630.906 332.165 631.165 332.122 631.326 331.959C632.199 331.131 633.171 330.405 634.226 329.805C635.263 329.21 636.382 328.737 637.562 328.403C637.792 328.338 637.94 328.133 637.941 327.909V323.429C637.941 323.165 638.051 322.926 638.227 322.75C638.405 322.576 638.649 322.469 638.915 322.469H644.479C644.747 322.469 644.989 322.576 645.167 322.75C645.341 322.926 645.453 323.165 645.453 323.429V327.909C645.453 328.152 645.623 328.356 645.852 328.409ZM647.679 336.694C646.149 335.181 644.033 334.245 641.696 334.245C639.359 334.245 637.245 335.181 635.713 336.694C634.184 338.206 633.236 340.297 633.236 342.603C633.236 344.912 634.184 347.001 635.713 348.514C637.245 350.026 639.359 350.962 641.696 350.962C644.033 350.962 646.149 350.026 647.679 348.514C649.21 347.001 650.157 344.912 650.157 342.603C650.157 340.297 649.21 338.206 647.679 336.694Z" fill="#AFCADC"/>
<path fill-rule="evenodd" clip-rule="evenodd" d="M636.622 293.698C652.89 293.698 666.161 280.592 666.161 264.52C666.161 248.449 652.89 235.342 636.622 235.342C620.353 235.342 607.083 248.449 607.083 264.52C607.083 280.592 620.353 293.698 636.622 293.698Z" fill="white"/>
<path fill-rule="evenodd" clip-rule="evenodd" d="M630.072 270.95C629.25 271.821 627.868 271.87 626.986 271.058C626.103 270.246 626.052 268.879 626.874 268.009C628.123 266.686 629.639 265.632 631.316 264.913C632.994 264.193 634.795 263.822 636.621 263.822C638.449 263.822 640.25 264.193 641.927 264.913C643.605 265.632 645.12 266.686 646.37 268.009C647.192 268.879 647.141 270.246 646.257 271.058C645.376 271.87 643.993 271.821 643.172 270.95C642.334 270.064 641.322 269.351 640.194 268.869C639.065 268.384 637.851 268.145 636.621 268.145C635.392 268.145 634.178 268.384 633.049 268.869C631.922 269.351 630.909 270.064 630.072 270.95ZM623.491 264.875C625.172 263.098 627.207 261.673 629.468 260.703C631.728 259.735 634.158 259.248 636.621 259.248C639.085 259.248 641.515 259.735 643.776 260.703C646.037 261.673 648.072 263.098 649.752 264.875C650.574 265.745 651.956 265.794 652.839 264.984C653.721 264.172 653.773 262.805 652.948 261.933C650.858 259.721 648.32 257.953 645.51 256.749C642.701 255.542 639.683 254.926 636.621 254.926C633.56 254.926 630.542 255.542 627.734 256.749C624.923 257.953 622.385 259.721 620.295 261.933C619.471 262.805 619.522 264.172 620.405 264.984C621.287 265.794 622.669 265.745 623.491 264.875ZM617.746 259.573C616.922 260.441 615.54 260.49 614.658 259.68C613.776 258.869 613.726 257.5 614.549 256.63C617.377 253.64 620.805 251.248 624.603 249.62C628.403 247.99 632.482 247.158 636.621 247.158C640.761 247.158 644.841 247.99 648.64 249.62C652.438 251.248 655.867 253.64 658.694 256.63C659.518 257.5 659.467 258.869 658.585 259.68C657.701 260.49 656.32 260.441 655.498 259.573C653.082 257.017 650.152 254.968 646.906 253.574C643.658 252.18 640.164 251.479 636.621 251.479C633.079 251.479 629.588 252.18 626.336 253.574C623.091 254.968 620.162 257.017 617.746 259.573ZM636.621 272.118C637.936 272.118 639.187 272.63 640.116 273.547C641.047 274.465 641.565 275.703 641.565 277.001C641.565 278.298 641.045 279.535 640.116 280.452L640.111 280.456C639.186 281.373 637.933 281.882 636.621 281.882C635.307 281.882 634.055 281.371 633.126 280.452C632.198 279.534 631.679 278.298 631.679 277.001C631.679 275.703 632.198 274.467 633.126 273.547C634.055 272.63 635.307 272.118 636.621 272.118Z" fill="#86B21B"/>
<path fill-rule="evenodd" clip-rule="evenodd" d="M166.95 56.7317C167.945 57.1487 168.909 57.6251 169.836 58.1539C170.782 58.6945 171.69 59.2904 172.554 59.933C173.419 60.5775 174.247 61.2755 175.03 62.0221C175.061 62.0513 175.1 62.0669 175.139 62.0717C175.181 62.0766 175.223 62.0698 175.257 62.0513C177.554 60.7399 179.855 59.4343 182.148 58.118C182.421 57.9731 182.715 57.8847 183.011 57.8506C183.316 57.8166 183.624 57.8399 183.917 57.9187C184.218 57.9984 184.508 58.1355 184.762 58.3289C185.005 58.5117 185.216 58.745 185.378 59.023C187.043 61.6858 188.623 64.5711 190.215 67.2941C190.376 67.5712 190.476 67.8706 190.515 68.1749C190.554 68.4899 190.535 68.8048 190.452 69.1013C190.373 69.3988 190.232 69.6837 190.037 69.9345C189.853 70.1756 189.615 70.3856 189.335 70.545C187.137 71.8846 184.755 73.1572 182.507 74.4404C182.471 74.4589 182.445 74.4929 182.428 74.5279C182.412 74.5658 182.409 74.6076 182.419 74.6475L182.576 75.2745L182.567 75.2784C182.636 75.5846 182.698 75.8957 182.757 76.2107C182.856 76.7502 182.939 77.282 183.005 77.8011C183.067 78.3183 183.117 78.8511 183.15 79.3994C183.183 79.9496 183.201 80.4891 183.201 81.0141C183.201 81.54 183.183 82.0767 183.15 82.6269C183.117 83.1752 183.067 83.7099 183.005 84.2271C182.939 84.7472 182.856 85.278 182.757 85.8175C182.657 86.3551 182.544 86.8771 182.417 87.3827C182.405 87.4235 182.412 87.4672 182.429 87.5052C182.448 87.546 182.478 87.5781 182.514 87.5965C185.024 88.9196 187.569 90.477 190.05 91.8934L189.961 92.0004L190.037 92.0947C190.232 92.3455 190.373 92.6303 190.452 92.9278C190.535 93.2243 190.554 93.5403 190.515 93.8552C190.476 94.1576 190.376 94.457 190.215 94.7331L185.019 103.626L184.921 103.57C184.87 103.616 184.816 103.658 184.762 103.701C184.508 103.893 184.218 104.032 183.917 104.111C183.618 104.189 183.298 104.213 182.982 104.173C182.682 104.137 182.389 104.041 182.115 103.891C179.841 102.699 177.5 101.259 175.254 99.9769C175.222 99.9604 175.181 99.9536 175.141 99.9584C175.1 99.9633 175.058 99.9808 175.028 100.011C174.246 100.756 173.417 101.454 172.552 102.098C171.689 102.74 170.782 103.335 169.836 103.874C168.904 104.406 167.932 104.886 166.933 105.306C165.938 105.723 164.917 106.083 163.872 106.378C163.831 106.39 163.796 106.413 163.773 106.445C163.747 106.479 163.731 106.519 163.733 106.56V114.346C163.733 114.666 163.668 114.971 163.549 115.252C163.427 115.546 163.248 115.808 163.025 116.024C162.805 116.243 162.537 116.42 162.246 116.54C161.96 116.658 161.65 116.723 161.328 116.723H151.655C151.331 116.723 151.022 116.658 150.737 116.54C150.445 116.42 150.179 116.243 149.954 116.024C149.735 115.808 149.556 115.546 149.434 115.252C149.314 114.971 149.249 114.666 149.249 114.346V106.558C149.249 106.513 149.236 106.47 149.211 106.441C149.187 106.411 149.148 106.385 149.104 106.376L149.072 106.365C148.023 106.066 147.008 105.709 146.032 105.298C145.038 104.879 144.075 104.405 143.146 103.874C142.2 103.335 141.294 102.74 140.431 102.097C139.564 101.453 138.737 100.752 137.953 100.007C137.919 99.9759 137.88 99.9584 137.84 99.9545C137.797 99.9497 137.754 99.9613 137.716 99.9837L130.891 103.877C130.608 104.037 130.307 104.135 130.004 104.174C129.684 104.213 129.366 104.189 129.064 104.111C128.765 104.032 128.477 103.894 128.223 103.701C127.983 103.522 127.776 103.294 127.614 103.027C125.821 100.177 124.128 97.0556 122.416 94.1313L122.509 94.0759C122.49 94.0011 122.477 93.9262 122.467 93.8514C122.428 93.5383 122.451 93.2243 122.529 92.9259C122.61 92.6303 122.751 92.3445 122.945 92.0947C123.132 91.8526 123.367 91.6436 123.647 91.4842L130.475 87.5897C130.512 87.5703 130.537 87.5372 130.554 87.5013C130.571 87.4643 130.574 87.4206 130.564 87.3797L130.386 86.6672L130.398 86.6652C130.337 86.3872 130.278 86.1053 130.224 85.8194C130.126 85.2799 130.043 84.7472 129.977 84.2271C129.915 83.7108 129.865 83.1771 129.833 82.6269C129.799 82.0767 129.782 81.54 129.782 81.0141C129.782 80.4891 129.799 79.9515 129.833 79.4003C129.865 78.853 129.915 78.3183 129.977 77.7982C130.042 77.282 130.126 76.7512 130.224 76.2078C130.327 75.6721 130.439 75.1511 130.566 74.6475C130.576 74.6066 130.571 74.5619 130.553 74.5221C130.534 74.4841 130.505 74.453 130.465 74.4336L123.645 70.543C123.363 70.3826 123.127 70.1736 122.945 69.9335C122.751 69.6808 122.609 69.3959 122.529 69.1013C122.451 68.8048 122.428 68.4918 122.467 68.1768C122.507 67.8823 122.601 67.5906 122.758 67.3174C124.382 64.3436 126.245 61.3436 127.964 58.4028L128.061 58.4592C128.112 58.4135 128.168 58.3688 128.223 58.3289C128.477 58.1355 128.765 57.9984 129.064 57.9187C129.366 57.839 129.684 57.8156 130.002 57.8555C130.311 57.8954 130.612 57.9916 130.889 58.1471L131.394 58.4339L131.392 58.4388L137.725 62.0513C137.765 62.0717 137.807 62.0785 137.846 62.0737C137.887 62.0678 137.926 62.0494 137.956 62.0212L137.972 62.0037C138.746 61.2658 139.574 60.5707 140.445 59.9233C141.311 59.2787 142.213 58.6877 143.146 58.1539C144.08 57.6222 145.05 57.1429 146.051 56.7229C147.044 56.3059 148.066 55.9462 149.111 55.6507C149.152 55.639 149.187 55.6157 149.209 55.5836C149.236 55.5495 149.252 55.5087 149.249 55.4698V47.681C149.249 47.364 149.314 47.0568 149.434 46.7769C149.556 46.4842 149.735 46.2218 149.957 46.004C150.179 45.7853 150.445 45.6083 150.737 45.4878C151.022 45.3701 151.331 45.307 151.655 45.307H161.328C161.65 45.307 161.96 45.3701 162.246 45.4878C162.537 45.6083 162.805 45.7853 163.028 46.004C163.463 46.4347 163.733 47.0296 163.733 47.681V55.4698C163.733 55.5155 163.751 55.5564 163.773 55.5884C163.798 55.6195 163.835 55.6429 163.879 55.6526L163.91 55.6633C164.96 55.9637 165.976 56.3214 166.95 56.7317ZM163.549 57.0243C164.514 57.3014 165.464 57.6368 166.393 58.0266C167.336 58.4223 168.245 58.8733 169.122 59.373C170.011 59.8805 170.871 60.4434 171.695 61.0578C172.519 61.6731 173.306 62.3342 174.044 63.0361C174.305 63.2859 174.631 63.4308 174.968 63.4716C175.308 63.5144 175.663 63.4434 175.973 63.2684C178.236 61.9764 180.62 60.6981 182.837 59.3516C182.944 59.2972 183.057 59.2632 183.169 59.2515C183.298 59.236 183.426 59.2476 183.548 59.2787C183.674 59.3127 183.792 59.3701 183.895 59.4459C183.993 59.5208 184.079 59.6161 184.145 59.7279C185.796 62.1952 187.453 65.3838 188.983 68.0018C189.049 68.1117 189.088 68.2322 189.103 68.3508C189.119 68.4782 189.108 68.6104 189.075 68.7368C189.042 68.8612 188.983 68.9779 188.905 69.08C188.831 69.1762 188.736 69.2627 188.621 69.3279C186.583 70.6568 183.957 71.9886 181.799 73.2213C181.483 73.4002 181.25 73.6705 181.117 73.9757C181.07 74.0827 181.038 74.1945 181.016 74.3082L180.875 74.3539L181.035 74.9829C181.156 75.4767 181.265 75.9715 181.358 76.4635C181.446 76.9437 181.522 77.4453 181.588 77.9674C181.651 78.4768 181.696 78.9833 181.727 79.482C181.757 79.971 181.773 80.4823 181.773 81.0141C181.773 81.5459 181.757 82.0572 181.727 82.5462C181.696 83.0449 181.651 83.5514 181.588 84.0628C181.522 84.5829 181.446 85.0845 181.358 85.5628C181.265 86.0566 181.156 86.5515 181.033 87.0463C180.942 87.4128 180.987 87.7793 181.135 88.0982C181.282 88.4151 181.537 88.6795 181.864 88.8458L187.907 92.292L187.905 92.294L188.621 92.7023C188.736 92.7664 188.831 92.852 188.905 92.9492C188.983 93.0503 189.042 93.167 189.075 93.2924C189.108 93.4197 189.119 93.5519 189.103 93.6773C189.088 93.7979 189.049 93.9165 188.983 94.0283L184.511 101.685L184.508 101.683L184.145 102.302C184.079 102.414 183.993 102.508 183.895 102.583C183.792 102.66 183.674 102.717 183.548 102.749C183.42 102.783 183.289 102.793 183.16 102.779C183.041 102.763 182.919 102.724 182.807 102.658C180.642 101.316 178.201 100.034 175.97 98.7617C175.65 98.5809 175.3 98.5187 174.971 98.5575C174.626 98.5984 174.301 98.7491 174.047 98.9902L174.044 98.9931C173.304 99.6959 172.519 100.359 171.692 100.974C170.871 101.585 170.011 102.148 169.122 102.655C168.241 103.16 167.322 103.613 166.373 104.011C165.444 104.401 164.477 104.74 163.482 105.021C163.131 105.121 162.84 105.328 162.635 105.597C162.429 105.866 162.31 106.205 162.308 106.56L162.307 114.346C162.307 114.477 162.28 114.602 162.233 114.713C162.185 114.828 162.109 114.935 162.017 115.027C161.927 115.118 161.819 115.191 161.701 115.241C161.587 115.285 161.462 115.312 161.328 115.312H151.655C151.523 115.312 151.397 115.285 151.284 115.241C151.164 115.19 151.054 115.118 150.964 115.029C150.873 114.935 150.798 114.828 150.751 114.713C150.704 114.602 150.677 114.477 150.677 114.346V106.558C150.677 106.189 150.548 105.846 150.326 105.57C150.104 105.29 149.79 105.087 149.434 105.004C148.468 104.729 147.518 104.393 146.591 104.003C145.65 103.608 144.737 103.157 143.861 102.655C142.971 102.148 142.111 101.585 141.291 100.972C140.463 100.359 139.679 99.6959 138.941 98.9911C138.667 98.7325 138.322 98.5867 137.968 98.5546C137.608 98.5206 137.24 98.6091 136.931 98.8103L130.182 102.66C130.07 102.724 129.948 102.763 129.824 102.779C129.697 102.793 129.564 102.783 129.433 102.749C129.308 102.717 129.19 102.66 129.088 102.583C128.989 102.508 128.903 102.414 128.837 102.302C127.233 99.5394 125.605 96.7892 124 94.0263C123.936 93.9165 123.895 93.7959 123.881 93.6754C123.865 93.55 123.874 93.4197 123.907 93.2914C123.944 93.166 124 93.0484 124.075 92.9482C124.151 92.8481 124.245 92.7655 124.356 92.7023L131.184 88.8069C131.5 88.629 131.734 88.3597 131.866 88.0534C131.902 87.9708 131.93 87.8843 131.951 87.7968L132.13 87.7628L131.95 87.0463C131.826 86.5534 131.717 86.0586 131.627 85.5667C131.536 85.0864 131.46 84.5848 131.394 84.0628C131.331 83.5514 131.285 83.0449 131.256 82.5462C131.226 82.0572 131.21 81.5459 131.21 81.0141C131.21 80.4843 131.226 79.971 131.256 79.4839C131.285 78.9852 131.331 78.4778 131.394 77.9693C131.46 77.4405 131.538 76.9369 131.627 76.4615C131.717 75.9696 131.826 75.4767 131.95 74.9829C132.042 74.6144 131.996 74.245 131.848 73.9291C131.698 73.6131 131.444 73.3477 131.121 73.1834L124.359 69.3279C124.247 69.2666 124.153 69.1801 124.075 69.08C124 68.9827 123.944 68.8651 123.907 68.7368C123.874 68.6104 123.865 68.4801 123.881 68.3547C123.895 68.2322 123.936 68.1117 124 68.0018C125.651 65.5763 127.304 62.3361 128.837 59.7279C128.903 59.6161 128.989 59.5208 129.088 59.4459C129.19 59.3701 129.308 59.3127 129.433 59.2787C129.562 59.2466 129.697 59.235 129.823 59.2515C129.942 59.2651 130.063 59.3059 130.18 59.3721L137.013 63.2665C137.333 63.4522 137.695 63.5163 138.036 63.4687C138.381 63.423 138.707 63.2665 138.96 63.0196C139.702 62.3128 140.483 61.6527 141.299 61.0471C142.111 60.4434 142.966 59.8844 143.861 59.373C144.742 58.8704 145.66 58.4155 146.609 58.0188C147.54 57.628 148.505 57.2878 149.502 57.0058C149.852 56.9076 150.143 56.7006 150.348 56.4332C150.555 56.162 150.674 55.8247 150.675 55.4698L150.677 47.681C150.677 47.5517 150.704 47.4282 150.75 47.3154C150.798 47.2017 150.873 47.0947 150.966 47.0034C151.054 46.912 151.164 46.8381 151.284 46.7895C151.397 46.7428 151.523 46.7185 151.655 46.7185H161.328C161.462 46.7185 161.587 46.7428 161.701 46.7895C161.819 46.8381 161.927 46.912 162.019 47.0014C162.195 47.1774 162.307 47.4185 162.307 47.681V55.4698C162.307 55.8431 162.435 56.1853 162.652 56.4595C162.88 56.7385 163.194 56.9436 163.549 57.0243ZM161.845 68.2352C163.552 68.9361 165.095 69.9617 166.386 71.2401C167.68 72.5175 168.719 74.0399 169.428 75.7256C170.11 77.352 170.486 79.1378 170.486 81.0141C170.486 82.8904 170.11 84.6781 169.428 86.3036C168.719 87.9903 167.68 89.5126 166.386 90.7891C165.095 92.0675 163.552 93.0941 161.845 93.793C160.199 94.4658 158.392 94.8391 156.492 94.8391C154.593 94.8391 152.786 94.4658 151.141 93.793C149.43 93.0941 147.889 92.0675 146.596 90.7891C145.304 89.5126 144.263 87.9903 143.554 86.3036C142.874 84.6781 142.496 82.8904 142.496 81.0141C142.496 79.1378 142.874 77.352 143.554 75.7256C144.263 74.0399 145.304 72.5175 146.596 71.2401C147.889 69.9617 149.43 68.9361 151.137 68.2352C152.783 67.5624 154.59 67.1911 156.492 67.1911C158.392 67.1911 160.199 67.5624 161.845 68.2352ZM167.398 70.2417C165.978 68.8408 164.279 67.7102 162.386 66.9354C160.567 66.1898 158.576 65.7795 156.492 65.7795C154.406 65.7795 152.415 66.1898 150.597 66.9354C148.705 67.7102 147.005 68.8408 145.587 70.2417C144.167 71.6435 143.021 73.3215 142.24 75.1919C141.485 76.9894 141.069 78.9551 141.069 81.0141C141.069 83.0731 141.485 85.0407 142.24 86.8383C143.021 88.7067 144.167 90.3856 145.587 91.7875C147.005 93.1884 148.702 94.3199 150.593 95.0928C152.412 95.8394 154.406 96.2497 156.492 96.2497C158.576 96.2497 160.567 95.8394 162.386 95.0947C164.277 94.3199 165.978 93.1884 167.398 91.7875C168.815 90.3856 169.962 88.7067 170.744 86.8383C171.498 85.0407 171.914 83.0731 171.914 81.0141C171.914 78.9551 171.498 76.9894 170.744 75.1919C169.962 73.3215 168.815 71.6435 167.398 70.2417Z" fill="#CEE3F0"/>
<path fill-rule="evenodd" clip-rule="evenodd" d="M429.653 150.241C431.604 150.241 433.196 148.669 433.196 146.741C433.196 144.812 431.604 143.24 429.653 143.24C427.702 143.24 426.11 144.812 426.11 146.741C426.11 148.669 427.702 150.241 429.653 150.241Z" fill="white"/>
<path fill-rule="evenodd" clip-rule="evenodd" d="M103.888 280.969C105.061 281.303 106.171 281.774 107.204 282.364C108.264 282.968 109.24 283.697 110.112 284.53C110.285 284.693 110.538 284.716 110.732 284.605L114.665 282.362L114.687 282.35C114.913 282.229 115.168 282.206 115.403 282.268C115.646 282.332 115.863 282.487 115.995 282.715L116.011 282.742L118.78 287.474C118.912 287.702 118.937 287.966 118.874 288.205C118.809 288.444 118.653 288.658 118.42 288.79L118.394 288.808L114.496 291.031C114.29 291.147 114.196 291.381 114.25 291.598C114.394 292.169 114.503 292.76 114.578 293.363C114.651 293.951 114.687 294.552 114.687 295.164C114.687 295.775 114.651 296.377 114.578 296.963C114.503 297.568 114.393 298.157 114.249 298.731C114.189 298.968 114.308 299.209 114.522 299.312L118.42 301.535V301.537C118.653 301.669 118.809 301.883 118.874 302.122C118.937 302.361 118.912 302.624 118.78 302.852L115.997 307.611H115.995C115.863 307.842 115.646 307.994 115.405 308.057C115.161 308.123 114.896 308.096 114.665 307.965L114.637 307.95L110.732 305.722C110.528 305.607 110.278 305.644 110.112 305.797C109.24 306.63 108.264 307.359 107.204 307.964C106.166 308.556 105.048 309.029 103.866 309.365C103.638 309.428 103.489 309.634 103.489 309.858V314.338C103.489 314.603 103.379 314.842 103.203 315.015C103.027 315.191 102.784 315.299 102.515 315.299H96.9507C96.684 315.299 96.4409 315.191 96.2618 315.015C96.0876 314.842 95.9774 314.603 95.9774 314.338V309.858C95.9774 309.616 95.8081 309.413 95.5769 309.358C94.4057 309.023 93.2927 308.552 92.2623 307.964C91.2044 307.359 90.2252 306.63 89.3513 305.797C89.1741 305.627 88.9035 305.61 88.7057 305.739L84.8007 307.965C84.5704 308.096 84.3056 308.123 84.0626 308.057C83.8205 307.994 83.6049 307.842 83.4691 307.611L83.4534 307.586L80.687 302.851H80.688C80.5532 302.623 80.5266 302.361 80.5935 302.122C80.6585 301.883 80.8139 301.667 81.0433 301.537L84.9709 299.296C85.1766 299.179 85.2691 298.946 85.216 298.731C85.0742 298.157 84.963 297.568 84.8902 296.963C84.8174 296.377 84.778 295.775 84.778 295.164C84.778 294.552 84.8174 293.951 84.8902 293.361C84.963 292.76 85.0742 292.169 85.216 291.598C85.275 291.359 85.1569 291.119 84.9433 291.015L81.0433 288.79C80.8139 288.659 80.6585 288.444 80.5935 288.205C80.5266 287.966 80.5532 287.704 80.688 287.476L80.7027 287.449L83.4691 282.715C83.6049 282.487 83.8205 282.332 84.0626 282.268C84.3056 282.205 84.5704 282.23 84.8007 282.362L88.7322 284.605C88.9428 284.724 89.2007 284.683 89.3631 284.519C90.235 283.69 91.2073 282.966 92.2623 282.364C93.2996 281.771 94.4205 281.298 95.6005 280.962C95.8278 280.899 95.9774 280.692 95.9774 280.469V275.988C95.9774 275.725 96.0876 275.485 96.2618 275.31C96.4409 275.135 96.684 275.028 96.9507 275.028H102.515C102.784 275.028 103.027 275.135 103.203 275.31C103.379 275.485 103.489 275.725 103.489 275.988V280.469C103.489 280.712 103.659 280.915 103.888 280.969ZM105.716 289.253C104.184 287.741 102.069 286.806 99.7318 286.806C97.3955 286.806 95.2806 287.741 93.7513 289.253C92.219 290.766 91.2713 292.856 91.2713 295.164C91.2713 297.472 92.219 299.562 93.7513 301.073C95.2806 302.585 97.3955 303.521 99.7318 303.521C102.069 303.521 104.184 302.585 105.716 301.073C107.246 299.562 108.194 297.472 108.194 295.164C108.194 292.856 107.246 290.766 105.716 289.253Z" fill="#AFCADC"/>
<path fill-rule="evenodd" clip-rule="evenodd" d="M253.913 100.979H258.004C258.99 100.979 259.794 100.183 259.794 99.2095V95.1673C259.794 94.1961 258.99 93.3999 258.004 93.3999H253.913C252.928 93.3999 252.123 94.1961 252.123 95.1673V99.2095C252.123 100.183 252.928 100.979 253.913 100.979Z" fill="#66A9B0"/>
<path fill-rule="evenodd" clip-rule="evenodd" d="M268.103 100.979H272.194C273.179 100.979 273.984 100.183 273.984 99.2095V95.1673C273.984 94.1961 273.179 93.3999 272.194 93.3999H268.103C267.119 93.3999 266.316 94.1961 266.316 95.1673V99.2095C266.316 100.183 267.119 100.979 268.103 100.979Z" fill="white"/>
<path fill-rule="evenodd" clip-rule="evenodd" d="M282.294 100.979H286.383C287.369 100.979 288.175 100.183 288.175 99.2095V95.1673C288.175 94.1961 287.369 93.3999 286.383 93.3999H282.294C281.309 93.3999 280.505 94.1961 280.505 95.1673V99.2095C280.505 100.183 281.309 100.979 282.294 100.979Z" fill="#66A9B0"/>
<path fill-rule="evenodd" clip-rule="evenodd" d="M296.484 100.979H300.575C301.559 100.979 302.367 100.183 302.367 99.2095V95.1673C302.367 94.1961 301.559 93.3999 300.575 93.3999H296.484C295.499 93.3999 294.695 94.1961 294.695 95.1673V99.2095C294.695 100.183 295.499 100.979 296.484 100.979Z" fill="white"/>
<path fill-rule="evenodd" clip-rule="evenodd" d="M310.674 100.979H314.767C315.752 100.979 316.556 100.183 316.556 99.2095V95.1673C316.556 94.1961 315.752 93.3999 314.767 93.3999H310.674C309.69 93.3999 308.885 94.1961 308.885 95.1673V99.2095C308.885 100.183 309.69 100.979 310.674 100.979Z" fill="#66A9B0"/>
<path fill-rule="evenodd" clip-rule="evenodd" d="M282.808 85.695H286.899C287.884 85.695 288.689 84.9018 288.689 83.9277V79.8855C288.689 78.9123 287.884 78.1181 286.899 78.1181H282.808C281.823 78.1181 281.019 78.9123 281.019 79.8855V83.9277C281.019 84.9018 281.823 85.695 282.808 85.695Z" fill="white"/>
<path fill-rule="evenodd" clip-rule="evenodd" d="M296.998 85.695H301.089C302.075 85.695 302.879 84.9018 302.879 83.9277V79.8855C302.879 78.9123 302.075 78.1181 301.089 78.1181H296.998C296.013 78.1181 295.209 78.9123 295.209 79.8855V83.9277C295.209 84.9018 296.013 85.695 296.998 85.695Z" fill="#66A9B0"/>
<path fill-rule="evenodd" clip-rule="evenodd" d="M311.188 85.695H315.279C316.264 85.695 317.07 84.9018 317.07 83.9277V79.8855C317.07 78.9123 316.264 78.1181 315.279 78.1181H311.188C310.203 78.1181 309.399 78.9123 309.399 79.8855V83.9277C309.399 84.9018 310.203 85.695 311.188 85.695Z" fill="white"/>
<path fill-rule="evenodd" clip-rule="evenodd" d="M621.626 90.9526C621.995 90.5881 622.593 90.5881 622.962 90.9526C623.331 91.3172 623.331 91.9073 622.962 92.2718L619.957 95.2398C619.588 95.6044 618.991 95.6044 618.622 95.2398C618.253 94.8753 618.253 94.2842 618.622 93.9196L621.626 90.9526ZM625.077 97.3134C625.598 97.3134 626.02 97.7305 626.02 98.2457C626.02 98.76 625.598 99.179 625.077 99.179H620.827C620.307 99.179 619.881 98.76 619.881 98.2457C619.881 97.7305 620.307 97.3134 620.827 97.3134H625.077ZM622.962 104.219C623.331 104.583 623.331 105.175 622.962 105.54C622.593 105.904 621.995 105.904 621.626 105.54L618.622 102.571C618.253 102.207 618.253 101.615 618.622 101.251C618.991 100.888 619.588 100.888 619.957 101.251L622.962 104.219ZM616.523 107.627C616.523 108.142 616.101 108.56 615.579 108.56C615.056 108.56 614.635 108.142 614.635 107.627V103.43C614.635 102.914 615.056 102.497 615.579 102.497C616.101 102.497 616.523 102.914 616.523 103.43V107.627ZM609.532 105.54C609.163 105.904 608.565 105.904 608.196 105.54C607.827 105.175 607.827 104.583 608.196 104.219L611.201 101.251C611.57 100.888 612.167 100.888 612.536 101.251C612.905 101.615 612.905 102.207 612.536 102.571L609.532 105.54ZM606.083 99.179C605.561 99.179 605.137 98.76 605.137 98.2457C605.137 97.7305 605.561 97.3134 606.083 97.3134H610.33C610.852 97.3134 611.276 97.7305 611.276 98.2457C611.276 98.76 610.852 99.179 610.33 99.179H606.083ZM608.196 92.2718C607.827 91.9073 607.827 91.3172 608.196 90.9526C608.565 90.5881 609.163 90.5881 609.532 90.9526L612.536 93.9196C612.905 94.2842 612.905 94.8753 612.536 95.2398C612.167 95.6044 611.57 95.6044 611.201 95.2398L608.196 92.2718ZM614.635 88.8644C614.635 88.3492 615.056 87.9321 615.579 87.9321C616.101 87.9321 616.523 88.3492 616.523 88.8644V93.0622C616.523 93.5765 616.101 93.9945 615.579 93.9945C615.056 93.9945 614.635 93.5765 614.635 93.0622V88.8644Z" fill="#66A9B0"/>
<path fill-rule="evenodd" clip-rule="evenodd" d="M101.96 345.957C102.329 345.593 102.927 345.593 103.296 345.957C103.664 346.322 103.664 346.912 103.296 347.276L100.293 350.244C99.9238 350.609 99.3235 350.609 98.9545 350.244C98.5874 349.88 98.5874 349.289 98.9545 348.924L101.96 345.957ZM105.41 352.318C105.931 352.318 106.354 352.735 106.354 353.25C106.354 353.765 105.931 354.184 105.41 354.184H101.161C100.638 354.184 100.217 353.765 100.217 353.25C100.217 352.735 100.638 352.318 101.161 352.318H105.41ZM103.296 359.223C103.664 359.588 103.664 360.18 103.296 360.544C102.927 360.909 102.329 360.909 101.96 360.544L98.9545 357.575C98.5874 357.212 98.5874 356.62 98.9545 356.255C99.3235 355.893 99.9238 355.893 100.293 356.255L103.296 359.223ZM96.8583 362.632C96.8583 363.147 96.4341 363.565 95.9125 363.565C95.3929 363.565 94.9678 363.147 94.9678 362.632V358.435C94.9678 357.919 95.3929 357.502 95.9125 357.502C96.4341 357.502 96.8583 357.919 96.8583 358.435V362.632ZM89.8661 360.544C89.497 360.909 88.8996 360.909 88.5296 360.544C88.1625 360.18 88.1625 359.588 88.5296 359.223L91.5332 356.255C91.9022 355.893 92.5025 355.893 92.8716 356.255C93.2387 356.62 93.2387 357.212 92.8716 357.575L89.8661 360.544ZM86.4157 354.184C85.8951 354.184 85.4719 353.765 85.4719 353.25C85.4719 352.735 85.8951 352.318 86.4157 352.318H90.6652C91.1877 352.318 91.6089 352.735 91.6089 353.25C91.6089 353.765 91.1877 354.184 90.6652 354.184H86.4157ZM88.5296 347.276C88.1625 346.912 88.1625 346.322 88.5296 345.957C88.8996 345.593 89.497 345.593 89.8661 345.957L92.8716 348.924C93.2387 349.289 93.2387 349.88 92.8716 350.244C92.5025 350.609 91.9022 350.609 91.5332 350.244L88.5296 347.276ZM94.9678 343.869C94.9678 343.354 95.3929 342.937 95.9125 342.937C96.4341 342.937 96.8583 343.354 96.8583 343.869V348.067C96.8583 348.581 96.4341 348.999 95.9125 348.999C95.3929 348.999 94.9678 348.581 94.9678 348.067V343.869Z" fill="#66A9B0"/>
<path fill-rule="evenodd" clip-rule="evenodd" d="M173.194 218.575C175.147 218.575 176.737 217.003 176.737 215.075C176.737 213.147 175.147 211.575 173.194 211.575C171.244 211.575 169.652 213.147 169.652 215.075C169.652 217.003 171.244 218.575 173.194 218.575Z" fill="white"/>
<path fill-rule="evenodd" clip-rule="evenodd" d="M240.684 58.5724C242.634 58.5724 244.226 57.0004 244.226 55.0727C244.226 53.1439 242.634 51.572 240.684 51.572C238.733 51.572 237.141 53.1439 237.141 55.0727C237.141 57.0004 238.733 58.5724 240.684 58.5724Z" fill="white"/>
<path fill-rule="evenodd" clip-rule="evenodd" d="M470.146 61.9056C472.098 61.9056 473.691 60.3337 473.691 58.4059C473.691 56.4771 472.098 54.9052 470.146 54.9052C468.196 54.9052 466.604 56.4771 466.604 58.4059C466.604 60.3337 468.196 61.9056 470.146 61.9056Z" fill="white"/>
<path fill-rule="evenodd" clip-rule="evenodd" d="M620.31 156.907C622.26 156.907 623.852 155.335 623.852 153.407C623.852 151.479 622.26 149.907 620.31 149.907C618.359 149.907 616.767 151.479 616.767 153.407C616.767 155.335 618.359 156.907 620.31 156.907Z" fill="white"/>
<path fill-rule="evenodd" clip-rule="evenodd" d="M591.627 255.242C593.579 255.242 595.171 253.67 595.171 251.743C595.171 249.815 593.579 248.242 591.627 248.242C589.676 248.242 588.084 249.815 588.084 251.743C588.084 253.67 589.676 255.242 591.627 255.242Z" fill="white"/>
<path fill-rule="evenodd" clip-rule="evenodd" d="M186.236 393.068H459.924V237.673L323.079 158.577L186.236 237.673V393.068Z" fill="#86B21B"/>
<path fill-rule="evenodd" clip-rule="evenodd" d="M233.23 350.024H412.93C417.509 350.024 421.256 346.324 421.256 341.802V186.272L372.116 135.126H233.23C228.652 135.126 224.906 138.824 224.906 143.347V341.802C224.906 346.324 228.652 350.024 233.23 350.024Z" fill="white"/>
<path fill-rule="evenodd" clip-rule="evenodd" d="M233.23 354.634H412.93C417.509 354.634 421.256 350.934 421.256 346.411V259.264L348.565 309.982L348.567 309.983L323.08 327.768L297.593 309.982L224.906 259.264V346.411C224.906 350.934 228.652 354.634 233.23 354.634Z" fill="#E5E5E6"/>
<path fill-rule="evenodd" clip-rule="evenodd" d="M421.256 194.189V186.271L379.919 143.249V185.965C379.919 190.489 383.667 194.189 388.245 194.189H421.256Z" fill="#F0F1F1"/>
<path fill-rule="evenodd" clip-rule="evenodd" d="M372.116 135.127V178.048C372.116 182.572 375.863 186.271 380.442 186.271H421.257L372.116 135.127Z" fill="#A3C1D5"/>
<path fill-rule="evenodd" clip-rule="evenodd" d="M186.237 237.673L297.592 315.371L186.237 393.068V237.673Z" fill="#C0D468"/>
<path fill-rule="evenodd" clip-rule="evenodd" d="M459.923 237.673L348.566 315.371L459.923 393.068V237.673Z" fill="#C0D468"/>
<path fill-rule="evenodd" clip-rule="evenodd" d="M459.924 393.068L348.569 315.372L323.08 333.157L297.593 315.37L186.236 393.068H459.924Z" fill="#86B21B"/>
<path fill-rule="evenodd" clip-rule="evenodd" d="M239.204 202.67H406.957C407.843 202.67 408.563 203.383 408.563 204.255C408.563 205.129 407.843 205.842 406.957 205.842H239.204C238.317 205.842 237.596 205.129 237.596 204.255C237.596 203.383 238.317 202.67 239.204 202.67Z" fill="#DBDCDC"/>
<path fill-rule="evenodd" clip-rule="evenodd" d="M239.204 216.21H406.957C407.843 216.21 408.563 216.923 408.563 217.796C408.563 218.671 407.843 219.384 406.957 219.384H239.204C238.317 219.384 237.596 218.671 237.596 217.796C237.596 216.923 238.317 216.21 239.204 216.21Z" fill="#DBDCDC"/>
<path fill-rule="evenodd" clip-rule="evenodd" d="M239.204 229.75H406.957C407.843 229.75 408.563 230.463 408.563 231.336C408.563 232.21 407.843 232.925 406.957 232.925H239.204C238.317 232.925 237.596 232.21 237.596 231.336C237.596 230.463 238.317 229.75 239.204 229.75Z" fill="#DBDCDC"/>
<path fill-rule="evenodd" clip-rule="evenodd" d="M239.204 243.291H406.957C407.843 243.291 408.563 244.003 408.563 244.876C408.563 245.749 407.843 246.463 406.957 246.463H239.204C238.317 246.463 237.596 245.749 237.596 244.876C237.596 244.003 238.317 243.291 239.204 243.291Z" fill="#DBDCDC"/>
<path fill-rule="evenodd" clip-rule="evenodd" d="M239.204 256.832H406.957C407.843 256.832 408.563 257.543 408.563 258.418C408.563 259.292 407.843 260.004 406.957 260.004H239.204C238.317 260.004 237.596 259.292 237.596 258.418C237.596 257.543 238.317 256.832 239.204 256.832Z" fill="#DBDCDC"/>
<path fill-rule="evenodd" clip-rule="evenodd" d="M241.761 179.907H326.495C327.378 179.907 328.103 180.62 328.103 181.493V181.495C328.103 182.367 327.378 183.08 326.495 183.08H241.761C240.878 183.08 240.155 182.367 240.155 181.495V181.493C240.155 180.62 240.878 179.907 241.761 179.907Z" fill="#DBDCDC"/>
<path fill-rule="evenodd" clip-rule="evenodd" d="M347.037 179.907H335.485C334.601 179.907 333.878 180.62 333.878 181.493V181.495C333.878 182.367 334.601 183.08 335.485 183.08H347.037C347.918 183.08 348.642 182.367 348.642 181.495V181.493C348.642 180.62 347.918 179.907 347.037 179.907Z" fill="#DBDCDC"/>
<path fill-rule="evenodd" clip-rule="evenodd" d="M241.761 169.074H337.884C338.766 169.074 339.491 169.787 339.491 170.66C339.491 171.533 338.766 172.246 337.884 172.246H241.761C240.878 172.246 240.155 171.533 240.155 170.66C240.155 169.787 240.878 169.074 241.761 169.074Z" fill="#DBDCDC"/>
<path fill-rule="evenodd" clip-rule="evenodd" d="M242.74 150.555H259.576C260.996 150.555 262.16 151.703 262.16 153.107C262.16 154.511 260.996 155.659 259.576 155.659H242.74C241.317 155.659 240.155 154.511 240.155 153.107C240.155 151.703 241.317 150.555 242.74 150.555Z" fill="#DBDCDC"/>
<path fill-rule="evenodd" clip-rule="evenodd" d="M269.439 150.555H310.756C312.177 150.555 313.336 151.703 313.336 153.107C313.336 154.511 312.177 155.659 310.756 155.659H269.439C268.019 155.659 266.856 154.511 266.856 153.107C266.856 151.703 268.019 150.555 269.439 150.555Z" fill="#DBDCDC"/>
<path fill-rule="evenodd" clip-rule="evenodd" d="M593.389 275.58H448.221C444.186 275.58 440.88 279.146 440.88 283.505V385.02C440.88 389.38 444.186 392.946 448.221 392.946H593.389C597.429 392.946 600.732 389.38 600.732 385.02V283.505C600.732 279.146 597.429 275.58 593.389 275.58Z" fill="#915E40"/>
<path fill-rule="evenodd" clip-rule="evenodd" d="M581.803 283.733C575.796 283.733 570.928 288.988 570.928 295.47C570.928 301.951 575.796 307.206 581.803 307.206C587.808 307.206 592.674 301.951 592.674 295.47C592.674 288.988 587.808 283.733 581.803 283.733Z" fill="white"/>
<path fill-rule="evenodd" clip-rule="evenodd" d="M563.87 287.467H531.954C530.79 287.467 529.837 288.495 529.837 289.754C529.837 291.011 530.79 292.04 531.954 292.04H563.87C565.034 292.04 565.987 291.011 565.987 289.754C565.987 288.495 565.034 287.467 563.87 287.467Z" fill="white"/>
<path fill-rule="evenodd" clip-rule="evenodd" d="M556.915 297.831H540.462C539.298 297.831 538.345 298.861 538.345 300.118C538.345 301.375 539.298 302.405 540.462 302.405H556.915C558.08 302.405 559.032 301.375 559.032 300.118C559.032 298.861 558.08 297.831 556.915 297.831Z" fill="white"/>
<path fill-rule="evenodd" clip-rule="evenodd" d="M563.657 297.831H563.87C565.033 297.831 565.987 298.861 565.987 300.118C565.987 301.375 565.033 302.405 563.87 302.405H563.657C562.492 302.405 561.54 301.375 561.54 300.118C561.54 298.861 562.492 297.831 563.657 297.831Z" fill="white"/>
<path fill-rule="evenodd" clip-rule="evenodd" d="M482.972 378.316H451.056C449.893 378.316 448.939 379.345 448.939 380.603C448.939 381.861 449.893 382.889 451.056 382.889H482.972C484.135 382.889 485.089 381.861 485.089 380.603C485.089 379.345 484.135 378.316 482.972 378.316Z" fill="white"/>
<path fill-rule="evenodd" clip-rule="evenodd" d="M588.658 313.003H452.957C450.746 313.003 448.938 314.954 448.938 317.341V367.949C448.938 370.335 450.746 372.286 452.957 372.286H588.658C590.867 372.286 592.674 370.335 592.674 367.949V317.341C592.674 314.954 590.867 313.003 588.658 313.003Z" fill="#BE865E"/>
<path fill-rule="evenodd" clip-rule="evenodd" d="M462.738 354.372L463.232 356.816C463.232 356.816 462.819 363.516 462.819 364.309C462.819 365.099 463.627 368.852 463.627 368.852C463.627 368.852 461.372 375.58 454.402 374.595C447.43 373.608 440.23 362.228 440.23 362.228C440.23 362.228 445.094 357.388 447.271 347.957C449.45 338.528 462.738 354.372 462.738 354.372Z" fill="#F0F1F1"/>
<path fill-rule="evenodd" clip-rule="evenodd" d="M535.608 237.784L529.753 229.75L483.835 247.761L480.79 250.768L483.315 257.311C483.315 257.311 528.076 254.093 535.608 237.784Z" fill="#233E29"/>
<path fill-rule="evenodd" clip-rule="evenodd" d="M568.728 244.131C568.728 244.131 577.499 241.67 577.499 249.585C577.499 260.931 568.257 275.823 548.699 275.823C534.595 275.823 499.136 276.961 485.993 276.961C485.993 276.961 483.269 276.959 481.986 280.76C480.705 284.56 464.418 364.279 464.418 364.279C464.418 364.279 466.019 368.27 463.295 368.035C461.926 367.915 459.243 365.482 455.827 364.133C454.436 363.584 448.248 362.29 444.102 361.638C442.098 361.32 440.132 362.062 440.25 361.373C440.277 361.219 439.828 360.846 440.041 359.916C440.11 359.622 440.876 358.449 440.947 358.097C444.008 342.896 459.644 266.179 460.667 263.001C461.789 259.518 465.477 256.193 474.932 254.451C484.389 252.71 516.288 246.693 522.539 244.793C528.79 242.893 529.753 233.076 529.753 229.75C529.753 226.427 546.292 221.964 568.728 244.131Z" fill="#233E29"/>
<path fill-rule="evenodd" clip-rule="evenodd" d="M466.715 392.856C466.715 392.856 403.105 393.405 401.15 392.856C399.194 392.308 398.343 391.259 398.343 388.906V383.86C398.343 382.749 398.599 381.335 400.232 380.21C401.189 379.551 402.621 379.174 404.755 378.522C410.525 376.756 418.299 375.998 422.626 375.073C426.954 374.15 434.727 363.554 435.769 362.883C436.812 362.211 439.858 362.211 442.983 362.211C446.109 362.211 451.158 362.378 452.681 365.91C454.203 369.441 460.672 369.934 463.127 368.847C463.127 368.847 465.503 368.684 466.065 370.282C466.625 371.879 466.314 382.978 466.473 384.154C466.634 385.332 466.113 385.878 466.113 385.878C466.113 385.878 467.194 386.678 467.394 387.054C467.596 387.434 467.675 388.485 467.675 389.578C467.675 390.672 467.817 392.772 466.715 392.856Z" fill="#70853B"/>
<path fill-rule="evenodd" clip-rule="evenodd" d="M400.43 380.362C401.383 379.745 402.762 379.132 404.755 378.521C410.525 376.755 418.299 375.998 422.627 375.074C423.56 374.874 424.65 374.227 425.8 373.326L434.455 372.99L434.734 375.678C434.734 375.678 437.341 376.143 436.339 377.867C435.338 379.59 427.283 381.944 420.152 381.944H402.759C401.247 381.944 400.525 381.372 400.43 380.362Z" fill="#70853B"/>
<path fill-rule="evenodd" clip-rule="evenodd" d="M466.715 392.856C466.715 392.856 463.328 392.897 456.275 392.945C450.34 391.382 445.115 389.637 445.115 389.637C445.115 389.637 455.053 376.018 454.492 374.757C453.93 373.495 446.877 367.357 446.877 367.357C446.877 367.357 447.903 365.518 449.345 363.02C450.804 363.554 452.048 364.442 452.681 365.91C454.203 369.441 460.672 369.934 463.127 368.847C463.127 368.847 465.503 368.684 466.065 370.282C466.625 371.879 466.314 382.978 466.473 384.154C466.634 385.332 466.113 385.878 466.113 385.878C466.113 385.878 467.194 386.678 467.394 387.054C467.596 387.434 467.675 388.485 467.675 389.578C467.675 390.672 467.817 392.772 466.715 392.856Z" fill="#70853B"/>
<path fill-rule="evenodd" clip-rule="evenodd" d="M421.747 375.251C422.054 375.193 422.347 375.134 422.627 375.073C426.953 374.149 434.727 363.555 435.769 362.882C436.812 362.211 439.858 362.211 442.983 362.211C445.325 362.211 448.749 362.306 450.957 363.839L450.961 363.842C451.346 364.129 452.875 365.57 448.881 368.114C444.393 370.973 438.301 374.672 435.977 375.429C433.653 376.185 428.193 375.494 421.747 375.251Z" fill="#325C3C"/>
<path fill-rule="evenodd" clip-rule="evenodd" d="M401.09 385.874C402.896 386.393 459.661 385.934 466.081 385.878C466.081 385.878 467.141 386.677 467.337 387.055C467.534 387.434 467.612 388.486 467.612 389.578C467.612 390.672 467.748 392.773 466.672 392.856C466.672 392.856 403.003 393.406 401.09 392.856C399.178 392.307 398.344 391.259 398.344 388.906V383.86C398.344 383.572 398.36 383.281 398.414 382.989C398.651 384.61 399.494 385.416 401.09 385.874Z" fill="#AFB5BA"/>
<path fill-rule="evenodd" clip-rule="evenodd" d="M401.09 385.874C402.704 386.337 448.135 386.019 462.415 385.907C462.412 386.992 462.31 388.291 461.47 388.357C461.47 388.357 410.332 388.799 398.344 388.493V383.86C398.344 383.572 398.36 383.281 398.414 382.989C398.651 384.61 399.494 385.416 401.09 385.874Z" fill="#F2F9FC"/>
<path fill-rule="evenodd" clip-rule="evenodd" d="M442.896 367.339L440.907 365.71L435.357 366.747L437.347 368.376L442.896 367.339ZM438.471 370.877L436.728 369.449L431.598 370.407L433.102 371.881L438.471 370.877ZM433.364 373.853L432.451 372.959L429.888 373.437L433.364 373.853ZM438.085 363.402C437.914 363.261 437.963 362.948 438.2 362.705C438.436 362.463 438.768 362.38 438.94 362.522L441.524 364.637L447.906 363.445C448.189 363.392 448.37 363.573 448.306 363.85C448.242 364.124 447.959 364.393 447.675 364.445L442.476 365.417L444.344 366.946C444.517 367.087 444.465 367.399 444.231 367.642C444.172 367.703 444.109 367.753 444.042 367.792C443.922 367.985 443.71 368.145 443.496 368.184L438.3 369.156L440.169 370.684C440.34 370.826 440.291 371.138 440.052 371.38C439.902 371.539 439.707 371.63 439.543 371.633L433.924 372.683L435.423 374.151L435.43 374.158L435.433 374.162L435.438 374.164L435.44 374.167L435.445 374.172L435.447 374.175L435.45 374.179L435.454 374.184L435.456 374.187L435.459 374.192L435.462 374.194L435.465 374.198L435.467 374.202L435.472 374.207V374.209L435.476 374.216L435.479 374.219L435.482 374.225V374.228L435.488 374.234V374.236L435.491 374.244L435.493 374.245L435.495 374.253L435.499 374.264L435.502 374.273L435.505 374.283L435.509 374.293V374.303L435.511 374.304L435.512 374.314L435.514 374.324L435.516 374.335L435.517 374.344L435.519 374.356V374.39L435.517 374.412L435.516 374.424V374.436L435.514 374.447C435.509 374.472 435.505 374.494 435.497 374.519V374.522L435.489 374.544V374.547L435.486 374.556V374.56L435.481 374.568C435.472 374.59 435.462 374.615 435.45 374.638L435.447 374.643L435.443 374.651L435.442 374.653L435.436 374.663L435.435 374.667L435.407 374.715H435.403L435.397 374.726L435.38 374.75H435.378L435.371 374.761V374.763L435.361 374.772V374.774L435.352 374.786L435.334 374.807L435.331 374.811L435.325 374.818L435.321 374.82L435.313 374.829L435.311 374.831L435.302 374.841L435.299 374.843L435.29 374.852L435.288 374.854L435.281 374.861L435.278 374.865L435.272 374.872L435.265 374.877L435.26 374.882L435.255 374.887L435.248 374.892L435.242 374.897L435.239 374.901L435.23 374.908L435.227 374.911L435.218 374.918L435.215 374.92L435.206 374.928L435.194 374.935L435.193 374.936L435.182 374.945L435.179 374.947L435.169 374.954L435.167 374.955L435.158 374.964H435.156L435.145 374.97L435.143 374.971L435.133 374.979H435.131L435.12 374.986V374.988L435.106 374.994L435.093 375.001L435.084 375.009L435.071 375.014L435.057 375.02V375.022L435.043 375.027L435.031 375.034L435.02 375.039H435.018L435.006 375.045L434.995 375.05H434.993L434.981 375.055H434.979L434.967 375.059L434.956 375.062L434.942 375.068L434.928 375.071L434.917 375.073L434.893 375.08L434.879 375.084L434.866 375.085L434.854 375.087H434.852L434.842 375.089H434.84L434.83 375.091L434.817 375.092H434.806H434.803H434.794L434.79 375.094L434.782 375.092L434.778 375.094H434.771L434.767 375.092H434.759H434.755H434.748H434.741L434.737 375.091H434.731H434.724L434.715 375.089L426.343 374.088H426.331C426.291 374.084 426.256 374.078 426.224 374.065V374.063L426.216 374.059H426.215L426.186 374.047L426.18 374.043H426.176L426.161 374.031L426.155 374.025L426.153 374.024L426.146 374.02C426.134 374.009 426.122 373.998 426.11 373.987C426.053 373.918 426.03 373.819 426.051 373.704V373.7L426.054 373.676C426.074 373.588 426.116 373.503 426.173 373.426L426.18 373.414L426.183 373.412L426.21 373.378L426.216 373.368L426.22 373.366L426.256 373.324L426.259 373.323C426.275 373.307 426.291 373.289 426.309 373.273L426.311 373.271C426.413 373.182 426.535 373.114 426.657 373.084H426.66L426.687 373.079L431.628 372.155L430 370.562C429.84 370.407 429.912 370.092 430.157 369.858C430.306 369.716 430.484 369.636 430.636 369.63L435.776 368.669L433.911 367.141C433.735 366.999 433.788 366.687 434.022 366.445C434.082 366.384 434.144 366.334 434.211 366.295C434.333 366.101 434.543 365.942 434.757 365.902L439.954 364.93L438.085 363.402Z" fill="white"/>
<path fill-rule="evenodd" clip-rule="evenodd" d="M477.248 328.087C477.407 327.612 478.147 323.44 478.147 323.44C478.147 323.44 477.061 319.699 476.994 317.756C476.927 315.817 475.885 312.096 475.885 312.096L467.952 311.701L460.909 318.221C460.909 318.221 460.898 322.072 460.257 323.814C459.614 325.555 472.132 328.484 472.132 328.484L477.248 328.087Z" fill="#F0F1F1"/>
<path fill-rule="evenodd" clip-rule="evenodd" d="M507.792 231.652C487.922 232.497 450.918 216.887 452.974 250.23C454.294 271.611 458.268 307.326 459.381 317.887C459.585 319.835 458.816 320.965 458.816 320.965C458.816 320.965 459.139 322.114 460.341 322.034C460.341 322.034 470.927 320.768 477.822 323.222C477.822 323.222 479.893 323.531 480.134 322.104C480.168 321.906 479.425 319.934 479.588 317.546C480.599 302.755 483.701 253.756 483.701 253.756C502.612 250.181 529.752 251.943 529.752 229.75L507.792 231.652Z" fill="#2F5459"/>
<path fill-rule="evenodd" clip-rule="evenodd" d="M441.918 357.986C441.918 357.986 456.247 356.319 462.294 355.616C468.344 354.913 470.377 353.002 473.673 349.509C476.968 346.017 481.018 341.399 481.71 340.442C482.402 339.486 482.296 337.585 482.171 336.524C482.042 335.462 480.952 334.433 480.952 334.433C480.952 334.433 480.269 328.693 480.059 326.924C479.847 325.155 478.866 323.714 478.147 323.439C478.147 323.439 476.09 324.795 472.476 324.258C468.861 323.722 469.234 321.446 465.813 321.843C462.389 322.242 462.31 322.252 459.842 322.538C457.375 322.825 455.244 324.588 454.661 327.127C454.075 329.666 454.056 332.22 451.916 335.259C449.777 338.298 441.824 348.072 440.85 349.379C439.877 350.689 439.084 351.818 439.262 353.312C439.439 354.806 439.492 355.238 439.596 356.104C439.697 356.968 440.421 358.157 441.918 357.986Z" fill="#70853B"/>
<path fill-rule="evenodd" clip-rule="evenodd" d="M441.918 357.986C441.918 357.986 456.247 356.319 462.294 355.616C464.038 355.413 465.447 355.109 466.65 354.697C466.175 351.876 465.595 348.507 465.595 348.507C465.595 348.507 465.463 347.39 465.253 345.62C465.041 343.851 464.824 342.744 457.897 343.551L448.991 344.608C448.991 344.608 447.748 344.753 446.314 344.919C444.904 345.083 443.743 345.754 443.191 346.421L443.164 346.452C442.013 347.896 441.134 348.997 440.85 349.379C439.877 350.689 439.084 351.818 439.262 353.312C439.439 354.806 439.492 355.238 439.596 356.104C439.697 356.968 440.421 358.157 441.918 357.986Z" fill="#70853B"/>
<path fill-rule="evenodd" clip-rule="evenodd" d="M476.755 346.164C479.11 343.559 481.226 341.112 481.71 340.442C482.402 339.486 482.296 337.585 482.171 336.523C482.042 335.462 480.952 334.434 480.952 334.434C480.952 334.434 480.268 328.693 480.058 326.923C479.848 325.155 478.867 323.713 478.147 323.439C478.147 323.439 476.089 324.795 472.476 324.258C469.335 323.792 469.203 322.014 466.982 321.816L465.181 326.498C465.181 326.498 473.073 328.729 473.83 328.999C474.591 329.269 475.303 330.182 475.036 333.004C474.766 335.824 473.926 346.365 473.926 346.365C473.926 346.365 475.063 346.291 476.755 346.164Z" fill="#70853B"/>
<path fill-rule="evenodd" clip-rule="evenodd" d="M469.107 322.727L469.026 322.666L469.021 322.663L469.017 322.661L469.016 322.659C468.248 322.093 467.484 321.65 465.813 321.844C462.389 322.242 462.31 322.253 459.842 322.539C457.375 322.825 455.244 324.588 454.661 327.126C454.483 327.896 454.358 328.666 454.21 329.453C454.21 329.453 453.992 333.604 453.274 334.683C452.555 335.763 449.192 341.535 448.088 342.939C446.983 344.342 448.992 344.608 448.992 344.608C448.992 344.608 452.336 344.219 456.236 343.765C460.137 343.311 461.301 342.936 462.444 341.688C463.588 340.44 466.868 335.473 467.932 333.915C469 332.356 469.293 329.413 469.916 326.511C470.444 324.042 469.424 322.987 469.107 322.727Z" fill="#325C3C"/>
<path fill-rule="evenodd" clip-rule="evenodd" d="M472.921 343.219C469.625 346.711 467.594 348.622 461.545 349.324C455.497 350.029 441.17 351.696 441.17 351.696C440.509 351.771 440 351.583 439.628 351.273C439.328 351.906 439.173 352.564 439.262 353.312C439.44 354.806 439.492 355.238 439.596 356.104C439.697 356.968 440.422 358.156 441.918 357.985C441.918 357.985 456.247 356.319 462.294 355.615C468.344 354.912 470.377 353.002 473.673 349.509C476.968 346.017 481.018 341.399 481.71 340.443C482.402 339.485 482.296 337.585 482.171 336.523C482.043 335.462 480.952 334.434 480.952 334.434C480.952 334.434 480.942 334.35 480.926 334.201C480.142 335.254 476.167 339.782 472.921 343.219Z" fill="#AFB5BA"/>
<path fill-rule="evenodd" clip-rule="evenodd" d="M472.921 343.219C469.625 346.711 467.594 348.622 461.545 349.324C455.497 350.029 441.17 351.696 441.17 351.696C440.509 351.771 440 351.583 439.628 351.273C439.328 351.906 439.173 352.564 439.262 353.312L439.434 354.758C466.785 351.395 467.771 351.824 472.397 346.946C474.49 344.737 477.118 341.877 479.311 339.148C480.476 337.698 479.934 335.448 478.165 337.454C476.612 339.219 474.661 341.376 472.921 343.219Z" fill="#F2F9FC"/>
<path fill-rule="evenodd" clip-rule="evenodd" d="M465.589 331.231L461.941 330.06L455.977 332.582L459.623 333.751L465.589 331.231ZM462.877 336.052L459.68 335.026L454.164 337.358L457.103 338.493L462.877 336.052ZM458.911 340.47L457.125 339.782L454.372 340.945L458.911 340.47ZM456.773 328.402C456.455 328.299 456.282 327.962 456.384 327.647C456.487 327.335 456.83 327.162 457.146 327.265L461.885 328.786L468.742 325.887C469.049 325.757 469.404 325.898 469.535 326.201C469.665 326.504 469.524 326.855 469.217 326.984L463.63 329.346L467.051 330.444C467.368 330.547 467.542 330.884 467.441 331.198C467.414 331.274 467.374 331.343 467.324 331.402C467.324 331.632 467.187 331.854 466.957 331.949L461.371 334.311L464.791 335.412C465.11 335.512 465.282 335.849 465.18 336.163C465.115 336.367 464.946 336.512 464.749 336.559L458.708 339.111L461.637 340.243L461.652 340.247L461.657 340.248L461.667 340.252L461.672 340.255L461.68 340.259L461.687 340.262L461.694 340.264L461.701 340.269L461.707 340.271L461.713 340.276L461.719 340.277L461.726 340.282L461.731 340.284L461.74 340.289L461.745 340.291L461.753 340.296L461.756 340.299L461.766 340.305L461.77 340.308L461.779 340.313L461.781 340.314L461.793 340.322L461.802 340.33L461.805 340.332L461.816 340.34L461.826 340.349L461.828 340.35L461.838 340.358L461.848 340.367L461.858 340.378L461.868 340.387L461.878 340.399L461.89 340.408L461.898 340.419L461.908 340.431L461.934 340.465L461.951 340.489L461.958 340.503V340.501L461.963 340.515H461.965L461.971 340.527H461.973C461.985 340.552 461.997 340.579 462.006 340.606L462.008 340.608L462.017 340.633V340.636L462.02 340.648L462.022 340.651L462.023 340.661C462.029 340.687 462.036 340.713 462.038 340.74L462.04 340.745V340.755V340.761V340.771V340.774L462.041 340.83L462.04 340.834V340.847L462.036 340.875V340.877V340.891L462.035 340.892L462.033 340.905V340.907L462.029 340.92L462.023 340.947V340.95L462.02 340.962V340.966L462.017 340.977V340.979L462.013 340.989L462.01 340.993L462.006 341.003L462.005 341.008L462.003 341.017L462.001 341.022L461.997 341.03L461.994 341.037L461.99 341.044L461.987 341.05L461.985 341.056L461.982 341.064L461.98 341.069L461.973 341.078V341.082L461.966 341.091L461.965 341.095L461.96 341.103L461.953 341.117L461.951 341.12L461.944 341.13L461.943 341.132L461.936 341.143L461.934 341.144L461.927 341.154L461.918 341.166L461.909 341.177L461.908 341.178L461.899 341.188L461.891 341.2L461.881 341.212L461.872 341.221L461.862 341.23L461.86 341.232L461.85 341.24L461.848 341.242L461.838 341.252L461.829 341.259V341.261L461.816 341.269L461.805 341.278L461.794 341.288H461.793L461.782 341.294L461.781 341.296L461.77 341.303L461.758 341.31L461.756 341.312L461.745 341.319L461.733 341.327H461.731L461.719 341.333L461.694 341.346L461.68 341.351V341.353L461.667 341.358H461.666L461.654 341.362H461.651L461.639 341.367H461.637L461.626 341.372H461.625L461.611 341.376L461.608 341.377L461.597 341.38H461.594L461.586 341.383L461.58 341.385L461.57 341.387L461.565 341.388L461.555 341.39H461.55L461.542 341.394H461.535L461.526 341.395L461.519 341.396H461.512L461.505 341.398H461.499L461.482 341.399L450.551 342.545L450.535 342.548C450.486 342.553 450.437 342.555 450.389 342.551H450.387L450.373 342.549L450.329 342.543L450.317 342.541L450.314 342.54L450.285 342.533L450.275 342.529L450.272 342.528L450.262 342.524L450.258 342.522C450.235 342.516 450.214 342.509 450.192 342.499L450.189 342.497C450.068 342.442 449.967 342.347 449.904 342.222L449.903 342.219L449.889 342.191C449.849 342.096 449.833 341.997 449.843 341.901L449.845 341.886H449.847L449.854 341.843V341.829L449.855 341.827L449.87 341.775V341.773C449.877 341.749 449.886 341.729 449.896 341.707L449.898 341.706C449.953 341.585 450.051 341.485 450.177 341.422L450.18 341.421L450.207 341.408L455.52 339.162L452.34 337.935C452.031 337.815 451.876 337.469 451.996 337.164C452.071 336.977 452.229 336.849 452.411 336.801L457.937 334.466L454.513 333.367C454.197 333.265 454.022 332.928 454.126 332.614C454.15 332.537 454.19 332.468 454.241 332.411C454.243 332.178 454.379 331.958 454.609 331.862L460.195 329.5L456.773 328.402Z" fill="white"/>
<path fill-rule="evenodd" clip-rule="evenodd" d="M584.191 152.013C584.978 166.733 585.208 184.468 585.208 184.468C585.208 184.468 579.338 211.66 579.338 224.643C579.338 232.545 583.197 241.097 581.875 246.652C577.741 264.041 562.051 231.652 528.465 231.652H507.792C507.792 231.652 504.744 229.446 504.503 225.566C504.293 222.174 509.602 204.572 511.044 197.461C509.715 199.381 508.818 200.565 508.818 200.565C508.818 200.565 498.066 202.414 497.645 190.956C497.223 179.497 506.714 143.246 510.195 138.975C516.701 130.987 522.626 126.931 533.018 124.594C533.018 124.594 546.936 121.56 560.836 123.253C561.301 123.362 574.886 125.141 584.221 133.872C584.67 137.765 583.938 146.244 584.221 152.001L584.191 152.013Z" fill="#70853B"/>
<path fill-rule="evenodd" clip-rule="evenodd" d="M585.164 181.761C585.194 183.473 585.208 184.468 585.208 184.468C585.208 184.468 579.338 211.661 579.338 224.643C579.338 232.545 583.197 241.097 581.876 246.652C578.445 261.084 567.054 241.23 544.078 234.059C549.245 228.924 559.77 217.59 565.359 205.445C572.952 188.945 572.444 169.443 571.687 151.694C574.998 165.148 579.961 174.583 585.164 181.761Z" fill="#86B21B"/>
<path fill-rule="evenodd" clip-rule="evenodd" d="M517.329 171.255C519.86 148.504 517.583 142.254 517.583 142.254C517.583 142.254 512.214 175.886 507.406 187.137C502.598 198.389 500.626 194.506 502.398 194.506C504.171 194.506 517.838 197.255 517.838 194.255C517.838 191.255 517.329 171.255 517.329 171.255Z" fill="#96BB55"/>
<path d="M517.329 171.255C519.86 148.504 517.583 142.254 517.583 142.254C517.583 142.254 512.214 175.886 507.406 187.137C502.598 198.389 500.626 194.506 502.398 194.506C504.171 194.506 517.838 197.255 517.838 194.255C517.838 191.255 517.329 171.255 517.329 171.255Z" stroke="#86B21B" stroke-width="0.288" stroke-miterlimit="22.926"/>
<path fill-rule="evenodd" clip-rule="evenodd" d="M518.091 160.253C523.658 165.379 558.077 166.754 568.454 165.502L578.831 164.253L580.096 187.254C580.217 189.453 556.772 190.467 537.639 188.279C525.498 186.889 514.261 182.942 514.546 181.254L518.091 160.253Z" fill="white"/>
<path fill-rule="evenodd" clip-rule="evenodd" d="M572.083 165.067L575.79 164.621C576.883 167.365 578.049 169.891 579.27 172.227L580.096 187.254C580.145 188.152 576.262 188.853 570.348 189.218C571.798 181.325 572.154 173.141 572.083 165.067Z" fill="#DBDCDC"/>
<path fill-rule="evenodd" clip-rule="evenodd" d="M552.821 219.377C552.064 220.382 549.684 219.165 548.97 219.884C542.354 226.522 537.25 222.138 529.789 228.69C526.302 231.752 548.259 230.515 550.541 230.817L564.209 221.942L552.821 219.377Z" fill="#F4AD85"/>
<path fill-rule="evenodd" clip-rule="evenodd" d="M548.698 220.152C547.545 221.263 546.437 222.044 545.355 222.613C548.642 225.011 549.139 227.422 547.192 228.192C544.978 229.066 539.664 229.754 533.526 229.066C532.063 228.902 531.502 229.449 531.664 230.349C536.762 231.195 548.878 230.597 550.541 230.816L559.473 225.016C556.514 222.58 552.464 220.249 548.698 220.152Z" fill="#EA745D"/>
<path fill-rule="evenodd" clip-rule="evenodd" d="M563.02 123.616C564.834 124.043 562.947 129.787 561.02 133.429C552.613 149.293 534.531 144.308 534.531 124.804V124.246C536.513 123.753 536.846 123.583 538.301 123.269C547.383 122.624 554.159 121.53 563.02 123.616Z" fill="white"/>
<path fill-rule="evenodd" clip-rule="evenodd" d="M549.281 98.4278C543.079 98.4278 538.004 103.439 538.004 109.568V124.303C538.004 130.429 540.928 138.818 547.129 138.818C553.333 138.818 560.558 130.429 560.558 124.303V109.568C560.558 103.439 555.483 98.4278 549.281 98.4278Z" fill="#EB6B5D"/>
<path fill-rule="evenodd" clip-rule="evenodd" d="M539.291 248.88C539.291 248.88 496.433 258.306 494.493 258.945C492.552 259.584 490.774 262.3 491.26 267.891C491.745 273.482 494.494 268.961 506.462 269.76C518.429 270.559 544.467 270.033 551.42 266.861C558.373 263.689 561.124 262.46 558.537 254.631C555.95 246.803 545.598 247.442 539.291 248.88Z" fill="#2F5459"/>
<path fill-rule="evenodd" clip-rule="evenodd" d="M593.492 165.799C594.005 174.144 594.582 182.974 593.76 190.282C593.106 196.101 591.237 201.047 590.084 203.354C588.854 205.816 565.666 224.76 557.533 231.105C556.556 231.866 555.302 233.382 555.317 232.796C555.506 225.325 552.845 226.174 546.83 221.721C553.859 215.241 571.239 199.616 573.74 191.792C573.74 191.792 574.796 189.501 574.163 182.418C573.532 175.335 572.428 151.127 572.517 147.413C572.605 143.7 573.23 136.733 575.944 133.377C579.048 131.896 581.797 131.906 583.949 133.674C590.743 139.266 593.011 157.951 593.492 165.799Z" fill="#70853B"/>
<path fill-rule="evenodd" clip-rule="evenodd" d="M548.846 223.115C548.22 222.71 547.55 222.254 546.829 221.721C553.859 215.241 571.239 199.616 573.739 191.792C573.739 191.792 574.795 189.501 574.164 182.418C573.532 175.335 572.428 151.127 572.517 147.413C572.543 146.284 572.619 144.857 572.791 143.32C573.73 142.304 574.274 141.753 574.274 141.753C574.274 141.753 580.601 179.753 580.347 186.254C580.105 192.48 570.568 205.136 548.846 223.115Z" fill="#86B21B"/>
<path fill-rule="evenodd" clip-rule="evenodd" d="M471.682 235.67H549.779C551.239 235.67 552.435 234.49 552.435 233.046V233.044C552.435 231.602 551.239 230.424 549.779 230.424H471.682C470.223 230.424 469.026 231.604 469.026 233.044V233.046C469.026 234.488 470.221 235.67 471.682 235.67Z" fill="#86B21B"/>
<path fill-rule="evenodd" clip-rule="evenodd" d="M471.682 235.67H549.779C550.724 235.67 551.56 235.173 552.03 234.434C551.56 233.691 550.724 233.196 549.779 233.196H471.682C470.736 233.196 469.9 233.691 469.432 234.434C469.9 235.173 470.736 235.67 471.682 235.67Z" fill="#86B21B"/>
<path fill-rule="evenodd" clip-rule="evenodd" d="M469.616 230.423H536.495C538.406 230.423 539.777 228.878 539.544 226.991L534.212 184.197C533.977 182.311 532.221 180.767 530.31 180.767H463.431C461.519 180.767 460.149 182.311 460.384 184.197L465.714 226.991C465.951 228.878 467.707 230.423 469.616 230.423Z" fill="#758C3A"/>
<path fill-rule="evenodd" clip-rule="evenodd" d="M469.616 230.423H534.524C536.434 230.423 537.805 228.878 537.57 226.991L532.238 184.197C532.004 182.311 530.247 180.767 528.338 180.767H463.431C461.519 180.767 460.149 182.311 460.384 184.197L465.714 226.991C465.951 228.878 467.707 230.423 469.616 230.423Z" fill="#86B21B"/>
<path fill-rule="evenodd" clip-rule="evenodd" d="M523.739 180.766L466.231 228.453C465.961 228.009 465.779 227.512 465.714 226.991L464.886 220.336L512.607 180.766H523.739ZM473.154 230.423H479.831L532.55 186.707L532.238 184.197C532.145 183.45 531.812 182.753 531.325 182.188L473.154 230.423Z" fill="#BFD867"/>
<path fill-rule="evenodd" clip-rule="evenodd" d="M540.1 235.67H549.779C551.239 235.67 552.434 234.49 552.434 233.046V233.044C552.434 231.602 551.239 230.424 549.779 230.424H540.1C538.641 230.424 537.446 231.604 537.446 233.044V233.046C537.446 234.488 538.641 235.67 540.1 235.67Z" fill="#758C3A"/>
<path fill-rule="evenodd" clip-rule="evenodd" d="M470.354 231.734H539.932C540.663 231.734 541.261 231.144 541.261 230.423C541.261 229.701 540.663 229.111 539.932 229.111H470.354C469.623 229.111 469.026 229.701 469.026 230.423C469.026 231.144 469.623 231.734 470.354 231.734Z" fill="#758C3A"/>
<path fill-rule="evenodd" clip-rule="evenodd" d="M497.608 199C501.295 199 504.593 201.952 504.968 205.594C505.347 209.237 502.665 212.189 498.978 212.189C495.29 212.189 491.994 209.237 491.616 205.594C491.556 205.024 491.572 204.473 491.655 203.946C492.317 204.563 493.202 204.947 494.137 204.947C495.958 204.947 497.284 203.488 497.095 201.69C496.997 200.727 496.484 199.862 495.751 199.266C496.331 199.092 496.954 199 497.608 199Z" fill="#FFFDF8"/>
<path fill-rule="evenodd" clip-rule="evenodd" d="M571.466 92.2427C571.637 92.2651 571.804 92.2943 571.97 92.3283L571.975 92.3292C575.036 92.9631 577.36 95.6161 577.424 98.8368C577.496 102.583 574.481 105.676 570.691 105.746C566.899 105.818 563.768 102.838 563.695 99.0954C563.653 96.9197 564.654 94.9628 566.244 93.6912C566.07 95.6939 566.391 98.1729 568.978 98.4198L568.903 94.5108C568.872 92.9261 570.368 92.199 571.466 92.2427Z" fill="#E8685B"/>
<path fill-rule="evenodd" clip-rule="evenodd" d="M521.917 92.2427C521.749 92.2651 521.58 92.2943 521.414 92.3283L521.408 92.3292C518.348 92.9631 516.021 95.6161 515.958 98.8368C515.887 102.583 518.905 105.676 522.694 105.746C526.484 105.818 529.616 102.838 529.688 99.0954C529.729 96.9197 528.73 94.9628 527.14 93.6912C527.314 95.6939 526.991 98.1729 524.404 98.4198L524.48 94.5108C524.51 92.9261 523.017 92.199 521.917 92.2427Z" fill="#E8685B"/>
<path fill-rule="evenodd" clip-rule="evenodd" d="M546.691 58.3674C559.619 58.3674 570.197 68.8151 570.197 81.5853V102.703C570.197 115.474 559.619 125.922 546.691 125.922C533.767 125.922 523.186 115.474 523.186 102.703V81.5853C523.186 68.8151 533.767 58.3674 546.691 58.3674Z" fill="#F4AD85"/>
<path fill-rule="evenodd" clip-rule="evenodd" d="M546.691 58.3674C559.619 58.3674 570.197 68.8151 570.197 81.5853V102.703C570.197 115.474 559.619 125.922 546.691 125.922C564.726 123.953 565.351 107.969 565.351 99.0626C565.351 90.1558 557.6 87.1664 555.781 87.1664H546.991C537.296 94.5188 525.66 95.56 525.66 95.56L523.186 96.9744L523.952 91.0735L540.612 85.2415C540.612 85.2415 532.458 85.539 523.186 85.3757V81.5853C523.186 68.8151 533.767 58.3674 546.691 58.3674Z" fill="#EF8871"/>
<path fill-rule="evenodd" clip-rule="evenodd" d="M551.795 109.017C551.927 112.333 549.314 115.127 545.958 115.258C542.6 115.389 539.772 112.807 539.638 109.49H539.65C539.628 108.92 540.081 108.435 540.658 108.412L550.695 108.022C551.272 107.998 551.763 108.447 551.786 109.017H551.795Z" fill="white"/>
<path fill-rule="evenodd" clip-rule="evenodd" d="M549.718 113.78C548.708 114.652 547.401 115.201 545.956 115.259C544.776 115.303 543.663 115.014 542.709 114.477C543.126 113.227 544.454 112.25 546.094 112.126C547.662 112.008 549.065 112.698 549.718 113.78Z" fill="white"/>
<path fill-rule="evenodd" clip-rule="evenodd" d="M540.525 108.428L549.957 108.06C550.148 109.085 549.706 110.146 549.014 110.399C548.171 110.707 541.339 110.797 540.835 110.285C540.591 110.037 540.525 109.213 540.525 108.428Z" fill="white"/>
<path fill-rule="evenodd" clip-rule="evenodd" d="M533.364 103.854C535.072 103.82 536.482 105.162 536.514 106.848C536.548 108.533 535.19 109.928 533.483 109.958C531.777 109.991 530.365 108.65 530.333 106.963C530.301 105.278 531.662 103.884 533.364 103.854Z" fill="#E8685B"/>
<path fill-rule="evenodd" clip-rule="evenodd" d="M559.952 103.353C561.658 103.323 563.069 104.664 563.102 106.348C563.133 108.034 561.776 109.427 560.07 109.46C558.363 109.49 556.952 108.151 556.92 106.463C556.887 104.779 558.244 103.385 559.952 103.353Z" fill="#E8685B"/>
<path fill-rule="evenodd" clip-rule="evenodd" d="M525.66 92.5675V95.5597C525.66 97.0014 524.305 98.6094 523.186 98.6094V95.3391C523.186 95.3391 522.714 92.9262 519.699 92.9262C510.446 82.4201 511.666 65.7419 521.542 57.0946C531.418 48.4463 552.629 47.8932 556.334 49.1123C560.036 50.3323 563.85 56.5385 563.85 56.5385C563.85 56.5385 566.994 53.7679 569.911 55.2077C572.829 56.6503 580.505 72.6413 580.505 77.188C580.505 81.7328 573.687 92.9262 573.687 92.9262C570.671 92.9262 570.197 95.3391 570.197 95.3391V98.6094C569.078 98.6094 567.722 97.0014 567.722 95.5597V92.5675C558.435 88.4922 555.49 76.2693 555.49 76.2693C555.49 76.2693 540.817 94.7616 525.66 92.5675Z" fill="#16261A"/>
<path fill-rule="evenodd" clip-rule="evenodd" d="M513.433 74.6187C513.682 69.3389 515.474 64.1924 518.698 60.0967C526.618 65.392 543.248 72.1212 559.585 51.2511C560.631 52.231 561.576 53.3626 562.311 54.3279C556.422 65.2228 541.95 83.3593 513.433 74.6187Z" fill="#0F1630"/>
<path fill-rule="evenodd" clip-rule="evenodd" d="M525.66 92.5674C524.055 93.2508 524.779 103.047 522.965 103.047C522.453 100.466 522.74 92.9261 519.698 92.9261C516.038 88.7702 514.017 83.6489 513.523 78.4411C524.348 89.1804 550.085 79.5007 556.433 71.4892C556.433 71.4892 567.169 82.8177 580.476 77.1044C580.536 77.4407 580.568 77.7421 580.568 77.9997C580.568 82.5455 573.687 92.9261 573.687 92.9261C571.844 92.9261 571.452 99.4736 570.197 102.735C569.078 102.735 567.722 97.0024 567.722 95.5597V92.5674C558.435 88.4922 555.49 76.2693 555.49 76.2693C555.49 76.2693 540.817 94.7616 525.66 92.5674Z" fill="#233E29"/>
<path fill-rule="evenodd" clip-rule="evenodd" d="M531.689 93.7256C531.279 93.9298 530.776 93.7645 530.57 93.3582C530.363 92.9508 530.531 92.456 530.942 92.2538C533.153 91.1261 536.11 90.9958 538.281 92.283C538.673 92.5153 538.803 93.0237 538.568 93.4136C538.332 93.8005 537.817 93.9298 537.425 93.6965C535.666 92.6563 533.467 92.8876 531.689 93.7256Z" fill="#233E29"/>
<path fill-rule="evenodd" clip-rule="evenodd" d="M561.698 93.7275C559.915 92.8876 557.718 92.6562 555.961 93.6964C555.568 93.9297 555.052 93.8004 554.816 93.4135C554.581 93.0237 554.708 92.5152 555.105 92.2829C557.273 90.9958 560.232 91.126 562.441 92.2528C562.854 92.4559 563.02 92.9508 562.814 93.3581C562.608 93.7645 562.107 93.9297 561.698 93.7275Z" fill="#233E29"/>
<path fill-rule="evenodd" clip-rule="evenodd" d="M559.143 96.5044H559.145C560.258 96.5044 561.173 97.4066 561.173 98.508V101.123C561.173 102.226 560.258 103.127 559.145 103.127H559.143C558.027 103.127 557.113 102.226 557.113 101.123V98.508C557.113 97.4066 558.027 96.5044 559.143 96.5044Z" fill="#233E29"/>
<path fill-rule="evenodd" clip-rule="evenodd" d="M534.241 96.5044C533.123 96.5044 532.211 97.4066 532.211 98.508V101.123C532.211 102.226 533.123 103.127 534.241 103.127C535.358 103.127 536.272 102.226 536.272 101.123V98.508C536.272 97.4066 535.358 96.5044 534.241 96.5044Z" fill="#233E29"/>
<path fill-rule="evenodd" clip-rule="evenodd" d="M543.88 101.368C543.88 101.368 542.595 104.123 542.446 104.973C542.299 105.82 543.128 106.289 544.869 106.016C546.608 105.743 545.066 99.6872 543.88 101.368Z" fill="#F8CAB0"/>
<path fill-rule="evenodd" clip-rule="evenodd" d="M559.309 106.98C554.336 106.98 550.306 102.997 550.306 98.0856C550.306 93.1723 554.336 89.1894 559.309 89.1894C564.284 89.1894 568.315 93.1723 568.315 98.0856C568.315 102.997 564.284 106.98 559.309 106.98ZM534.166 106.98C529.194 106.98 525.163 102.997 525.163 98.0856C525.163 93.1723 529.194 89.1894 534.166 89.1894C539.141 89.1894 543.172 93.1723 543.172 98.0856C543.172 102.997 539.141 106.98 534.166 106.98ZM568.826 92.6289C568.075 91.7705 566.646 90.6613 565.791 90.0265C565.57 89.8524 565.347 89.6881 565.111 89.5316C565.103 89.5248 565.096 89.52 565.096 89.52V89.5219C563.441 88.4282 561.451 87.7905 559.309 87.7905C556.425 87.7905 553.816 88.9474 551.927 90.8178C551.014 91.6606 550.226 92.5832 549.413 93.4883C548.381 94.6364 547.77 94.0725 546.74 94.0725C545.706 94.0725 545.096 94.6364 544.065 93.4883C543.251 92.5832 542.464 91.6606 541.55 90.8178C539.662 88.9474 537.019 87.7905 534.136 87.7905C531.993 87.7905 529.877 88.4282 528.316 89.5219V89.52C528.316 89.52 528.342 89.5248 528.333 89.5316C528.098 89.6881 527.888 89.8524 527.669 90.0265C526.813 90.6613 525.347 91.7705 524.596 92.6289C524.227 93.0508 523.71 93.3425 523.187 93.5437V97.548C523.412 98.2042 523.675 99.3912 524.042 100.622C524.193 101.207 524.406 101.77 524.651 102.31C524.883 102.847 525.153 103.344 525.459 103.752L525.462 103.749C527.328 106.538 530.529 108.381 534.165 108.381C538.389 108.381 542.024 105.898 543.661 102.332C543.663 102.326 543.665 102.325 543.669 102.32C543.677 102.307 543.686 102.294 543.693 102.28C544.441 101.026 545.195 97.5917 545.534 97.0444C545.88 96.4932 546.74 96.4504 546.74 96.4504C546.74 96.4504 547.598 96.4932 547.941 97.0444C548.283 97.5917 549.036 101.026 549.784 102.28C549.791 102.294 549.8 102.307 549.809 102.32C549.81 102.325 549.812 102.326 549.815 102.332C551.454 105.898 555.088 108.381 559.309 108.381C562.946 108.381 566.147 106.538 568.013 103.749V103.752C568.32 103.344 568.584 102.847 568.813 102.31C569.06 101.77 569.262 101.207 569.413 100.622C569.752 99.4865 569.99 98.387 570.196 97.7084V93.532C569.688 93.3308 569.189 93.0421 568.826 92.6289Z" fill="#233E29"/>
</g>
</svg>
