<svg width="667" height="667" viewBox="0 0 667 667" fill="none" xmlns="http://www.w3.org/2000/svg">
<mask id="mask0_10_6742" style="mask-type:luminance" maskUnits="userSpaceOnUse" x="0" y="-1" width="667" height="668">
<path d="M0 -0.00012207H666.667V666.667H0V-0.00012207Z" fill="white"/>
</mask>
<g mask="url(#mask0_10_6742)">
<path fill-rule="evenodd" clip-rule="evenodd" d="M333.962 78.4543C332.42 78.4543 330.885 78.485 329.349 78.5143C467.637 80.9756 578.985 193.826 578.985 332.704C578.985 391.213 559.218 445.104 526 488.066H535.216C568.434 445.1 588.212 391.216 588.212 332.704C588.212 192.285 474.38 78.4543 333.962 78.4543Z" fill="#DFF0F4"/>
<path fill-rule="evenodd" clip-rule="evenodd" d="M333.962 72.9193C190.486 72.9193 74.177 189.229 74.177 332.703C74.177 390.965 93.369 444.737 125.758 488.066H133.062C101.018 444.873 82.057 391.391 82.057 333.475C82.057 190.001 198.366 73.69 341.841 73.69C349.093 73.69 356.27 74.002 363.37 74.586C353.714 73.4966 343.906 72.9193 333.962 72.9193Z" fill="#A4D8DB"/>
<path fill-rule="evenodd" clip-rule="evenodd" d="M333.962 572.333C465.944 572.333 573.592 464.687 573.592 332.703C573.592 200.721 465.944 93.0746 333.962 93.0746C201.978 93.0746 94.3318 200.721 94.3318 332.703C94.3318 464.687 201.978 572.333 333.962 572.333Z" fill="#DFF0F4"/>
<path fill-rule="evenodd" clip-rule="evenodd" d="M527.135 399.321L346.147 173.447C339.443 165.084 328.429 165.143 321.667 173.581L140.895 399.185C136.879 404.196 135.23 411.083 135.961 417.601H531.949C532.701 411.099 531.099 404.268 527.135 399.321Z" fill="#BEE2E4"/>
<path fill-rule="evenodd" clip-rule="evenodd" d="M355.608 279.923C354.27 279.923 352.988 280.164 351.803 280.604C351.264 280.015 350.492 279.643 349.635 279.643C349.232 279.643 348.851 279.724 348.503 279.87C348.31 277.347 346.203 275.36 343.634 275.36C342.516 275.36 341.486 275.735 340.666 276.366C340.139 275.642 339.286 275.171 338.32 275.171C338.16 275.171 338.003 275.184 337.847 275.21C338.172 274.448 338.352 273.611 338.352 272.73C338.352 269.248 335.531 266.427 332.051 266.427C331.402 266.427 330.776 266.524 330.187 266.706C329.731 265.731 328.74 265.058 327.594 265.058L327.51 265.06C327.524 264.832 327.531 264.604 327.531 264.372C327.531 258.116 322.459 253.044 316.203 253.044C309.947 253.044 304.875 258.116 304.875 264.372C304.875 264.462 304.878 264.548 304.879 264.634C304.331 264.495 303.758 264.422 303.168 264.422C301.998 264.422 300.892 264.714 299.924 265.226C298.274 262.974 295.608 261.51 292.602 261.51C287.588 261.51 283.524 265.572 283.524 270.584C283.524 271.57 283.684 272.518 283.974 273.407C283.884 273.4 283.791 273.398 283.699 273.398C281.231 273.398 279.231 275.398 279.231 277.867C279.231 278.158 279.258 278.44 279.312 278.715C279.28 278.714 279.248 278.712 279.219 278.712C277.824 278.712 276.688 279.82 276.642 281.202C276.254 281.13 275.856 281.09 275.447 281.09C273.835 281.09 272.328 281.651 271.244 282.678C268.34 285.423 271.508 286.138 274.563 286.138H278.546H281.672H345.747H350.747H358.966C362.147 286.138 366.695 286.658 363.535 283.328C361.546 281.231 358.73 279.923 355.608 279.923Z" fill="white"/>
<path fill-rule="evenodd" clip-rule="evenodd" d="M277.458 161.691V185.437C277.458 194.812 284.334 201.061 288.238 205.123C292.144 209.185 294.488 214.967 294.488 233.089C294.488 251.212 293.98 283.005 293.98 298.316C293.98 339.601 215.316 339.601 215.316 298.316C215.316 283.005 214.81 251.212 214.81 233.089C214.81 214.967 217.152 209.185 221.059 205.123C224.964 201.061 231.839 194.812 231.839 185.437V161.691C231.839 130.031 277.458 130.031 277.458 161.691Z" fill="#32573B"/>
<path fill-rule="evenodd" clip-rule="evenodd" d="M256.295 163.605C256.295 162.789 255.636 162.129 254.819 162.129C254.006 162.129 253.343 162.789 253.343 163.605V197.354L246.394 193.342C245.972 193.098 245.434 193.245 245.191 193.669C244.947 194.09 245.094 194.629 245.516 194.871L253.343 199.391V247.665L232.762 235.781C232.34 235.539 231.8 235.686 231.558 236.107C231.315 236.53 231.46 237.07 231.884 237.311L253.343 249.703V295.994L232.762 284.11C232.34 283.867 231.8 284.014 231.558 284.435C231.315 284.858 231.46 285.397 231.884 285.641L253.343 298.03V351.249C253.343 352.066 254.006 352.725 254.819 352.725C255.636 352.725 256.295 352.066 256.295 351.249V310.351L273.92 300.174C274.344 299.933 274.49 299.394 274.247 298.97C274.004 298.549 273.464 298.403 273.043 298.646L256.295 308.314V269.619L273.92 259.443C274.344 259.199 274.49 258.661 274.247 258.239C274.004 257.815 273.464 257.671 273.043 257.913L256.295 267.582V228.887L273.92 218.711C274.344 218.469 274.49 217.929 274.247 217.506C274.004 217.085 273.464 216.939 273.043 217.182L256.295 226.851V188.154L267.779 181.527C268.2 181.285 268.346 180.746 268.103 180.323C267.862 179.901 267.32 179.754 266.899 179.998L256.295 186.119V163.605Z" fill="#003B30"/>
<path fill-rule="evenodd" clip-rule="evenodd" d="M211.19 193.366V215.051C211.19 223.612 217.467 229.318 221.035 233.027C224.6 236.736 226.742 242.015 226.742 258.566C226.742 275.116 226.278 304.148 226.278 318.131C226.278 355.834 154.442 355.834 154.442 318.131C154.442 304.148 153.978 275.116 153.978 258.566C153.978 242.015 156.118 236.736 159.686 233.027C163.251 229.318 169.528 223.612 169.528 215.051V193.366C169.528 164.452 211.19 164.452 211.19 193.366Z" fill="#70853B"/>
<path fill-rule="evenodd" clip-rule="evenodd" d="M191.865 195.111C191.865 194.367 191.261 193.763 190.516 193.763C189.772 193.763 189.169 194.367 189.169 195.111V225.933L182.821 222.269C182.437 222.047 181.944 222.181 181.723 222.566C181.5 222.953 181.633 223.443 182.019 223.666L189.169 227.793V271.875L170.372 261.025C169.987 260.805 169.495 260.937 169.273 261.322C169.052 261.707 169.185 262.199 169.571 262.421L189.169 273.735V316.009L170.372 305.158C169.987 304.937 169.495 305.07 169.273 305.455C169.052 305.841 169.185 306.333 169.571 306.554L189.169 317.87V366.469C189.169 367.211 189.772 367.817 190.516 367.817C191.261 367.817 191.865 367.211 191.865 366.469V329.121L207.959 319.829C208.345 319.607 208.477 319.113 208.256 318.727C208.035 318.342 207.543 318.209 207.157 318.43L191.865 327.261V291.923L207.959 282.631C208.345 282.41 208.477 281.917 208.256 281.531C208.035 281.146 207.543 281.013 207.157 281.234L191.865 290.063V254.73L207.959 245.435C208.345 245.214 208.477 244.722 208.256 244.335C208.035 243.951 207.543 243.817 207.157 244.039L191.865 252.867V217.534L202.349 211.479C202.735 211.258 202.867 210.766 202.647 210.379C202.424 209.995 201.933 209.862 201.547 210.083L191.865 215.671V195.111Z" fill="#003B30"/>
<path fill-rule="evenodd" clip-rule="evenodd" d="M356.6 309.106C366.71 309.106 374.906 317.302 374.906 327.411C374.906 327.834 374.892 328.254 374.863 328.67C381.263 329.642 386.43 334.351 388.074 340.502C389.834 340.662 391.447 341.323 392.768 342.338C394.859 340.087 397.848 338.675 401.162 338.675C407.486 338.675 412.611 343.799 412.611 350.122C412.611 351.815 412.243 353.423 411.586 354.867H312.568C312.115 353.371 311.871 351.785 311.871 350.139C311.871 341.166 319.146 333.893 328.116 333.893C328.795 333.893 329.46 333.933 330.112 334.014C331.496 330.682 334.591 328.241 338.299 327.785C338.298 327.662 338.295 327.537 338.295 327.411C338.295 317.302 346.49 309.106 356.6 309.106Z" fill="#70853B"/>
<path fill-rule="evenodd" clip-rule="evenodd" d="M382.134 344.962C381.036 344.962 379.989 345.19 379.04 345.601C378.172 343.754 376.294 342.478 374.122 342.478C373.797 342.478 373.48 342.503 373.172 342.558C372.488 338.434 368.905 335.291 364.586 335.291C363.573 335.291 362.602 335.467 361.696 335.785C359.457 332.327 355.565 330.042 351.14 330.042C344.196 330.042 338.566 335.669 338.566 342.614C338.566 343.581 338.674 344.522 338.881 345.426C338.606 345.382 338.325 345.361 338.037 345.361C336.385 345.361 334.906 346.097 333.91 347.262C332.793 346.507 331.448 346.069 330 346.069C327.26 346.069 324.888 347.643 323.738 349.937C323.512 349.903 323.28 349.883 323.044 349.883C320.425 349.883 318.302 352.007 318.302 354.626C318.302 354.707 318.304 354.789 318.306 354.867H389.686C389.866 354.206 389.965 353.51 389.965 352.794C389.965 348.469 386.46 344.962 382.134 344.962Z" fill="#4B683B"/>
<path fill-rule="evenodd" clip-rule="evenodd" d="M310.636 349.75C311.949 349.75 313.022 348.677 313.022 347.365C313.022 346.051 311.949 344.978 310.636 344.978C309.32 344.978 308.248 346.051 308.248 347.365C308.248 348.677 309.32 349.75 310.636 349.75Z" fill="#4B683B"/>
<path fill-rule="evenodd" clip-rule="evenodd" d="M330.316 344.195C331.23 344.195 331.975 343.45 331.975 342.538C331.975 341.623 331.23 340.879 330.316 340.879C329.403 340.879 328.658 341.623 328.658 342.538C328.658 343.45 329.403 344.195 330.316 344.195Z" fill="#4B683B"/>
<path fill-rule="evenodd" clip-rule="evenodd" d="M352.761 321.167C354.074 321.167 355.147 320.097 355.147 318.782C355.147 317.469 354.074 316.395 352.761 316.395C351.449 316.395 350.375 317.469 350.375 318.782C350.375 320.097 351.449 321.167 352.761 321.167Z" fill="#4B683B"/>
<path fill-rule="evenodd" clip-rule="evenodd" d="M362.324 326.404C363.639 326.404 364.71 325.333 364.71 324.018C364.71 322.704 363.639 321.632 362.324 321.632C361.01 321.632 359.938 322.704 359.938 324.018C359.938 325.333 361.01 326.404 362.324 326.404Z" fill="#4B683B"/>
<path fill-rule="evenodd" clip-rule="evenodd" d="M398.272 348.24C399.359 348.24 400.248 347.35 400.248 346.262C400.248 345.173 399.359 344.285 398.272 344.285C397.184 344.285 396.295 345.173 396.295 346.262C396.295 347.35 397.184 348.24 398.272 348.24Z" fill="#4B683B"/>
<path fill-rule="evenodd" clip-rule="evenodd" d="M350.107 327.267C350.926 327.267 351.59 326.602 351.59 325.783C351.59 324.965 350.926 324.301 350.107 324.301C349.29 324.301 348.624 324.965 348.624 325.783C348.624 326.602 349.29 327.267 350.107 327.267Z" fill="#4B683B"/>
<path fill-rule="evenodd" clip-rule="evenodd" d="M355.285 325.625C355.694 325.625 356.029 325.292 356.029 324.882C356.029 324.474 355.694 324.14 355.285 324.14C354.876 324.14 354.542 324.474 354.542 324.882C354.542 325.292 354.876 325.625 355.285 325.625Z" fill="#4B683B"/>
<path fill-rule="evenodd" clip-rule="evenodd" d="M364.957 329.31C365.368 329.31 365.701 328.976 365.701 328.567C365.701 328.158 365.368 327.824 364.957 327.824C364.548 327.824 364.213 328.158 364.213 328.567C364.213 328.976 364.548 329.31 364.957 329.31Z" fill="#4B683B"/>
<path fill-rule="evenodd" clip-rule="evenodd" d="M381.723 341.745C382.131 341.745 382.464 341.411 382.464 341.001C382.464 340.593 382.131 340.259 381.723 340.259C381.312 340.259 380.98 340.593 380.98 341.001C380.98 341.411 381.312 341.745 381.723 341.745Z" fill="#4B683B"/>
<path fill-rule="evenodd" clip-rule="evenodd" d="M342.482 326.546C342.891 326.546 343.223 326.213 343.223 325.803C343.223 325.394 342.891 325.062 342.482 325.062C342.074 325.062 341.739 325.394 341.739 325.803C341.739 326.213 342.074 326.546 342.482 326.546Z" fill="#4B683B"/>
<path fill-rule="evenodd" clip-rule="evenodd" d="M335.481 338.334C335.89 338.334 336.223 338.001 336.223 337.594C336.223 337.185 335.89 336.853 335.481 336.853C335.071 336.853 334.738 337.185 334.738 337.594C334.738 338.001 335.071 338.334 335.481 338.334Z" fill="#4B683B"/>
<path fill-rule="evenodd" clip-rule="evenodd" d="M338.189 334.703C338.824 334.703 339.342 334.183 339.342 333.547C339.342 332.911 338.824 332.394 338.189 332.394C337.553 332.394 337.036 332.911 337.036 333.547C337.036 334.183 337.553 334.703 338.189 334.703Z" fill="#4B683B"/>
<path fill-rule="evenodd" clip-rule="evenodd" d="M367.253 333.73C367.891 333.73 368.407 333.21 368.407 332.574C368.407 331.941 367.891 331.421 367.253 331.421C366.618 331.421 366.101 331.941 366.101 332.574C366.101 333.21 366.618 333.73 367.253 333.73Z" fill="#4B683B"/>
<path fill-rule="evenodd" clip-rule="evenodd" d="M375.466 340.233C376.105 340.233 376.623 339.716 376.623 339.08C376.623 338.442 376.105 337.925 375.466 337.925C374.833 337.925 374.315 338.442 374.315 339.08C374.315 339.716 374.833 340.233 375.466 340.233Z" fill="#4B683B"/>
<path fill-rule="evenodd" clip-rule="evenodd" d="M257.324 282.898C241.424 282.898 228.536 295.788 228.536 311.688C228.536 312.352 228.557 313.011 228.602 313.666C218.54 315.195 210.409 322.602 207.822 332.275C205.057 332.527 202.522 333.564 200.441 335.164C197.153 331.62 192.456 329.402 187.241 329.402C177.296 329.402 169.236 337.463 169.236 347.407C169.236 350.07 169.812 352.592 170.848 354.867H326.574C327.288 352.514 327.673 350.018 327.673 347.432C327.673 333.318 316.233 321.879 302.12 321.879C301.057 321.879 300.01 321.946 298.982 322.07C296.806 316.831 291.94 312.992 286.106 312.274C286.11 312.079 286.114 311.884 286.114 311.688C286.114 295.788 273.225 282.898 257.324 282.898Z" fill="#BFD867"/>
<path fill-rule="evenodd" clip-rule="evenodd" d="M296.822 339.68C295.136 339.68 293.53 340.028 292.074 340.654C290.742 337.825 287.868 335.866 284.532 335.866C284.036 335.866 283.549 335.91 283.077 335.992C282.025 329.67 276.532 324.849 269.91 324.849C268.356 324.849 266.865 325.114 265.478 325.602C262.042 320.302 256.073 316.794 249.288 316.794C238.638 316.794 230.005 325.428 230.005 336.078C230.005 337.557 230.172 339.002 230.489 340.389C230.068 340.324 229.634 340.289 229.196 340.289C226.661 340.289 224.393 341.42 222.865 343.204C221.152 342.049 219.09 341.374 216.869 341.374C212.666 341.374 209.029 343.789 207.266 347.306C206.918 347.254 206.562 347.228 206.2 347.228C202.184 347.228 198.93 350.484 198.93 354.498C198.93 354.622 198.933 354.744 198.938 354.868H308.401C308.68 353.854 308.829 352.789 308.829 351.685C308.829 345.054 303.453 339.68 296.822 339.68Z" fill="#96BB55"/>
<path fill-rule="evenodd" clip-rule="evenodd" d="M187.173 347.021C189.187 347.021 190.83 345.378 190.83 343.359C190.83 341.345 189.187 339.702 187.173 339.702C185.157 339.702 183.513 341.345 183.513 343.359C183.513 345.378 185.157 347.021 187.173 347.021Z" fill="#96BB55"/>
<path fill-rule="evenodd" clip-rule="evenodd" d="M217.354 338.501C218.755 338.501 219.898 337.359 219.898 335.959C219.898 334.557 218.755 333.416 217.354 333.416C215.954 333.416 214.811 334.557 214.811 335.959C214.811 337.359 215.954 338.501 217.354 338.501Z" fill="#96BB55"/>
<path fill-rule="evenodd" clip-rule="evenodd" d="M251.772 303.188C253.79 303.188 255.432 301.545 255.432 299.529C255.432 297.515 253.79 295.869 251.772 295.869C249.758 295.869 248.115 297.515 248.115 299.529C248.115 301.545 249.758 303.188 251.772 303.188Z" fill="#96BB55"/>
<path fill-rule="evenodd" clip-rule="evenodd" d="M266.44 311.217C268.456 311.217 270.1 309.575 270.1 307.557C270.1 305.544 268.456 303.9 266.44 303.9C264.425 303.9 262.782 305.544 262.782 307.557C262.782 309.575 264.425 311.217 266.44 311.217Z" fill="#96BB55"/>
<path fill-rule="evenodd" clip-rule="evenodd" d="M321.57 344.7C323.238 344.7 324.599 343.339 324.599 341.671C324.599 340.002 323.238 338.639 321.57 338.639C319.899 338.639 318.539 340.002 318.539 341.671C318.539 343.339 319.899 344.7 321.57 344.7Z" fill="#96BB55"/>
<path fill-rule="evenodd" clip-rule="evenodd" d="M247.706 312.543C248.959 312.543 249.982 311.519 249.982 310.266C249.982 309.014 248.959 307.991 247.706 307.991C246.454 307.991 245.43 309.014 245.43 310.266C245.43 311.519 246.454 312.543 247.706 312.543Z" fill="#96BB55"/>
<path fill-rule="evenodd" clip-rule="evenodd" d="M255.645 310.023C256.273 310.023 256.783 309.511 256.783 308.884C256.783 308.259 256.273 307.747 255.645 307.747C255.019 307.747 254.507 308.259 254.507 308.884C254.507 309.511 255.019 310.023 255.645 310.023Z" fill="#96BB55"/>
<path fill-rule="evenodd" clip-rule="evenodd" d="M270.477 315.673C271.105 315.673 271.616 315.161 271.616 314.534C271.616 313.909 271.105 313.397 270.477 313.397C269.852 313.397 269.34 313.909 269.34 314.534C269.34 315.161 269.852 315.673 270.477 315.673Z" fill="#96BB55"/>
<path fill-rule="evenodd" clip-rule="evenodd" d="M296.188 334.742C296.816 334.742 297.326 334.23 297.326 333.606C297.326 332.978 296.816 332.469 296.188 332.469C295.56 332.469 295.05 332.978 295.05 333.606C295.05 334.23 295.56 334.742 296.188 334.742Z" fill="#96BB55"/>
<path fill-rule="evenodd" clip-rule="evenodd" d="M236.01 311.436C236.637 311.436 237.149 310.924 237.149 310.297C237.149 309.672 236.637 309.16 236.01 309.16C235.385 309.16 234.873 309.672 234.873 310.297C234.873 310.924 235.385 311.436 236.01 311.436Z" fill="#96BB55"/>
<path fill-rule="evenodd" clip-rule="evenodd" d="M225.275 329.517C225.902 329.517 226.414 329.005 226.414 328.378C226.414 327.752 225.902 327.241 225.275 327.241C224.65 327.241 224.138 327.752 224.138 328.378C224.138 329.005 224.65 329.517 225.275 329.517Z" fill="#96BB55"/>
<path fill-rule="evenodd" clip-rule="evenodd" d="M229.426 323.944C230.402 323.944 231.197 323.149 231.197 322.172C231.197 321.197 230.402 320.403 229.426 320.403C228.452 320.403 227.656 321.197 227.656 322.172C227.656 323.149 228.452 323.944 229.426 323.944Z" fill="#96BB55"/>
<path fill-rule="evenodd" clip-rule="evenodd" d="M274.001 322.452C274.975 322.452 275.77 321.657 275.77 320.682C275.77 319.708 274.975 318.912 274.001 318.912C273.026 318.912 272.23 319.708 272.23 320.682C272.23 321.657 273.026 322.452 274.001 322.452Z" fill="#96BB55"/>
<path fill-rule="evenodd" clip-rule="evenodd" d="M286.598 332.425C287.573 332.425 288.369 331.63 288.369 330.656C288.369 329.681 287.573 328.886 286.598 328.886C285.622 328.886 284.828 329.681 284.828 330.656C284.828 331.63 285.622 332.425 286.598 332.425Z" fill="#96BB55"/>
<path fill-rule="evenodd" clip-rule="evenodd" d="M266.713 365.625C271.137 365.625 274.758 362.004 274.758 357.581V351.244C274.758 346.82 271.138 343.2 266.714 343.2C262.292 343.2 258.67 346.82 258.67 351.244V357.581C258.67 362.004 262.29 365.625 266.713 365.625Z" fill="#25020B"/>
<path fill-rule="evenodd" clip-rule="evenodd" d="M268.231 362.264C270.944 362.264 273.164 360.044 273.164 357.329V350.619C273.164 347.904 270.944 345.687 268.231 345.687C265.517 345.687 263.3 347.904 263.3 350.619V357.329C263.3 360.044 265.517 362.264 268.231 362.264Z" fill="#3B020D"/>
<path fill-rule="evenodd" clip-rule="evenodd" d="M256.229 365.625C262.517 365.625 267.661 360.478 267.661 354.19V345.189C267.661 338.9 262.517 333.754 256.229 333.754C249.939 333.754 244.795 338.9 244.795 345.189V354.19C244.795 360.478 249.939 365.625 256.229 365.625Z" fill="#25020B"/>
<path fill-rule="evenodd" clip-rule="evenodd" d="M258.383 360.847C262.239 360.847 265.395 357.694 265.395 353.838V344.297C265.395 340.439 262.241 337.287 258.385 337.287C254.529 337.287 251.373 340.439 251.373 344.297V353.838C251.373 357.694 254.527 360.847 258.383 360.847Z" fill="#3B020D"/>
<path fill-rule="evenodd" clip-rule="evenodd" d="M358.184 365.625C362.504 365.625 366.036 362.092 366.036 357.773V351.59C366.036 347.272 362.504 343.74 358.184 343.74C353.865 343.74 350.333 347.272 350.333 351.59V357.773C350.333 362.092 353.865 365.625 358.184 365.625Z" fill="#25020B"/>
<path fill-rule="evenodd" clip-rule="evenodd" d="M359.664 362.345H359.667C362.312 362.345 364.479 360.178 364.479 357.532V350.98C364.479 348.332 362.312 346.166 359.667 346.166H359.664C357.017 346.166 354.852 348.332 354.852 350.98V357.532C354.852 360.178 357.017 362.345 359.664 362.345Z" fill="#3B020D"/>
<path fill-rule="evenodd" clip-rule="evenodd" d="M473.869 274.634V293.307C473.869 300.677 479.275 305.59 482.345 308.785C485.414 311.977 487.258 316.523 487.258 330.773C487.258 345.021 486.861 370.021 486.861 382.059C486.861 414.521 425.007 414.521 425.007 382.059C425.007 370.021 424.607 345.021 424.607 330.773C424.607 316.523 426.451 311.977 429.522 308.785C432.594 305.59 437.998 300.677 437.998 293.307V274.634C437.998 249.741 473.869 249.741 473.869 274.634Z" fill="#32573B"/>
<path fill-rule="evenodd" clip-rule="evenodd" d="M457.229 276.139C457.229 275.499 456.711 274.979 456.068 274.979C455.425 274.979 454.909 275.499 454.909 276.139V302.676L449.443 299.523C449.111 299.331 448.688 299.444 448.497 299.776C448.305 300.109 448.42 300.532 448.751 300.723L454.909 304.277V342.233L438.724 332.889C438.391 332.699 437.968 332.813 437.777 333.147C437.588 333.477 437.701 333.902 438.035 334.093L454.909 343.835V380.232L438.724 370.891C438.391 370.697 437.968 370.813 437.777 371.145C437.588 371.476 437.701 371.9 438.035 372.089L454.909 381.832V423.678C454.909 424.32 455.425 424.839 456.068 424.839C456.711 424.839 457.229 424.32 457.229 423.678V391.521L471.089 383.521C471.419 383.329 471.535 382.906 471.344 382.573C471.151 382.241 470.729 382.128 470.396 382.319L457.229 389.917V359.494L471.089 351.494C471.419 351.304 471.535 350.88 471.344 350.548C471.151 350.215 470.729 350.101 470.396 350.293L457.229 357.892V327.468L471.089 319.468C471.419 319.277 471.535 318.853 471.344 318.521C471.151 318.189 470.729 318.076 470.396 318.267L457.229 325.868V295.443L466.256 290.231C466.589 290.04 466.703 289.616 466.512 289.285C466.321 288.952 465.897 288.837 465.565 289.029L457.229 293.841V276.139Z" fill="#022524"/>
<path fill-rule="evenodd" clip-rule="evenodd" d="M501.922 190.439C508.375 190.439 513.658 195.719 513.658 202.173V250.157V252.499C514.401 271.275 533.997 272.233 533.997 305.963V375.579C533.997 383.899 527.191 390.704 518.871 390.704H484.969C476.651 390.704 469.845 383.899 469.845 375.579V248.592C469.845 230.859 473.913 229.665 482.231 224.861C489.546 220.637 490.149 213.161 490.186 211.415V211.04V202.173C490.186 195.719 495.467 190.439 501.922 190.439Z" fill="#70853B"/>
<path fill-rule="evenodd" clip-rule="evenodd" d="M500.497 225.81C500.497 225.024 501.136 224.387 501.921 224.387C502.708 224.387 503.345 225.024 503.345 225.81V258.354L510.047 254.486C510.453 254.251 510.973 254.392 511.208 254.799C511.44 255.207 511.3 255.727 510.895 255.96L503.345 260.318V306.87L523.192 295.412C523.6 295.176 524.119 295.318 524.353 295.726C524.587 296.132 524.447 296.651 524.039 296.886L503.345 308.836V353.475L523.192 342.015C523.6 341.782 524.119 341.92 524.353 342.328C524.587 342.734 524.447 343.256 524.039 343.488L503.345 355.439V419.444C503.345 420.228 502.708 420.867 501.921 420.867C501.136 420.867 500.497 420.228 500.497 419.444V367.319L483.501 357.507C483.093 357.272 482.953 356.752 483.189 356.344C483.421 355.938 483.941 355.796 484.348 356.031L500.497 365.355V328.042L483.501 318.228C483.093 317.995 482.953 317.474 483.189 317.066C483.421 316.659 483.941 316.518 484.348 316.752L500.497 326.078V288.763L483.501 278.95C483.093 278.715 482.953 278.196 483.189 277.79C483.421 277.382 483.941 277.242 484.348 277.476L500.497 286.799V249.484L483.501 239.671C483.093 239.438 482.953 238.918 483.189 238.511C483.421 238.104 483.941 237.963 484.348 238.198L500.497 247.52V225.81Z" fill="#10210D"/>
<path fill-rule="evenodd" clip-rule="evenodd" d="M175.251 477.328H307.749C288.897 415.919 378.761 451.619 414.573 433.369L484.277 397.853C472.454 397.853 462.782 388.181 462.782 376.359C462.782 364.537 453.113 354.867 441.29 354.867H363.39H305.763H175.251C156.585 354.867 141.31 370.14 141.31 388.807C141.31 399.963 146.762 409.901 155.133 416.097C146.762 422.293 141.31 432.233 141.31 443.387C141.31 462.056 156.585 477.328 175.251 477.328Z" fill="#25020B"/>
<path fill-rule="evenodd" clip-rule="evenodd" d="M211.512 477.328H307.749C288.897 415.919 378.761 451.619 414.573 433.369L425.792 427.653L429.471 414.035C420.571 414.035 462.648 406.752 462.648 397.853C462.648 388.951 455.364 381.669 446.464 381.669H338.456H295.068H196.805C182.752 381.669 171.252 393.169 171.252 407.225C171.252 415.623 175.356 423.105 181.657 427.772C175.356 432.436 171.252 439.92 171.252 448.319C171.252 462.372 183.127 470.656 196.805 473.872L211.512 477.328Z" fill="#3B020D"/>
<path fill-rule="evenodd" clip-rule="evenodd" d="M455.339 405.703C459.657 405.703 463.192 402.171 463.192 397.852V391.671C463.192 387.35 459.657 383.818 455.339 383.818C451.019 383.818 447.487 387.35 447.487 391.671V397.852C447.487 402.171 451.019 405.703 455.339 405.703Z" fill="#803520"/>
<path fill-rule="evenodd" clip-rule="evenodd" d="M456.817 402.424H456.819C459.466 402.424 461.633 400.258 461.633 397.608V391.058C461.633 388.41 459.466 386.243 456.819 386.243H456.817C454.171 386.243 452.006 388.41 452.006 391.058V397.608C452.006 400.258 454.171 402.424 456.817 402.424Z" fill="#924324"/>
<path fill-rule="evenodd" clip-rule="evenodd" d="M545.007 478.138L431.999 522.909C387.445 540.557 363.84 474.31 405.728 457.714C410.98 456.049 453.632 445.649 505.928 434.403C524.819 430.341 559.411 415.579 573.609 415.994C594.516 416.603 617.548 423.715 607.724 442.173C600.413 455.909 560.959 471.818 545.007 478.138Z" fill="#EC797D"/>
<path fill-rule="evenodd" clip-rule="evenodd" d="M307.749 477.328H342.163C347.489 479.809 353.414 481.2 359.649 481.2H499.989C522.909 481.2 541.663 462.447 541.663 439.527C541.663 416.607 522.909 397.853 499.989 397.853H484.277H366.601C332.754 397.853 305.062 425.543 305.062 459.388C305.062 465.623 306.005 471.647 307.749 477.328Z" fill="#671B1B"/>
<path fill-rule="evenodd" clip-rule="evenodd" d="M404.921 481.2H500.713C516.357 481.2 529.159 468.4 529.159 452.755C529.159 437.11 516.357 424.31 500.713 424.31H489.986H409.665C386.563 424.31 367.661 443.21 367.661 466.314C367.661 470.567 368.306 474.679 369.495 478.558H392.986C396.619 480.251 400.665 481.2 404.921 481.2Z" fill="#803520"/>
<path fill-rule="evenodd" clip-rule="evenodd" d="M540.539 507.659L437.458 552.431C396.821 570.079 375.287 503.831 413.495 487.235C428.319 481.865 475.382 466.271 512.449 453.1C530.273 446.765 621.106 409.947 622.978 456.035C623.081 458.625 621.946 461.167 618.453 463.597C604.153 473.545 577.913 490.757 540.539 507.659Z" fill="#F4B4B6"/>
<path fill-rule="evenodd" clip-rule="evenodd" d="M442.534 551.966L327.45 591.089C282.078 606.507 261.782 539.173 304.441 524.671L419.525 485.549C464.897 470.127 485.194 537.467 442.534 551.966Z" fill="#F4B4B6"/>
<path fill-rule="evenodd" clip-rule="evenodd" d="M345.466 584.963L327.45 591.089C282.078 606.507 261.783 539.171 304.439 524.672C343.629 511.35 516.786 447.848 565.494 436.498C565.835 436.419 526.958 452.346 490.677 469.573C459.866 484.202 429.845 499.176 430.769 502.062C434.874 514.898 435.845 528.752 426.033 537.025C401.078 558.063 346.377 551.625 345.466 584.963Z" fill="#F0969B"/>
<path fill-rule="evenodd" clip-rule="evenodd" d="M301.634 591.401L106.547 520.926C57.2468 503.116 123.4 419.557 198.376 456.141L327.868 519.318C362.567 536.25 343.386 606.485 301.634 591.401Z" fill="#F7C9D7"/>
<path fill-rule="evenodd" clip-rule="evenodd" d="M381.159 397.853V370.13C381.159 361.735 374.289 354.867 365.892 354.867H410.739C419.135 354.867 426.007 361.735 426.007 370.13V397.853H381.159Z" fill="#62BCBE"/>
<path fill-rule="evenodd" clip-rule="evenodd" d="M403.738 379.709V379.525C403.738 377.652 402.205 376.119 400.332 376.119C398.458 376.119 396.922 377.652 396.922 379.525V379.709C396.922 381.584 398.457 383.117 400.33 383.117C402.204 383.117 403.738 381.584 403.738 379.709ZM381.158 377.815V370.129C381.158 361.736 374.289 354.867 365.892 354.867H410.738C419.136 354.867 426.006 361.736 426.006 370.129V371.571C425.982 369.717 424.457 368.207 422.6 368.207H422.597C420.722 368.207 419.189 369.739 419.189 371.615V380.017C419.189 381.404 418.054 382.537 416.666 382.537C415.281 382.537 414.148 381.404 414.148 380.017V376.464C414.101 374.791 412.718 373.432 411.036 373.432C409.321 373.432 407.922 372.033 407.922 370.32V368.128C407.922 366.981 406.981 366.039 405.829 366.039C404.678 366.039 403.738 366.981 403.738 368.128V371.124C403.738 372.999 402.205 374.529 400.332 374.529C398.458 374.529 396.922 372.999 396.922 371.124V368.792C396.922 366.463 395.017 364.561 392.693 364.561H392.69C390.361 364.561 388.46 366.463 388.46 368.792V370.515C388.46 372.523 386.816 374.167 384.809 374.167C382.802 374.167 381.158 375.808 381.158 377.815Z" fill="#A4D8DB"/>
<path fill-rule="evenodd" clip-rule="evenodd" d="M421.583 391.443C420.871 391.443 420.193 391.589 419.578 391.855C419.017 390.661 417.802 389.832 416.394 389.832C416.186 389.832 415.981 389.852 415.779 389.885C415.338 387.217 413.019 385.183 410.223 385.183C409.57 385.183 408.938 385.295 408.353 385.503C406.905 383.264 404.387 381.784 401.521 381.784C397.026 381.784 393.383 385.428 393.383 389.921C393.383 390.547 393.454 391.157 393.589 391.743C393.41 391.712 393.226 391.697 393.042 391.697C391.973 391.697 391.014 392.176 390.371 392.929C389.646 392.443 388.777 392.157 387.839 392.157C386.066 392.157 384.531 393.177 383.786 394.661C383.639 394.639 383.49 394.629 383.335 394.629C381.643 394.629 380.269 396.001 380.269 397.695C380.269 397.749 380.27 397.8 380.274 397.853H426.469C426.586 397.424 426.65 396.975 426.65 396.511C426.65 393.712 424.381 391.443 421.583 391.443Z" fill="white"/>
<path fill-rule="evenodd" clip-rule="evenodd" d="M386.109 387.199C386.961 387.199 387.655 386.504 387.655 385.655C387.655 384.803 386.961 384.11 386.109 384.11C385.256 384.11 384.565 384.803 384.565 385.655C384.565 386.504 385.256 387.199 386.109 387.199Z" fill="white"/>
<path fill-rule="evenodd" clip-rule="evenodd" d="M389.241 383.811C389.832 383.811 390.313 383.33 390.313 382.738C390.313 382.146 389.832 381.666 389.241 381.666C388.652 381.666 388.168 382.146 388.168 382.738C388.168 383.33 388.652 383.811 389.241 383.811Z" fill="white"/>
<path fill-rule="evenodd" clip-rule="evenodd" d="M398.184 376.174C399.034 376.174 399.728 375.48 399.728 374.63C399.728 373.781 399.034 373.086 398.184 373.086C397.333 373.086 396.64 373.781 396.64 374.63C396.64 375.48 397.333 376.174 398.184 376.174Z" fill="white"/>
<path fill-rule="evenodd" clip-rule="evenodd" d="M410.525 377.247C411.374 377.247 412.069 376.554 412.069 375.703C412.069 374.854 411.374 374.161 410.525 374.161C409.672 374.161 408.982 374.854 408.982 375.703C408.982 376.554 409.672 377.247 410.525 377.247Z" fill="white"/>
<path fill-rule="evenodd" clip-rule="evenodd" d="M423.638 383.506C424.49 383.506 425.182 382.813 425.182 381.964C425.182 381.113 424.49 380.42 423.638 380.42C422.789 380.42 422.094 381.113 422.094 381.964C422.094 382.813 422.789 383.506 423.638 383.506Z" fill="white"/>
<path fill-rule="evenodd" clip-rule="evenodd" d="M425.396 387.859C426.099 387.859 426.675 387.283 426.675 386.582C426.675 385.875 426.099 385.302 425.396 385.302C424.691 385.302 424.116 385.875 424.116 386.582C424.116 387.283 424.691 387.859 425.396 387.859Z" fill="white"/>
<path fill-rule="evenodd" clip-rule="evenodd" d="M414.455 379.394C415.079 379.394 415.587 378.885 415.587 378.264C415.587 377.641 415.079 377.136 414.455 377.136C413.833 377.136 413.325 377.641 413.325 378.264C413.325 378.885 413.833 379.394 414.455 379.394Z" fill="white"/>
<path fill-rule="evenodd" clip-rule="evenodd" d="M400.853 379.991C401.383 379.991 401.815 379.557 401.815 379.028C401.815 378.501 401.383 378.071 400.853 378.071C400.325 378.071 399.893 378.501 399.893 379.028C399.893 379.557 400.325 379.991 400.853 379.991Z" fill="white"/>
<path fill-rule="evenodd" clip-rule="evenodd" d="M404.203 378.926C404.469 378.926 404.683 378.711 404.683 378.447C404.683 378.18 404.469 377.964 404.203 377.964C403.942 377.964 403.725 378.18 403.725 378.447C403.725 378.711 403.942 378.926 404.203 378.926Z" fill="white"/>
<path fill-rule="evenodd" clip-rule="evenodd" d="M410.466 381.311C410.728 381.311 410.945 381.095 410.945 380.831C410.945 380.564 410.728 380.351 410.466 380.351C410.201 380.351 409.984 380.564 409.984 380.831C409.984 381.095 410.201 381.311 410.466 381.311Z" fill="white"/>
<path fill-rule="evenodd" clip-rule="evenodd" d="M421.314 389.358C421.579 389.358 421.795 389.143 421.795 388.879C421.795 388.613 421.579 388.398 421.314 388.398C421.049 388.398 420.835 388.613 420.835 388.879C420.835 389.143 421.049 389.358 421.314 389.358Z" fill="white"/>
<path fill-rule="evenodd" clip-rule="evenodd" d="M395.917 379.522C396.182 379.522 396.398 379.307 396.398 379.043C396.398 378.777 396.182 378.562 395.917 378.562C395.654 378.562 395.438 378.777 395.438 379.043C395.438 379.307 395.654 379.522 395.917 379.522Z" fill="white"/>
<path fill-rule="evenodd" clip-rule="evenodd" d="M391.387 387.152C391.651 387.152 391.867 386.936 391.867 386.671C391.867 386.408 391.651 386.191 391.387 386.191C391.122 386.191 390.908 386.408 390.908 386.671C390.908 386.936 391.122 387.152 391.387 387.152Z" fill="white"/>
<path fill-rule="evenodd" clip-rule="evenodd" d="M392.729 384.176C393.143 384.176 393.477 383.841 393.477 383.428C393.477 383.017 393.143 382.682 392.729 382.682C392.317 382.682 391.983 383.017 391.983 383.428C391.983 383.841 392.317 384.176 392.729 384.176Z" fill="white"/>
<path fill-rule="evenodd" clip-rule="evenodd" d="M413.534 383.575C413.946 383.575 414.283 383.241 414.283 382.827C414.283 382.417 413.946 382.081 413.534 382.081C413.123 382.081 412.787 382.417 412.787 382.827C412.787 383.241 413.123 383.575 413.534 383.575Z" fill="white"/>
<path fill-rule="evenodd" clip-rule="evenodd" d="M420.271 386.736C420.684 386.736 421.019 386.4 421.019 385.988C421.019 385.577 420.684 385.242 420.271 385.242C419.859 385.242 419.524 385.577 419.524 385.988C419.524 386.4 419.859 386.736 420.271 386.736Z" fill="white"/>
<path fill-rule="evenodd" clip-rule="evenodd" d="M419.199 379.223C419.61 379.223 419.946 378.888 419.946 378.473C419.946 378.065 419.61 377.728 419.199 377.728C418.787 377.728 418.45 378.065 418.45 378.473C418.45 378.888 418.787 379.223 419.199 379.223Z" fill="white"/>
<path fill-rule="evenodd" clip-rule="evenodd" d="M405.535 356.747H384.317C383.254 356.747 382.386 357.614 382.386 358.677C382.386 359.741 383.254 360.609 384.317 360.609H405.535C406.598 360.609 407.467 359.741 407.467 358.677C407.467 357.614 406.598 356.747 405.535 356.747Z" fill="white"/>
<path fill-rule="evenodd" clip-rule="evenodd" d="M411.156 356.747H411.159C412.174 356.747 413.003 357.577 413.003 358.593V358.766C413.003 359.778 412.174 360.609 411.159 360.609H411.156C410.142 360.609 409.312 359.778 409.312 358.766V358.593C409.312 357.577 410.142 356.747 411.156 356.747Z" fill="white"/>
<path fill-rule="evenodd" clip-rule="evenodd" d="M419.084 472.312V424.295C419.084 409.75 430.983 397.852 445.528 397.852H367.841C353.298 397.852 341.396 409.751 341.396 424.295V472.312H419.084Z" fill="#62BCBE"/>
<path fill-rule="evenodd" clip-rule="evenodd" d="M419.084 437.604V424.296C419.084 409.749 430.983 397.853 445.528 397.853H367.841C353.298 397.853 341.396 409.751 341.396 424.296V426.788C341.44 423.576 344.078 420.961 347.298 420.961H347.301C350.552 420.961 353.206 423.617 353.206 426.863V441.42C353.206 443.823 355.169 445.787 357.572 445.787C359.974 445.787 361.94 443.823 361.94 441.42V435.269C362.014 432.367 364.413 430.015 367.332 430.015C370.297 430.015 372.725 427.588 372.725 424.623V420.825C372.725 418.835 374.353 417.205 376.346 417.205C378.337 417.205 379.969 418.835 379.969 420.825V426.013C379.969 429.26 382.624 431.916 385.872 431.916H385.874C389.12 431.916 391.778 429.26 391.778 426.013V421.971C391.778 417.941 395.076 414.643 399.107 414.643H399.109C403.138 414.643 406.437 417.941 406.437 421.971V424.96C406.437 428.439 409.281 431.285 412.761 431.285C416.237 431.285 419.084 434.127 419.084 437.604Z" fill="#A4D8DB"/>
<path fill-rule="evenodd" clip-rule="evenodd" d="M411.805 460.979C410.572 460.979 409.397 461.231 408.336 461.691C407.36 459.622 405.257 458.19 402.82 458.19C402.457 458.19 402.102 458.224 401.757 458.284C400.99 453.662 396.973 450.135 392.132 450.135C390.996 450.135 389.903 450.331 388.892 450.688C386.381 446.814 382.014 444.247 377.056 444.247C369.27 444.247 362.957 450.559 362.957 458.344C362.957 459.43 363.08 460.482 363.313 461.496C363.004 461.448 362.689 461.424 362.366 461.424C360.514 461.424 358.857 462.25 357.74 463.555C356.489 462.71 354.979 462.219 353.355 462.219C350.282 462.219 347.624 463.982 346.336 466.555C346.08 466.516 345.821 466.496 345.556 466.496C342.62 466.496 340.24 468.878 340.24 471.814C340.24 471.903 340.244 471.994 340.248 472.08H420.271C420.474 471.34 420.582 470.56 420.582 469.756C420.582 464.907 416.653 460.979 411.805 460.979Z" fill="white"/>
<path fill-rule="evenodd" clip-rule="evenodd" d="M350.357 453.624C351.829 453.624 353.03 452.426 353.03 450.952C353.03 449.477 351.829 448.276 350.357 448.276C348.885 448.276 347.681 449.477 347.681 450.952C347.681 452.426 348.885 453.624 350.357 453.624Z" fill="white"/>
<path fill-rule="evenodd" clip-rule="evenodd" d="M355.783 447.759C356.808 447.759 357.643 446.926 357.643 445.902C357.643 444.879 356.808 444.043 355.783 444.043C354.757 444.043 353.923 444.879 353.923 445.902C353.923 446.926 354.757 447.759 355.783 447.759Z" fill="white"/>
<path fill-rule="evenodd" clip-rule="evenodd" d="M371.272 434.532C372.747 434.532 373.948 433.331 373.948 431.855C373.948 430.383 372.747 429.183 371.272 429.183C369.799 429.183 368.596 430.383 368.596 431.855C368.596 433.331 369.799 434.532 371.272 434.532Z" fill="white"/>
<path fill-rule="evenodd" clip-rule="evenodd" d="M392.647 436.391C394.121 436.391 395.325 435.191 395.325 433.717C395.325 432.243 394.121 431.04 392.647 431.04C391.177 431.04 389.975 432.243 389.975 433.717C389.975 435.191 391.177 436.391 392.647 436.391Z" fill="white"/>
<path fill-rule="evenodd" clip-rule="evenodd" d="M415.37 447.233C416.842 447.233 418.044 446.032 418.044 444.558C418.044 443.085 416.842 441.884 415.37 441.884C413.896 441.884 412.692 443.085 412.692 444.558C412.692 446.032 413.896 447.233 415.37 447.233Z" fill="white"/>
<path fill-rule="evenodd" clip-rule="evenodd" d="M418.41 454.772C419.63 454.772 420.625 453.776 420.625 452.556C420.625 451.336 419.63 450.343 418.41 450.343C417.19 450.343 416.194 451.336 416.194 452.556C416.194 453.776 417.19 454.772 418.41 454.772Z" fill="white"/>
<path fill-rule="evenodd" clip-rule="evenodd" d="M399.458 440.108C400.538 440.108 401.418 439.228 401.418 438.151C401.418 437.073 400.538 436.193 399.458 436.193C398.381 436.193 397.501 437.073 397.501 438.151C397.501 439.228 398.381 440.108 399.458 440.108Z" fill="white"/>
<path fill-rule="evenodd" clip-rule="evenodd" d="M375.897 441.139C376.813 441.139 377.561 440.391 377.561 439.475C377.561 438.559 376.813 437.811 375.897 437.811C374.983 437.811 374.236 438.559 374.236 439.475C374.236 440.391 374.983 441.139 375.897 441.139Z" fill="white"/>
<path fill-rule="evenodd" clip-rule="evenodd" d="M381.703 439.298C382.16 439.298 382.535 438.925 382.535 438.466C382.535 438.009 382.16 437.634 381.703 437.634C381.244 437.634 380.871 438.009 380.871 438.466C380.871 438.925 381.244 439.298 381.703 439.298Z" fill="white"/>
<path fill-rule="evenodd" clip-rule="evenodd" d="M392.547 443.43C393.006 443.43 393.378 443.055 393.378 442.598C393.378 442.138 393.006 441.764 392.547 441.764C392.088 441.764 391.715 442.138 391.715 442.598C391.715 443.055 392.088 443.43 392.547 443.43Z" fill="white"/>
<path fill-rule="evenodd" clip-rule="evenodd" d="M411.34 457.368C411.8 457.368 412.173 456.998 412.173 456.539C412.173 456.079 411.8 455.706 411.34 455.706C410.883 455.706 410.511 456.079 410.511 456.539C410.511 456.998 410.883 457.368 411.34 457.368Z" fill="white"/>
<path fill-rule="evenodd" clip-rule="evenodd" d="M367.348 440.331C367.806 440.331 368.18 439.956 368.18 439.499C368.18 439.041 367.806 438.668 367.348 438.668C366.89 438.668 366.518 439.041 366.518 439.499C366.518 439.956 366.89 440.331 367.348 440.331Z" fill="white"/>
<path fill-rule="evenodd" clip-rule="evenodd" d="M359.499 453.549C359.959 453.549 360.332 453.175 360.332 452.716C360.332 452.259 359.959 451.884 359.499 451.884C359.041 451.884 358.669 452.259 358.669 452.716C358.669 453.175 359.041 453.549 359.499 453.549Z" fill="white"/>
<path fill-rule="evenodd" clip-rule="evenodd" d="M361.827 448.392C362.539 448.392 363.122 447.809 363.122 447.096C363.122 446.385 362.539 445.802 361.827 445.802C361.115 445.802 360.532 446.385 360.532 447.096C360.532 447.809 361.115 448.392 361.827 448.392Z" fill="white"/>
<path fill-rule="evenodd" clip-rule="evenodd" d="M397.865 447.35C398.577 447.35 399.158 446.769 399.158 446.057C399.158 445.343 398.577 444.763 397.865 444.763C397.153 444.763 396.571 445.343 396.571 446.057C396.571 446.769 397.153 447.35 397.865 447.35Z" fill="white"/>
<path fill-rule="evenodd" clip-rule="evenodd" d="M409.535 452.825C410.247 452.825 410.83 452.243 410.83 451.531C410.83 450.817 410.247 450.236 409.535 450.236C408.822 450.236 408.241 450.817 408.241 451.531C408.241 452.243 408.822 452.825 409.535 452.825Z" fill="white"/>
<path fill-rule="evenodd" clip-rule="evenodd" d="M407.675 439.812C408.387 439.812 408.971 439.231 408.971 438.518C408.971 437.803 408.387 437.226 407.675 437.226C406.961 437.226 406.381 437.803 406.381 438.518C406.381 439.231 406.961 439.812 407.675 439.812Z" fill="white"/>
<path fill-rule="evenodd" clip-rule="evenodd" d="M376.857 401.108H413.613C415.451 401.108 416.958 402.615 416.958 404.456C416.958 406.293 415.451 407.8 413.613 407.8H376.857C375.015 407.8 373.509 406.293 373.509 404.456C373.509 402.615 375.015 401.108 376.857 401.108Z" fill="white"/>
<path fill-rule="evenodd" clip-rule="evenodd" d="M367.115 401.108C365.357 401.108 363.92 402.548 363.92 404.305V404.603C363.92 406.363 365.357 407.8 367.115 407.8C368.875 407.8 370.312 406.363 370.312 404.603V404.305C370.312 402.548 368.875 401.108 367.115 401.108Z" fill="white"/>
<path fill-rule="evenodd" clip-rule="evenodd" d="M469.053 389.238C461.304 389.238 455.024 395.518 455.024 403.266C455.024 403.59 455.033 403.914 455.056 404.232C450.152 404.978 446.189 408.586 444.929 413.301C443.581 413.422 442.345 413.928 441.332 414.709C439.732 412.981 437.441 411.9 434.897 411.9C430.053 411.9 426.123 415.829 426.123 420.674C426.123 421.972 426.407 423.202 426.911 424.31H502.8C503.147 423.162 503.335 421.945 503.335 420.686C503.335 413.809 497.757 408.234 490.881 408.234C490.363 408.234 489.855 408.265 489.352 408.326C488.293 405.774 485.921 403.902 483.079 403.553C483.08 403.458 483.081 403.365 483.081 403.266C483.081 395.518 476.801 389.238 469.053 389.238Z" fill="#96BB55"/>
<path fill-rule="evenodd" clip-rule="evenodd" d="M493.159 415.97C492.234 415.97 491.351 416.162 490.552 416.504C489.819 414.95 488.242 413.875 486.41 413.875C486.138 413.875 485.868 413.896 485.61 413.944C485.032 410.472 482.016 407.823 478.38 407.823C477.524 407.823 476.707 407.968 475.947 408.238C474.059 405.328 470.782 403.399 467.052 403.399C461.206 403.399 456.464 408.142 456.464 413.992C456.464 414.804 456.558 415.596 456.731 416.359C456.499 416.323 456.262 416.303 456.019 416.303C454.628 416.303 453.383 416.924 452.543 417.904C451.602 417.271 450.468 416.899 449.248 416.899C446.942 416.899 444.943 418.226 443.975 420.156C443.786 420.13 443.588 420.114 443.391 420.114C441.186 420.114 439.399 421.9 439.399 424.107C439.399 424.175 439.4 424.242 439.403 424.31H499.519C499.672 423.754 499.751 423.167 499.751 422.562C499.751 418.92 496.8 415.97 493.159 415.97Z" fill="#BFD867"/>
<path fill-rule="evenodd" clip-rule="evenodd" d="M432.94 420C434.048 420 434.95 419.096 434.95 417.989C434.95 416.884 434.048 415.98 432.94 415.98C431.834 415.98 430.931 416.884 430.931 417.989C430.931 419.096 431.834 420 432.94 420Z" fill="#BFD867"/>
<path fill-rule="evenodd" clip-rule="evenodd" d="M449.516 415.322C450.286 415.322 450.913 414.694 450.913 413.926C450.913 413.156 450.286 412.528 449.516 412.528C448.746 412.528 448.12 413.156 448.12 413.926C448.12 414.694 448.746 415.322 449.516 415.322Z" fill="#BFD867"/>
<path fill-rule="evenodd" clip-rule="evenodd" d="M468.419 395.928C469.526 395.928 470.43 395.024 470.43 393.919C470.43 392.814 469.526 391.91 468.419 391.91C467.311 391.91 466.407 392.814 466.407 393.919C466.407 395.024 467.311 395.928 468.419 395.928Z" fill="#BFD867"/>
<path fill-rule="evenodd" clip-rule="evenodd" d="M476.474 400.337C477.581 400.337 478.485 399.433 478.485 398.328C478.485 397.222 477.581 396.318 476.474 396.318C475.367 396.318 474.462 397.222 474.462 398.328C474.462 399.433 475.367 400.337 476.474 400.337Z" fill="#BFD867"/>
<path fill-rule="evenodd" clip-rule="evenodd" d="M497.659 415.631C498.575 415.631 499.324 414.883 499.324 413.966C499.324 413.05 498.575 412.301 497.659 412.301C496.743 412.301 495.996 413.05 495.996 413.966C495.996 414.883 496.743 415.631 497.659 415.631Z" fill="#BFD867"/>
<path fill-rule="evenodd" clip-rule="evenodd" d="M466.186 401.065C466.873 401.065 467.436 400.504 467.436 399.816C467.436 399.128 466.873 398.565 466.186 398.565C465.496 398.565 464.936 399.128 464.936 399.816C464.936 400.504 465.496 401.065 466.186 401.065Z" fill="#BFD867"/>
<path fill-rule="evenodd" clip-rule="evenodd" d="M470.546 399.681C470.891 399.681 471.17 399.399 471.17 399.055C471.17 398.71 470.891 398.433 470.546 398.433C470.202 398.433 469.919 398.71 469.919 399.055C469.919 399.399 470.202 399.681 470.546 399.681Z" fill="#BFD867"/>
<path fill-rule="evenodd" clip-rule="evenodd" d="M478.692 402.784C479.036 402.784 479.317 402.504 479.317 402.161C479.317 401.816 479.036 401.534 478.692 401.534C478.349 401.534 478.068 401.816 478.068 402.161C478.068 402.504 478.349 402.784 478.692 402.784Z" fill="#BFD867"/>
<path fill-rule="evenodd" clip-rule="evenodd" d="M492.81 413.258C493.154 413.258 493.435 412.976 493.435 412.632C493.435 412.288 493.154 412.008 492.81 412.008C492.469 412.008 492.187 412.288 492.187 412.632C492.187 412.976 492.469 413.258 492.81 413.258Z" fill="#BFD867"/>
<path fill-rule="evenodd" clip-rule="evenodd" d="M459.763 400.457C460.107 400.457 460.388 400.176 460.388 399.832C460.388 399.489 460.107 399.208 459.763 399.208C459.416 399.208 459.138 399.489 459.138 399.832C459.138 400.176 459.416 400.457 459.763 400.457Z" fill="#BFD867"/>
<path fill-rule="evenodd" clip-rule="evenodd" d="M453.866 410.388C454.211 410.388 454.493 410.107 454.493 409.763C454.493 409.419 454.211 409.137 453.866 409.137C453.522 409.137 453.241 409.419 453.241 409.763C453.241 410.107 453.522 410.388 453.866 410.388Z" fill="#BFD867"/>
<path fill-rule="evenodd" clip-rule="evenodd" d="M456.146 407.327C456.68 407.327 457.118 406.891 457.118 406.355C457.118 405.817 456.68 405.381 456.146 405.381C455.612 405.381 455.174 405.817 455.174 406.355C455.174 406.891 455.612 407.327 456.146 407.327Z" fill="#BFD867"/>
<path fill-rule="evenodd" clip-rule="evenodd" d="M480.625 406.509C481.16 406.509 481.597 406.072 481.597 405.536C481.597 405 481.16 404.564 480.625 404.564C480.09 404.564 479.653 405 479.653 405.536C479.653 406.072 480.09 406.509 480.625 406.509Z" fill="#BFD867"/>
<path fill-rule="evenodd" clip-rule="evenodd" d="M487.544 411.987C488.079 411.987 488.516 411.548 488.516 411.012C488.516 410.479 488.079 410.041 487.544 410.041C487.01 410.041 486.572 410.479 486.572 411.012C486.572 411.548 487.01 411.987 487.544 411.987Z" fill="#BFD867"/>
<path fill-rule="evenodd" clip-rule="evenodd" d="M245.257 393.987H313.183C316.584 393.987 319.368 396.77 319.368 400.17C319.368 403.57 316.584 406.352 313.183 406.352H245.257C241.857 406.352 239.075 403.57 239.075 400.17C239.075 396.77 241.857 393.987 245.257 393.987Z" fill="#25020B"/>
<path fill-rule="evenodd" clip-rule="evenodd" d="M227.262 393.987C224.012 393.987 221.354 396.644 221.354 399.894V400.446C221.354 403.694 224.011 406.352 227.26 406.352C230.51 406.352 233.168 403.694 233.168 400.446V399.894C233.168 396.644 230.511 393.987 227.262 393.987Z" fill="#25020B"/>
<path fill-rule="evenodd" clip-rule="evenodd" d="M202.445 362.82H360.192C362.853 362.82 365.034 365.002 365.034 367.664C365.034 370.328 362.853 372.507 360.192 372.507H202.445C199.782 372.507 197.604 370.328 197.604 367.664C197.604 365.002 199.782 362.82 202.445 362.82Z" fill="#2E000B"/>
<path fill-rule="evenodd" clip-rule="evenodd" d="M458.067 432.943H493.155C497.976 432.943 501.917 436.885 501.917 441.704C501.917 446.527 497.976 450.465 493.155 450.465H458.067C453.248 450.465 449.307 446.527 449.307 441.704C449.307 436.885 453.248 432.943 458.067 432.943Z" fill="#903E23"/>
<path fill-rule="evenodd" clip-rule="evenodd" d="M433.341 432.943C428.572 432.943 424.668 436.847 424.668 441.615V441.793C424.668 446.563 428.571 450.465 433.34 450.465C438.111 450.465 442.016 446.563 442.016 441.793V441.615C442.016 436.847 438.112 432.943 433.341 432.943Z" fill="#903E23"/>
<path fill-rule="evenodd" clip-rule="evenodd" d="M361.291 192.346C358.273 196.2 353.584 198.678 348.311 198.678C346.391 198.678 344.549 198.35 342.839 197.746C338.596 204.288 331.229 208.618 322.852 208.618C314.308 208.618 306.817 204.116 302.617 197.355L321.665 173.582C328.429 165.143 339.444 165.084 346.148 173.447L361.291 192.346Z" fill="white"/>
<path fill-rule="evenodd" clip-rule="evenodd" d="M313.089 234.057C310.595 234.057 308.572 232.034 308.572 229.539C308.572 227.046 310.595 225.025 313.089 225.025C315.584 225.025 317.607 227.046 317.607 229.539C317.607 232.034 315.584 234.057 313.089 234.057Z" fill="white"/>
<path fill-rule="evenodd" clip-rule="evenodd" d="M349.184 230.918C346.691 230.918 344.667 228.897 344.667 226.402C344.667 223.906 346.691 221.886 349.184 221.886C351.677 221.886 353.7 223.906 353.7 226.402C353.7 228.897 351.677 230.918 349.184 230.918Z" fill="white"/>
<path fill-rule="evenodd" clip-rule="evenodd" d="M360.684 222.218C358.858 222.218 357.38 220.739 357.38 218.915C357.38 217.089 358.858 215.609 360.684 215.609C362.508 215.609 363.989 217.089 363.989 218.915C363.989 220.739 362.508 222.218 360.684 222.218Z" fill="white"/>
<path fill-rule="evenodd" clip-rule="evenodd" d="M320.9 219.485C319.349 219.485 318.092 218.228 318.092 216.674C318.092 215.124 319.349 213.866 320.9 213.866C322.452 213.866 323.709 215.124 323.709 216.674C323.709 218.228 322.452 219.485 320.9 219.485Z" fill="white"/>
<path fill-rule="evenodd" clip-rule="evenodd" d="M330.699 219.784C329.924 219.784 329.296 219.158 329.296 218.382C329.296 217.606 329.924 216.978 330.699 216.978C331.476 216.978 332.104 217.606 332.104 218.382C332.104 219.158 331.476 219.784 330.699 219.784Z" fill="white"/>
<path fill-rule="evenodd" clip-rule="evenodd" d="M349.009 212.811C348.235 212.811 347.605 212.182 347.605 211.406C347.605 210.631 348.235 210.003 349.009 210.003C349.784 210.003 350.415 210.631 350.415 211.406C350.415 212.182 349.784 212.811 349.009 212.811Z" fill="white"/>
<path fill-rule="evenodd" clip-rule="evenodd" d="M306.464 218.042C305.687 218.042 305.06 217.412 305.06 216.636C305.06 215.862 305.687 215.234 306.464 215.234C307.24 215.234 307.868 215.862 307.868 216.636C307.868 217.412 307.24 218.042 306.464 218.042Z" fill="white"/>
<path fill-rule="evenodd" clip-rule="evenodd" d="M297.14 205.993C296.709 205.993 296.307 205.868 295.969 205.652L298.685 202.263C299.08 202.657 299.324 203.204 299.324 203.807C299.324 205.013 298.347 205.993 297.14 205.993Z" fill="white"/>
<path fill-rule="evenodd" clip-rule="evenodd" d="M357.99 207.748C356.786 207.748 355.806 206.769 355.806 205.564C355.806 204.357 356.786 203.377 357.99 203.377C359.196 203.377 360.176 204.357 360.176 205.564C360.176 206.769 359.196 207.748 357.99 207.748Z" fill="white"/>
<path fill-rule="evenodd" clip-rule="evenodd" d="M374.553 220.478C373.348 220.478 372.369 219.499 372.369 218.292C372.369 217.087 373.348 216.108 374.553 216.108C375.761 216.108 376.74 217.087 376.74 218.292C376.74 219.499 375.761 220.478 374.553 220.478Z" fill="white"/>
<path fill-rule="evenodd" clip-rule="evenodd" d="M438.708 204.209L416.808 190.894C416.475 190.69 416.044 190.773 415.812 191.085C415.578 191.398 415.62 191.834 415.908 192.095L438.203 212.327C438.491 212.59 438.93 212.59 439.219 212.327L461.51 192.095C461.8 191.834 461.842 191.398 461.607 191.085C461.374 190.773 460.943 190.69 460.61 190.894L438.708 204.209Z" fill="white"/>
<path fill-rule="evenodd" clip-rule="evenodd" d="M450.94 230.881L439.107 223.687C438.927 223.579 438.694 223.624 438.57 223.792C438.442 223.961 438.467 224.196 438.623 224.339L450.666 235.269C450.822 235.409 451.056 235.409 451.212 235.269L463.258 224.339C463.414 224.196 463.436 223.961 463.31 223.792C463.184 223.624 462.952 223.579 462.771 223.687L450.94 230.881Z" fill="white"/>
<path fill-rule="evenodd" clip-rule="evenodd" d="M416.35 227.096L398.378 216.172C398.105 216.005 397.756 216.072 397.562 216.33C397.37 216.588 397.405 216.945 397.644 217.16L415.934 233.76C416.172 233.974 416.53 233.974 416.766 233.76L435.057 217.16C435.294 216.945 435.328 216.588 435.137 216.33C434.944 216.072 434.594 216.005 434.32 216.172L416.35 227.096Z" fill="white"/>
<path fill-rule="evenodd" clip-rule="evenodd" d="M430.857 249.63L419.968 243.01C419.802 242.909 419.589 242.952 419.473 243.108C419.357 243.262 419.377 243.48 419.521 243.608L430.605 253.669C430.749 253.797 430.966 253.797 431.108 253.669L442.194 243.608C442.337 243.48 442.358 243.262 442.242 243.108C442.126 242.952 441.913 242.909 441.748 243.01L430.857 249.63Z" fill="white"/>
<path fill-rule="evenodd" clip-rule="evenodd" d="M379.189 168.316C380.641 168.316 382.033 168.578 383.318 169.055C383.898 168.415 384.738 168.011 385.672 168.011C386.106 168.011 386.52 168.1 386.898 168.259C387.106 165.522 389.393 163.366 392.181 163.366C393.392 163.366 394.508 163.772 395.401 164.456C395.973 163.671 396.898 163.159 397.944 163.159C398.118 163.159 398.292 163.175 398.458 163.2C398.105 162.375 397.909 161.467 397.909 160.512C397.909 156.734 400.969 153.674 404.748 153.674C405.452 153.674 406.13 153.779 406.768 153.978C407.265 152.919 408.336 152.188 409.582 152.188L409.672 152.19C409.658 151.943 409.649 151.694 409.649 151.444C409.649 144.656 415.152 139.152 421.94 139.152C428.729 139.152 434.232 144.656 434.232 151.444C434.232 151.539 434.23 151.635 434.228 151.728C434.822 151.579 435.442 151.498 436.082 151.498C437.354 151.498 438.552 151.814 439.604 152.371C441.393 149.926 444.286 148.338 447.55 148.338C452.988 148.338 457.394 152.746 457.394 158.182C457.394 159.252 457.224 160.282 456.908 161.246C457.006 161.238 457.106 161.235 457.206 161.235C459.882 161.235 462.053 163.407 462.053 166.083C462.053 166.399 462.022 166.707 461.966 167.004C462 167.003 462.034 167.003 462.068 167.003C463.581 167.003 464.813 168.203 464.864 169.704C465.282 169.624 465.716 169.583 466.16 169.583C467.908 169.583 469.542 170.19 470.718 171.304C473.869 174.283 470.432 175.056 467.117 175.056H462.794H459.405H389.888H384.462H375.548C372.093 175.056 367.161 175.623 370.586 172.011C372.748 169.734 375.804 168.316 379.189 168.316Z" fill="white"/>
<path fill-rule="evenodd" clip-rule="evenodd" d="M552.63 275.308C552.63 274.92 552.316 274.607 551.93 274.607C551.544 274.607 551.229 274.92 551.229 275.308V276.182H550.356C549.969 276.182 549.656 276.495 549.656 276.883C549.656 277.271 549.969 277.584 550.356 277.584H551.229V278.458C551.229 278.843 551.544 279.156 551.93 279.156C552.316 279.156 552.63 278.843 552.63 278.458V277.584H553.505C553.889 277.584 554.204 277.271 554.204 276.883C554.204 276.495 553.889 276.182 553.505 276.182H552.63V275.308Z" fill="white"/>
<path fill-rule="evenodd" clip-rule="evenodd" d="M398.706 289.743C398.706 289.357 398.394 289.044 398.006 289.044C397.62 289.044 397.306 289.357 397.306 289.743V290.619H396.432C396.044 290.619 395.732 290.933 395.732 291.317C395.732 291.705 396.044 292.019 396.432 292.019H397.306V292.892C397.306 293.279 397.62 293.593 398.006 293.593C398.394 293.593 398.706 293.279 398.706 292.892V292.019H399.58C399.967 292.019 400.283 291.705 400.283 291.317C400.283 290.933 399.967 290.619 399.58 290.619H398.706V289.743Z" fill="white"/>
<path fill-rule="evenodd" clip-rule="evenodd" d="M337.819 133.833C337.819 133.446 337.506 133.131 337.118 133.131C336.733 133.131 336.417 133.446 336.417 133.833V134.707H335.543C335.157 134.707 334.843 135.022 334.843 135.407C334.843 135.795 335.157 136.109 335.543 136.109H336.417V136.982C336.417 137.369 336.733 137.682 337.118 137.682C337.506 137.682 337.819 137.369 337.819 136.982V136.109H338.693C339.079 136.109 339.394 135.795 339.394 135.407C339.394 135.022 339.079 134.707 338.693 134.707H337.819V133.833Z" fill="white"/>
<path fill-rule="evenodd" clip-rule="evenodd" d="M211.429 148.593C211.429 148.208 211.116 147.892 210.729 147.892C210.341 147.892 210.028 148.208 210.028 148.593V149.468H209.153C208.768 149.468 208.453 149.782 208.453 150.169C208.453 150.554 208.768 150.869 209.153 150.869H210.028V151.744C210.028 152.129 210.341 152.442 210.729 152.442C211.116 152.442 211.429 152.129 211.429 151.744V150.869H212.302C212.69 150.869 213.004 150.554 213.004 150.169C213.004 149.782 212.69 149.468 212.302 149.468H211.429V148.593Z" fill="white"/>
<path fill-rule="evenodd" clip-rule="evenodd" d="M105.337 335.87C105.337 335.486 105.021 335.172 104.635 335.172C104.249 335.172 103.935 335.486 103.935 335.87V336.746H103.059C102.673 336.746 102.359 337.06 102.359 337.446C102.359 337.832 102.673 338.146 103.059 338.146H103.935V339.02C103.935 339.406 104.249 339.722 104.635 339.722C105.021 339.722 105.337 339.406 105.337 339.02V338.146H106.21C106.597 338.146 106.91 337.832 106.91 337.446C106.91 337.06 106.597 336.746 106.21 336.746H105.337V335.87Z" fill="white"/>
<path fill-rule="evenodd" clip-rule="evenodd" d="M553.694 369.082C553.694 368.695 553.381 368.383 552.995 368.383C552.609 368.383 552.294 368.695 552.294 369.082V369.957H551.419C551.034 369.957 550.721 370.271 550.721 370.658C550.721 371.046 551.034 371.359 551.419 371.359H552.294V372.231C552.294 372.618 552.609 372.934 552.995 372.934C553.381 372.934 553.694 372.618 553.694 372.231V371.359H554.567C554.954 371.359 555.269 371.046 555.269 370.658C555.269 370.271 554.954 369.957 554.567 369.957H553.694V369.082Z" fill="white"/>
<path fill-rule="evenodd" clip-rule="evenodd" d="M318.445 309.117C318.445 308.73 318.131 308.417 317.743 308.417C317.357 308.417 317.043 308.73 317.043 309.117V309.992H316.169C315.783 309.992 315.469 310.305 315.469 310.692C315.469 311.08 315.783 311.393 316.169 311.393H317.043V312.265C317.043 312.653 317.357 312.966 317.743 312.966C318.131 312.966 318.445 312.653 318.445 312.265V311.393H319.318C319.706 311.393 320.019 311.08 320.019 310.692C320.019 310.305 319.706 309.992 319.318 309.992H318.445V309.117Z" fill="white"/>
<path fill-rule="evenodd" clip-rule="evenodd" d="M371.029 239.926C371.029 239.539 370.717 239.227 370.329 239.227C369.945 239.227 369.627 239.539 369.627 239.926V240.802H368.753C368.369 240.802 368.057 241.115 368.057 241.5C368.057 241.888 368.369 242.202 368.753 242.202H369.627V243.075C369.627 243.46 369.945 243.776 370.329 243.776C370.717 243.776 371.029 243.46 371.029 243.075V242.202H371.903C372.291 242.202 372.606 241.888 372.606 241.5C372.606 241.115 372.291 240.802 371.903 240.802H371.029V239.926Z" fill="white"/>
<path fill-rule="evenodd" clip-rule="evenodd" d="M399.629 122.762C399.629 122.375 399.316 122.063 398.929 122.063C398.544 122.063 398.229 122.375 398.229 122.762V123.638H397.354C396.969 123.638 396.656 123.951 396.656 124.336C396.656 124.724 396.969 125.038 397.354 125.038H398.229V125.912C398.229 126.296 398.544 126.612 398.929 126.612C399.316 126.612 399.629 126.296 399.629 125.912V125.038H400.502C400.89 125.038 401.205 124.724 401.205 124.336C401.205 123.951 400.89 123.638 400.502 123.638H399.629V122.762Z" fill="white"/>
<path fill-rule="evenodd" clip-rule="evenodd" d="M573.991 180.883C573.991 180.497 573.676 180.184 573.291 180.184C572.904 180.184 572.59 180.497 572.59 180.883V181.757H571.716C571.33 181.757 571.016 182.072 571.016 182.457C571.016 182.845 571.33 183.159 571.716 183.159H572.59V184.032C572.59 184.417 572.904 184.732 573.291 184.732C573.676 184.732 573.991 184.417 573.991 184.032V183.159H574.863C575.251 183.159 575.566 182.845 575.566 182.457C575.566 182.072 575.251 181.757 574.863 181.757H573.991V180.883Z" fill="#A4D8DB"/>
<path fill-rule="evenodd" clip-rule="evenodd" d="M173.605 95.565C173.605 95.177 173.289 94.8636 172.903 94.8636C172.517 94.8636 172.202 95.177 172.202 95.565V96.4383H171.329C170.941 96.4383 170.627 96.753 170.627 97.1396C170.627 97.525 170.941 97.8383 171.329 97.8383H172.202V98.713C172.202 99.0996 172.517 99.4143 172.903 99.4143C173.289 99.4143 173.605 99.0996 173.605 98.713V97.8383H174.478C174.863 97.8383 175.178 97.525 175.178 97.1396C175.178 96.753 174.863 96.4383 174.478 96.4383H173.605V95.565Z" fill="#A4D8DB"/>
<path fill-rule="evenodd" clip-rule="evenodd" d="M40.758 375.096C40.758 374.71 40.4433 374.396 40.058 374.396C39.67 374.396 39.3553 374.71 39.3553 375.096V375.97H38.482C38.0953 375.97 37.782 376.284 37.782 376.672C37.782 377.058 38.0953 377.371 38.482 377.371H39.3553V378.244C39.3553 378.631 39.67 378.946 40.058 378.946C40.4433 378.946 40.758 378.631 40.758 378.244V377.371H41.6313C42.0166 377.371 42.3313 377.058 42.3313 376.672C42.3313 376.284 42.0166 375.97 41.6313 375.97H40.758V375.096Z" fill="#A4D8DB"/>
<path fill-rule="evenodd" clip-rule="evenodd" d="M592.441 435.984C592.441 435.596 592.129 435.284 591.743 435.284C591.355 435.284 591.041 435.596 591.041 435.984V436.858H590.168C589.779 436.858 589.467 437.172 589.467 437.56C589.467 437.946 589.779 438.258 590.168 438.258H591.041V439.134C591.041 439.52 591.355 439.835 591.743 439.835C592.129 439.835 592.441 439.52 592.441 439.134V438.258H593.315C593.701 438.258 594.016 437.946 594.016 437.56C594.016 437.172 593.701 436.858 593.315 436.858H592.441V435.984Z" fill="#A4D8DB"/>
<path fill-rule="evenodd" clip-rule="evenodd" d="M433.763 78.9588C433.763 78.5708 433.451 78.2574 433.062 78.2574C432.678 78.2574 432.362 78.5708 432.362 78.9588V79.8321H431.49C431.101 79.8321 430.789 80.1468 430.789 80.5334C430.789 80.9188 431.101 81.2321 431.49 81.2321H432.362V82.1068C432.362 82.4934 432.678 82.8081 433.062 82.8081C433.451 82.8081 433.763 82.4934 433.763 82.1068V81.2321H434.637C435.025 81.2321 435.339 80.9188 435.339 80.5334C435.339 80.1468 435.025 79.8321 434.637 79.8321H433.763V78.9588Z" fill="#A4D8DB"/>
<path fill-rule="evenodd" clip-rule="evenodd" d="M613.659 303.137C613.659 302.751 613.347 302.437 612.959 302.437C612.574 302.437 612.259 302.751 612.259 303.137V304.012H611.383C610.999 304.012 610.686 304.325 610.686 304.713C610.686 305.099 610.999 305.412 611.383 305.412H612.259V306.285C612.259 306.673 612.574 306.987 612.959 306.987C613.347 306.987 613.659 306.673 613.659 306.285V305.412H614.532C614.922 305.412 615.235 305.099 615.235 304.713C615.235 304.325 614.922 304.012 614.532 304.012H613.659V303.137Z" fill="#A4D8DB"/>
<path fill-rule="evenodd" clip-rule="evenodd" d="M557.155 183.907C557.672 183.39 558.388 183.07 559.179 183.07C559.968 183.07 560.684 183.39 561.199 183.906C561.718 184.423 562.036 185.138 562.036 185.93C562.036 186.719 561.718 187.435 561.202 187.951C560.684 188.469 559.968 188.79 559.179 188.79C558.388 188.79 557.672 188.469 557.158 187.954C556.638 187.435 556.319 186.719 556.319 185.93C556.319 185.138 556.638 184.423 557.155 183.907ZM559.179 181.763C558.031 181.763 556.99 182.23 556.236 182.983L556.232 182.989C555.479 183.743 555.012 184.783 555.012 185.93C555.012 187.077 555.479 188.119 556.232 188.874L556.238 188.878C556.991 189.63 558.031 190.098 559.179 190.098C560.326 190.098 561.367 189.63 562.123 188.875L562.127 188.873C562.88 188.117 563.346 187.075 563.346 185.93C563.346 184.783 562.878 183.742 562.126 182.987L562.12 182.983C561.367 182.23 560.326 181.763 559.179 181.763Z" fill="#A4D8DB"/>
<path fill-rule="evenodd" clip-rule="evenodd" d="M209.081 68.0071C209.597 67.4924 210.314 67.1711 211.103 67.1711C211.894 67.1711 212.609 67.4924 213.125 68.0071C213.643 68.5244 213.962 69.2404 213.962 70.0311C213.962 70.8218 213.643 71.5364 213.129 72.0524C212.609 72.5711 211.894 72.8911 211.103 72.8911C210.314 72.8911 209.597 72.5711 209.081 72.0564C208.563 71.5364 208.243 70.8218 208.243 70.0311C208.243 69.2404 208.563 68.5244 209.081 68.0071ZM211.103 65.8644C209.955 65.8644 208.915 66.3324 208.161 67.0844L208.155 67.0884C207.403 67.8431 206.937 68.8844 206.937 70.0311C206.937 71.1791 207.403 72.2204 208.157 72.9751L208.162 72.9791C208.915 73.7311 209.958 74.1991 211.103 74.1991C212.251 74.1991 213.291 73.7311 214.047 72.9778L214.051 72.9738C214.803 72.2178 215.27 71.1764 215.27 70.0311C215.27 68.8831 214.803 67.8431 214.049 67.0884L214.045 67.0831C213.29 66.3298 212.249 65.8644 211.103 65.8644Z" fill="#A4D8DB"/>
<path fill-rule="evenodd" clip-rule="evenodd" d="M59.6284 252.517C60.1444 252.001 60.8604 251.681 61.651 251.681C62.4417 251.681 63.1564 252.001 63.6724 252.517C64.191 253.033 64.5097 253.749 64.5097 254.541C64.5097 255.331 64.191 256.046 63.6764 256.562C63.1564 257.081 62.4417 257.399 61.651 257.399C60.8604 257.399 60.1444 257.081 59.6284 256.566C59.111 256.046 58.791 255.331 58.791 254.541C58.791 253.749 59.111 253.033 59.6284 252.517ZM61.651 250.374C60.503 250.374 59.463 250.841 58.7084 251.594L58.703 251.601C57.951 252.353 57.4844 253.394 57.4844 254.541C57.4844 255.687 57.951 256.729 58.7044 257.485L58.7097 257.489C59.463 258.241 60.5044 258.709 61.651 258.709C62.7977 258.709 63.839 258.241 64.595 257.486L64.5977 257.482C65.351 256.727 65.8177 255.686 65.8177 254.541C65.8177 253.393 65.351 252.353 64.5964 251.598L64.5924 251.593C63.8377 250.838 62.7964 250.374 61.651 250.374Z" fill="#A4D8DB"/>
<path fill-rule="evenodd" clip-rule="evenodd" d="M616.848 381.674C617.365 381.157 618.08 380.838 618.872 380.838C619.66 380.838 620.377 381.157 620.892 381.673C621.409 382.193 621.728 382.909 621.728 383.7C621.728 384.488 621.409 385.205 620.893 385.718C620.377 386.237 619.66 386.554 618.872 386.554C618.08 386.554 617.365 386.237 616.848 385.722C616.33 385.205 616.012 384.488 616.012 383.7C616.012 382.909 616.33 382.193 616.848 381.674ZM618.872 379.53C617.722 379.53 616.681 379.997 615.926 380.752L615.922 380.756C615.169 381.51 614.704 382.55 614.704 383.7C614.704 384.845 615.169 385.886 615.922 386.641L615.929 386.645C616.682 387.398 617.722 387.864 618.872 387.864C620.016 387.864 621.057 387.398 621.814 386.645L621.818 386.64C622.572 385.884 623.037 384.845 623.037 383.7C623.037 382.55 622.57 381.509 621.818 380.754L621.812 380.752C621.057 379.997 620.016 379.53 618.872 379.53Z" fill="#A4D8DB"/>
<path fill-rule="evenodd" clip-rule="evenodd" d="M170.335 580.945C170.851 580.428 171.567 580.107 172.357 580.107C173.147 580.107 173.863 580.428 174.379 580.943C174.897 581.464 175.216 582.179 175.216 582.971C175.216 583.757 174.897 584.476 174.381 584.989C173.863 585.507 173.147 585.827 172.357 585.827C171.567 585.827 170.851 585.507 170.336 584.992C169.817 584.476 169.497 583.757 169.497 582.971C169.497 582.179 169.817 581.464 170.335 580.945ZM172.357 578.801C171.208 578.801 170.168 579.267 169.415 580.021L169.408 580.027C168.657 580.781 168.189 581.82 168.189 582.971C168.189 584.115 168.657 585.156 169.409 585.912L169.416 585.916C170.169 586.668 171.209 587.135 172.357 587.135C173.503 587.135 174.545 586.668 175.3 585.916L175.304 585.909C176.057 585.155 176.524 584.115 176.524 582.971C176.524 581.82 176.057 580.78 175.303 580.024L175.299 580.021C174.544 579.267 173.501 578.801 172.357 578.801Z" fill="#A4D8DB"/>
<path fill-rule="evenodd" clip-rule="evenodd" d="M408.353 315.251C408.866 314.734 409.582 314.414 410.374 314.414C411.164 314.414 411.881 314.734 412.394 315.25C412.914 315.769 413.233 316.485 413.233 317.275C413.233 318.063 412.914 318.782 412.398 319.295C411.881 319.814 411.164 320.134 410.374 320.134C409.582 320.134 408.866 319.814 408.353 319.299C407.834 318.782 407.513 318.063 407.513 317.275C407.513 316.485 407.834 315.769 408.353 315.251ZM410.374 313.107C409.225 313.107 408.188 313.574 407.432 314.327L407.425 314.333C406.674 315.087 406.209 316.127 406.209 317.275C406.209 318.421 406.674 319.463 407.428 320.218L407.434 320.222C408.188 320.974 409.226 321.442 410.374 321.442C411.52 321.442 412.561 320.974 413.318 320.222L413.322 320.217C414.074 319.461 414.541 318.421 414.541 317.275C414.541 316.127 414.074 315.086 413.32 314.331L413.316 314.327C412.56 313.574 411.518 313.107 410.374 313.107Z" fill="white"/>
<path fill-rule="evenodd" clip-rule="evenodd" d="M388.517 190.247C389.034 189.729 389.749 189.411 390.542 189.411C391.332 189.411 392.046 189.729 392.562 190.245C393.078 190.764 393.4 191.479 393.4 192.269C393.4 193.061 393.078 193.776 392.564 194.292C392.046 194.809 391.332 195.129 390.542 195.129C389.749 195.129 389.034 194.809 388.518 194.293C388 193.776 387.681 193.061 387.681 192.269C387.681 191.479 388 190.764 388.517 190.247ZM390.542 188.103C389.393 188.103 388.352 188.569 387.596 189.324L387.592 189.328C386.838 190.083 386.373 191.123 386.373 192.269C386.373 193.416 386.838 194.457 387.594 195.212L387.598 195.219C388.353 195.971 389.393 196.436 390.542 196.436C391.686 196.436 392.728 195.969 393.485 195.216L393.489 195.211C394.241 194.457 394.706 193.416 394.706 192.269C394.706 191.123 394.24 190.081 393.488 189.327L393.481 189.323C392.728 188.569 391.686 188.103 390.542 188.103Z" fill="white"/>
<path fill-rule="evenodd" clip-rule="evenodd" d="M529.668 251.135C530.184 250.617 530.899 250.299 531.689 250.299C532.481 250.299 533.196 250.617 533.711 251.133C534.231 251.652 534.549 252.367 534.549 253.159C534.549 253.949 534.231 254.664 533.713 255.18C533.196 255.696 532.481 256.017 531.689 256.017C530.899 256.017 530.184 255.696 529.668 255.181C529.152 254.664 528.831 253.949 528.831 253.159C528.831 252.367 529.152 251.652 529.668 251.135ZM531.689 248.991C530.543 248.991 529.501 249.457 528.748 250.212L528.743 250.216C527.989 250.971 527.525 252.011 527.525 253.159C527.525 254.304 527.989 255.345 528.744 256.103L528.748 256.107C529.501 256.859 530.544 257.325 531.689 257.325C532.836 257.325 533.877 256.859 534.636 256.105L534.639 256.101C535.391 255.345 535.859 254.304 535.859 253.159C535.859 252.011 535.391 250.968 534.637 250.215L534.633 250.211C533.877 249.457 532.836 248.991 531.689 248.991Z" fill="white"/>
<path fill-rule="evenodd" clip-rule="evenodd" d="M147.732 223.458C148.249 222.941 148.964 222.622 149.756 222.622C150.547 222.622 151.261 222.941 151.777 223.457C152.293 223.976 152.616 224.692 152.616 225.482C152.616 226.273 152.293 226.988 151.779 227.504C151.261 228.02 150.547 228.341 149.756 228.341C148.964 228.341 148.249 228.02 147.733 227.505C147.215 226.988 146.896 226.273 146.896 225.482C146.896 224.692 147.215 223.976 147.732 223.458ZM149.756 221.314C148.608 221.314 147.565 221.781 146.811 222.536L146.808 222.54C146.055 223.293 145.588 224.334 145.588 225.482C145.588 226.628 146.055 227.669 146.809 228.425L146.813 228.43C147.568 229.184 148.608 229.648 149.756 229.648C150.901 229.648 151.944 229.181 152.7 228.429L152.704 228.422C153.456 227.669 153.921 226.628 153.921 225.482C153.921 224.334 153.455 223.292 152.701 222.538L152.697 222.534C151.944 221.781 150.901 221.314 149.756 221.314Z" fill="white"/>
<path fill-rule="evenodd" clip-rule="evenodd" d="M140.352 347.079C140.869 346.562 141.584 346.242 142.376 346.242C143.164 346.242 143.881 346.562 144.397 347.079C144.913 347.597 145.233 348.313 145.233 349.103C145.233 349.893 144.913 350.609 144.398 351.125C143.881 351.645 143.164 351.962 142.376 351.962C141.584 351.962 140.869 351.645 140.353 351.127C139.834 350.609 139.516 349.893 139.516 349.103C139.516 348.313 139.834 347.597 140.352 347.079ZM142.376 344.938C141.228 344.938 140.185 345.402 139.43 346.158L139.426 346.161C138.674 346.915 138.208 347.958 138.208 349.103C138.208 350.25 138.674 351.29 139.426 352.049L139.433 352.051C140.188 352.805 141.228 353.271 142.376 353.271C143.521 353.271 144.564 352.805 145.317 352.05L145.324 352.046C146.074 351.29 146.541 350.25 146.541 349.103C146.541 347.955 146.074 346.915 145.321 346.159L145.316 346.155C144.561 345.402 143.518 344.938 142.376 344.938Z" fill="white"/>
<path fill-rule="evenodd" clip-rule="evenodd" d="M200.542 258.836L204.457 239.429C204.485 239.299 204.478 239.18 204.434 239.052L200.52 227.157C200.404 226.808 200.058 226.599 199.7 226.657C199.337 226.716 199.076 227.023 199.076 227.388V258.691C199.076 259.072 199.362 259.389 199.742 259.427C200.122 259.465 200.465 259.211 200.542 258.836Z" fill="white"/>
<path fill-rule="evenodd" clip-rule="evenodd" d="M200.542 258.836L201.486 254.151C200.852 253.801 200.377 253.208 200.377 252.211V241.453C200.377 236.696 200.746 234.157 201.804 234.237C202.825 234.315 203.23 235.403 203.258 235.475L200.52 227.157C200.404 226.808 200.058 226.599 199.7 226.657C199.337 226.716 199.076 227.023 199.076 227.388V258.691C199.076 259.072 199.362 259.389 199.742 259.427C200.122 259.465 200.465 259.211 200.542 258.836Z" fill="#DFF0F4"/>
<path fill-rule="evenodd" clip-rule="evenodd" d="M199.58 257.989L180.815 264.3C180.688 264.342 180.588 264.409 180.499 264.508L172.156 273.848C171.911 274.121 171.902 274.522 172.135 274.808C172.364 275.092 172.762 275.164 173.079 274.982L200.186 259.332C200.518 259.141 200.647 258.733 200.49 258.385C200.332 258.037 199.942 257.866 199.58 257.989Z" fill="white"/>
<path fill-rule="evenodd" clip-rule="evenodd" d="M199.58 257.989L195.051 259.513C195.063 260.236 194.786 260.945 193.924 261.442C191.346 262.933 188.727 264.442 184.607 266.822C180.488 269.202 178.104 270.149 177.644 269.196C177.199 268.272 177.94 267.374 177.99 267.316L172.156 273.848C171.911 274.121 171.902 274.522 172.135 274.808C172.364 275.092 172.762 275.164 173.079 274.982L200.186 259.332C200.518 259.141 200.647 258.733 200.49 258.385C200.332 258.037 199.942 257.866 199.58 257.989Z" fill="#DFF0F4"/>
<path fill-rule="evenodd" clip-rule="evenodd" d="M199.326 259.245L214.174 272.341C214.274 272.429 214.381 272.481 214.512 272.51L226.772 275.065C227.13 275.141 227.484 274.945 227.616 274.605C227.744 274.261 227.61 273.883 227.296 273.699L200.186 258.049C199.854 257.857 199.437 257.947 199.214 258.258C198.99 258.567 199.04 258.993 199.326 259.245Z" fill="white"/>
<path fill-rule="evenodd" clip-rule="evenodd" d="M199.326 259.245L202.91 262.406C203.53 262.033 204.284 261.917 205.146 262.417C207.724 263.905 210.341 265.414 214.462 267.794C218.582 270.174 220.597 271.763 220 272.638C219.422 273.485 218.274 273.293 218.198 273.278L226.772 275.065C227.13 275.141 227.484 274.945 227.616 274.605C227.744 274.261 227.61 273.883 227.296 273.699L200.186 258.049C199.854 257.857 199.437 257.947 199.214 258.258C198.99 258.567 199.04 258.993 199.326 259.245Z" fill="#DFF0F4"/>
<path fill-rule="evenodd" clip-rule="evenodd" d="M198.829 352.614C198.829 353.088 199.27 353.476 199.817 353.476C200.36 353.476 200.801 353.088 200.801 352.614V258.769C200.801 258.296 200.36 257.909 199.817 257.909C199.27 257.909 198.829 258.296 198.829 258.769V352.614Z" fill="white"/>
<path fill-rule="evenodd" clip-rule="evenodd" d="M199.816 260.646C200.894 260.646 201.775 259.768 201.775 258.69C201.775 257.61 200.894 256.73 199.816 256.73C198.736 256.73 197.856 257.61 197.856 258.69C197.856 259.768 198.736 260.646 199.816 260.646Z" fill="white"/>
<path fill-rule="evenodd" clip-rule="evenodd" d="M199.816 259.897C200.482 259.897 201.023 259.354 201.023 258.69C201.023 258.025 200.482 257.482 199.816 257.482C199.151 257.482 198.608 258.025 198.608 258.69C198.608 259.354 199.151 259.897 199.816 259.897Z" fill="#A4D8DB"/>
<path fill-rule="evenodd" clip-rule="evenodd" d="M205.301 352.082H194.331C193.565 352.082 192.939 352.707 192.939 353.475C192.939 354.239 193.565 354.867 194.331 354.867H205.301C206.066 354.867 206.694 354.239 206.694 353.475C206.694 352.707 206.066 352.082 205.301 352.082Z" fill="white"/>
<path fill-rule="evenodd" clip-rule="evenodd" d="M207.254 353.475H192.377C191.994 353.475 191.681 353.787 191.681 354.17C191.681 354.554 191.994 354.867 192.377 354.867H207.254C207.638 354.867 207.95 354.554 207.95 354.17C207.95 353.787 207.638 353.475 207.254 353.475Z" fill="#DFF0F4"/>
<path fill-rule="evenodd" clip-rule="evenodd" d="M261.34 258.836L265.256 239.429C265.283 239.299 265.276 239.18 265.233 239.052L261.317 227.157C261.203 226.808 260.86 226.599 260.497 226.657C260.135 226.716 259.873 227.023 259.873 227.388V258.691C259.873 259.072 260.163 259.389 260.541 259.427C260.921 259.465 261.264 259.211 261.34 258.836Z" fill="white"/>
<path fill-rule="evenodd" clip-rule="evenodd" d="M261.34 258.836L262.284 254.151C261.652 253.801 261.175 253.208 261.175 252.211V241.453C261.175 236.696 261.545 234.157 262.601 234.237C263.625 234.315 264.031 235.403 264.056 235.475L261.317 227.157C261.203 226.808 260.86 226.599 260.497 226.657C260.135 226.716 259.873 227.023 259.873 227.388V258.691C259.873 259.072 260.163 259.389 260.541 259.427C260.921 259.465 261.264 259.211 261.34 258.836Z" fill="#DFF0F4"/>
<path fill-rule="evenodd" clip-rule="evenodd" d="M260.378 257.989L241.613 264.3C241.486 264.342 241.386 264.409 241.297 264.508L232.954 273.848C232.712 274.121 232.702 274.522 232.933 274.808C233.162 275.092 233.56 275.164 233.877 274.982L260.984 259.332C261.316 259.141 261.446 258.733 261.289 258.385C261.13 258.037 260.74 257.866 260.378 257.989Z" fill="white"/>
<path fill-rule="evenodd" clip-rule="evenodd" d="M260.378 257.989L255.849 259.513C255.862 260.236 255.586 260.945 254.722 261.442C252.144 262.933 249.528 264.442 245.406 266.822C241.286 269.202 238.904 270.149 238.444 269.196C238 268.272 238.738 267.374 238.789 267.316L232.954 273.848C232.712 274.121 232.702 274.522 232.933 274.808C233.162 275.092 233.56 275.164 233.877 274.982L260.984 259.332C261.316 259.141 261.446 258.733 261.289 258.385C261.13 258.037 260.74 257.866 260.378 257.989Z" fill="#DFF0F4"/>
<path fill-rule="evenodd" clip-rule="evenodd" d="M260.126 259.245L274.972 272.341C275.074 272.429 275.18 272.481 275.312 272.51L287.571 275.065C287.931 275.141 288.283 274.945 288.412 274.605C288.544 274.261 288.41 273.883 288.092 273.699L260.984 258.049C260.654 257.857 260.236 257.947 260.015 258.258C259.791 258.567 259.838 258.993 260.126 259.245Z" fill="white"/>
<path fill-rule="evenodd" clip-rule="evenodd" d="M260.126 259.245L263.71 262.406C264.33 262.033 265.082 261.917 265.946 262.417C268.523 263.905 271.14 265.414 275.262 267.794C279.382 270.174 281.395 271.763 280.796 272.638C280.22 273.485 279.074 273.293 278.999 273.278L287.571 275.065C287.931 275.141 288.283 274.945 288.412 274.605C288.544 274.261 288.41 273.883 288.092 273.699L260.984 258.049C260.654 257.857 260.236 257.947 260.015 258.258C259.791 258.567 259.838 258.993 260.126 259.245Z" fill="#DFF0F4"/>
<path fill-rule="evenodd" clip-rule="evenodd" d="M259.629 352.614C259.629 353.088 260.07 353.476 260.614 353.476C261.16 353.476 261.602 353.088 261.602 352.614V258.769C261.602 258.296 261.16 257.909 260.614 257.909C260.07 257.909 259.629 258.296 259.629 258.769V352.614Z" fill="white"/>
<path fill-rule="evenodd" clip-rule="evenodd" d="M260.615 260.646C261.693 260.646 262.572 259.768 262.572 258.69C262.572 257.61 261.693 256.73 260.615 256.73C259.536 256.73 258.657 257.61 258.657 258.69C258.657 259.768 259.536 260.646 260.615 260.646Z" fill="white"/>
<path fill-rule="evenodd" clip-rule="evenodd" d="M260.615 259.897C261.279 259.897 261.821 259.354 261.821 258.69C261.821 258.025 261.279 257.482 260.615 257.482C259.949 257.482 259.409 258.025 259.409 258.69C259.409 259.354 259.949 259.897 260.615 259.897Z" fill="#A4D8DB"/>
<path fill-rule="evenodd" clip-rule="evenodd" d="M266.1 352.082H255.129C254.364 352.082 253.738 352.707 253.738 353.475C253.738 354.239 254.364 354.867 255.129 354.867H266.1C266.866 354.867 267.492 354.239 267.492 353.475C267.492 352.707 266.866 352.082 266.1 352.082Z" fill="white"/>
<path fill-rule="evenodd" clip-rule="evenodd" d="M268.052 353.475H253.176C252.792 353.475 252.481 353.787 252.481 354.17C252.481 354.554 252.792 354.867 253.176 354.867H268.052C268.436 354.867 268.749 354.554 268.749 354.17C268.749 353.787 268.436 353.475 268.052 353.475Z" fill="#DFF0F4"/>
<path fill-rule="evenodd" clip-rule="evenodd" d="M493.462 301.823L497.378 282.415C497.405 282.284 497.397 282.164 497.357 282.039L493.438 270.141C493.324 269.795 492.982 269.584 492.618 269.643C492.256 269.701 491.994 270.008 491.994 270.372V301.675C491.994 302.057 492.284 302.375 492.662 302.412C493.042 302.449 493.386 302.196 493.462 301.823Z" fill="white"/>
<path fill-rule="evenodd" clip-rule="evenodd" d="M493.462 301.823L494.406 297.136C493.773 296.787 493.297 296.192 493.297 295.195V284.437C493.297 279.681 493.666 277.141 494.721 277.221C495.748 277.299 496.153 278.388 496.177 278.46L493.438 270.141C493.324 269.795 492.982 269.584 492.618 269.643C492.256 269.701 491.994 270.008 491.994 270.372V301.675C491.994 302.057 492.284 302.375 492.662 302.412C493.042 302.449 493.386 302.196 493.462 301.823Z" fill="#DFF0F4"/>
<path fill-rule="evenodd" clip-rule="evenodd" d="M492.5 300.975L473.735 307.287C473.608 307.328 473.508 307.393 473.416 307.493L465.076 316.832C464.834 317.107 464.823 317.509 465.054 317.792C465.284 318.077 465.68 318.149 465.999 317.967L493.107 302.316C493.436 302.125 493.568 301.719 493.411 301.371C493.252 301.023 492.862 300.851 492.5 300.975Z" fill="white"/>
<path fill-rule="evenodd" clip-rule="evenodd" d="M492.5 300.975L487.971 302.497C487.984 303.221 487.707 303.931 486.844 304.428C484.266 305.919 481.648 307.428 477.528 309.808C473.407 312.187 471.027 313.137 470.567 312.18C470.122 311.257 470.862 310.36 470.911 310.303L465.076 316.832C464.834 317.107 464.823 317.509 465.054 317.792C465.284 318.077 465.68 318.149 465.999 317.967L493.107 302.316C493.436 302.125 493.568 301.719 493.411 301.371C493.252 301.023 492.862 300.851 492.5 300.975Z" fill="#DFF0F4"/>
<path fill-rule="evenodd" clip-rule="evenodd" d="M492.245 302.23L507.096 315.326C507.196 315.414 507.301 315.468 507.434 315.495L519.693 318.05C520.052 318.126 520.404 317.932 520.536 317.588C520.666 317.248 520.532 316.868 520.214 316.684L493.106 301.032C492.776 300.842 492.357 300.932 492.136 301.242C491.913 301.554 491.958 301.978 492.245 302.23Z" fill="white"/>
<path fill-rule="evenodd" clip-rule="evenodd" d="M492.245 302.23L495.832 305.392C496.45 305.016 497.205 304.902 498.068 305.4C500.646 306.888 503.264 308.399 507.384 310.78C511.504 313.158 513.516 314.747 512.918 315.622C512.341 316.47 511.196 316.276 511.12 316.263L519.693 318.05C520.052 318.126 520.404 317.932 520.536 317.588C520.666 317.248 520.532 316.868 520.214 316.684L493.106 301.032C492.776 300.842 492.357 300.932 492.136 301.242C491.913 301.554 491.958 301.978 492.245 302.23Z" fill="#DFF0F4"/>
<path fill-rule="evenodd" clip-rule="evenodd" d="M491.749 395.6C491.749 396.075 492.191 396.461 492.734 396.461C493.281 396.461 493.723 396.075 493.723 395.6V301.753C493.723 301.28 493.281 300.895 492.734 300.895C492.191 300.895 491.749 301.28 491.749 301.753V395.6Z" fill="white"/>
<path fill-rule="evenodd" clip-rule="evenodd" d="M492.735 303.633C493.815 303.633 494.695 302.752 494.695 301.675C494.695 300.596 493.815 299.716 492.735 299.716C491.656 299.716 490.779 300.596 490.779 301.675C490.779 302.752 491.656 303.633 492.735 303.633Z" fill="white"/>
<path fill-rule="evenodd" clip-rule="evenodd" d="M492.735 302.882C493.401 302.882 493.943 302.341 493.943 301.675C493.943 301.01 493.401 300.467 492.735 300.467C492.072 300.467 491.531 301.01 491.531 301.675C491.531 302.341 492.072 302.882 492.735 302.882Z" fill="#A4D8DB"/>
<path fill-rule="evenodd" clip-rule="evenodd" d="M498.22 395.066H487.25C486.486 395.066 485.859 395.694 485.859 396.461C485.859 397.226 486.486 397.853 487.25 397.853H498.22C498.986 397.853 499.614 397.226 499.614 396.461C499.614 395.694 498.986 395.066 498.22 395.066Z" fill="white"/>
<path fill-rule="evenodd" clip-rule="evenodd" d="M500.173 396.461H485.297C484.915 396.461 484.601 396.773 484.601 397.157C484.601 397.539 484.915 397.853 485.297 397.853H500.173C500.557 397.853 500.871 397.539 500.871 397.157C500.871 396.773 500.557 396.461 500.173 396.461Z" fill="#DFF0F4"/>
<path fill-rule="evenodd" clip-rule="evenodd" d="M104.294 332.564C104.294 331.842 104.88 331.256 105.602 331.256C106.324 331.256 106.909 331.842 106.909 332.564V334.831H109.178C109.898 334.831 110.485 335.416 110.485 336.136C110.485 336.859 109.898 337.446 109.178 337.446H106.909V339.712C106.909 340.434 106.324 341.019 105.602 341.019C104.88 341.019 104.294 340.434 104.294 339.712V337.446H102.028C101.308 337.446 100.72 336.859 100.72 336.136C100.72 335.416 101.308 334.831 102.028 334.831H104.294V332.564Z" fill="#A4D8DB"/>
<path fill-rule="evenodd" clip-rule="evenodd" d="M551.283 341.453C551.283 340.73 551.868 340.145 552.592 340.145C553.312 340.145 553.9 340.73 553.9 341.453V343.718H556.165C556.888 343.718 557.475 344.305 557.475 345.026C557.475 345.748 556.888 346.334 556.165 346.334H553.9V348.602C553.9 349.322 553.312 349.909 552.592 349.909C551.868 349.909 551.283 349.322 551.283 348.602V346.334H549.017C548.296 346.334 547.709 345.748 547.709 345.026C547.709 344.305 548.296 343.718 549.017 343.718H551.283V341.453Z" fill="#A4D8DB"/>
<path fill-rule="evenodd" clip-rule="evenodd" d="M609.856 465.387C600.888 471.393 590.164 480.484 575.292 488.649C572.876 477.1 573.718 462.395 601.656 450.451C604.832 455.792 607.936 461.771 609.856 465.387Z" fill="#F19DA3"/>
<path fill-rule="evenodd" clip-rule="evenodd" d="M301.634 591.401L117.067 524.726C133.356 502.432 141.522 482.218 128.211 464.096C119.211 451.841 163.368 456.325 218.084 465.757L327.868 519.318C362.567 536.25 343.386 606.485 301.634 591.401Z" fill="#F0969B"/>
<path fill-rule="evenodd" clip-rule="evenodd" d="M134.83 478.571L155.924 538.765L56.9376 666.666H0.000244141V502.625L98.3936 411.386L134.83 478.571Z" fill="#F4B4B6"/>
<path fill-rule="evenodd" clip-rule="evenodd" d="M134.83 478.571L155.924 538.765L56.9376 666.666H0.000244141V629.541C25.8042 619.605 55.3642 598.183 80.0082 569.267C109.327 534.87 139.135 504.445 134.354 477.995L134.83 478.571Z" fill="#F0969B"/>
<path fill-rule="evenodd" clip-rule="evenodd" d="M274.08 528.549C237.968 521.797 201.853 515.041 165.74 508.289C134.513 502.449 124.804 508.253 107.753 526.429C99.0196 511.099 84.0596 485.845 75.3263 470.515C49.8836 425.855 134.581 366.179 205.592 400.567C260.229 430.407 278.173 452.479 338.8 460.94C360.042 463.907 390.913 466.975 407.049 482.792C419.6 495.097 420.441 514.223 415.768 523.52C409.868 535.253 394.184 535.601 371.17 534.431L293.114 530.451C286.421 531.119 279.936 530.609 274.08 528.549Z" fill="#F4B4B6"/>
<path fill-rule="evenodd" clip-rule="evenodd" d="M399.297 496.415L397.992 532.374C390.756 533.562 381.737 533.318 371.17 532.714L349.21 531.458C349.128 531.054 349.056 530.642 349.002 530.212C346.156 506.994 369.305 494.859 399.297 496.415Z" fill="#F0969B"/>
<path fill-rule="evenodd" clip-rule="evenodd" d="M399.297 502.081L397.992 534.129C390.756 535.186 381.737 534.967 371.17 534.431L349.21 533.31C349.128 532.95 349.056 532.583 349.002 532.201C346.156 511.507 369.305 500.693 399.297 502.081Z" fill="#F7C8CA"/>
<path fill-rule="evenodd" clip-rule="evenodd" d="M611.376 468.43C602.41 474.438 590.439 482.008 575.57 490.171C574.258 482.08 575.24 465.439 603.179 453.494C606.354 458.836 609.455 464.816 611.376 468.43Z" fill="#F7C8CA"/>
</g>
</svg>
