<svg width="23" height="23" viewBox="0 0 23 23" fill="none" xmlns="http://www.w3.org/2000/svg">
<mask id="mask0_23_63" style="mask-type:luminance" maskUnits="userSpaceOnUse" x="0" y="0" width="23" height="23">
<g style="mix-blend-mode:hue" clip-path="url(#clip0_23_63)">
<path d="M3.13318 11.0994C3.13318 11.4986 2.96812 11.8813 2.67433 12.1636C2.38054 12.4458 1.98207 12.6043 1.56659 12.6043C1.1511 12.6043 0.752635 12.4458 0.458843 12.1636C0.165051 11.8813 0 11.4986 0 11.0994C0.000867963 8.99339 0.628633 6.93149 1.80927 5.15689C2.9899 3.38229 4.67417 1.969 6.66345 1.08367C8.65274 0.198342 10.8641 -0.122098 13.0367 0.160137C15.2093 0.442373 17.2527 1.31551 18.9257 2.67659V1.50488C18.9257 1.10576 19.0908 0.72299 19.3845 0.44077C19.6783 0.15855 20.0768 0 20.4923 0C20.9078 0 21.3062 0.15855 21.6 0.44077C21.8938 0.72299 22.0589 1.10576 22.0589 1.50488V6.24976C22.0589 6.64689 21.8946 7.02776 21.6023 7.30857C21.31 7.58939 20.9135 7.74715 20.5001 7.74715L15.7477 8.17204C15.5436 8.18974 15.338 8.16865 15.1424 8.10998C14.9468 8.05132 14.7652 7.95622 14.6078 7.83012C14.4505 7.70403 14.3206 7.5494 14.2255 7.37507C14.1304 7.20073 14.0719 7.01011 14.0535 6.81409C14.0351 6.61806 14.057 6.42047 14.1181 6.23259C14.1792 6.04471 14.2782 5.87023 14.4094 5.7191C14.5407 5.56798 14.7017 5.44317 14.8831 5.3518C15.0646 5.26044 15.2631 5.2043 15.4671 5.1866L17.0259 5.04997C15.815 4.03311 14.3249 3.37257 12.7337 3.14722C11.1425 2.92186 9.51745 3.14123 8.05253 3.77911C6.58762 4.417 5.34479 5.44644 4.47247 6.74451C3.60015 8.04258 3.13521 9.55441 3.13318 11.0994ZM7.56989 14.7681C7.98331 14.7323 8.39458 14.8558 8.71322 15.1113C9.03186 15.3669 9.23177 15.7336 9.26898 16.1307C9.30618 16.5278 9.17764 16.9229 8.91162 17.229C8.6456 17.5351 8.26389 17.7271 7.85047 17.7629L5.88639 17.9332C7.08798 18.9791 8.58 19.6672 10.1811 19.9138C11.7821 20.1604 13.4233 19.9548 14.905 19.3221C16.3868 18.6895 17.6453 17.6569 18.5275 16.35C19.4098 15.0431 19.8778 13.5181 19.8746 11.9604C19.8746 11.5613 20.0397 11.1786 20.3335 10.8963C20.6273 10.6141 21.0257 10.4556 21.4412 10.4556C21.8567 10.4556 22.2552 10.6141 22.549 10.8963C22.8427 11.1786 23.0078 11.5613 23.0078 11.9604C23.0081 14.0392 22.3976 16.0758 21.2465 17.836C20.0954 19.5963 18.4505 21.0087 16.501 21.9109C14.5514 22.813 12.3764 23.1683 10.226 22.9358C8.07559 22.7033 6.03717 21.8925 4.34514 20.5967V21.3791C4.34514 21.7782 4.18009 22.161 3.88629 22.4432C3.5925 22.7254 3.19403 22.884 2.77855 22.884C2.36306 22.884 1.9646 22.7254 1.6708 22.4432C1.37701 22.161 1.21196 21.7782 1.21196 21.3791V16.6922C1.21042 16.3171 1.35553 15.955 1.61857 15.6777C1.88161 15.4005 2.24342 15.2281 2.63241 15.1948L7.56405 14.7643L7.56989 14.7681Z" fill="white"/>
</g>
</mask>
<g mask="url(#mask0_23_63)">
<rect x="-5.55176" width="34.8966" height="34.5" fill="white"/>
</g>
<defs>
<clipPath id="clip0_23_63">
<rect width="23" height="23" fill="white"/>
</clipPath>
</defs>
</svg>
